<svg width="44" height="40" viewBox="0 0 44 40" fill="none" xmlns="http://www.w3.org/2000/svg">
<path d="M22.5351 3.04541C12.6758 3.04541 4.64708 11.1554 4.64708 21.1207C4.64708 27.2988 7.71467 32.9733 12.8463 36.3078C13.0861 36.4608 13.3575 36.5437 13.6289 36.5437C13.793 36.5437 13.9572 36.5118 14.115 36.4544C14.5379 36.3014 14.8661 35.9635 15.0112 35.5299C15.1438 35.1219 15.2763 34.7075 15.4278 34.2994C17.151 29.4092 19.2907 26.215 21.4368 25.2968C22.2636 24.9589 23.0463 24.9589 23.8732 25.2968C23.8921 25.2968 23.9111 25.316 23.9237 25.3223C26.0571 26.266 28.1716 29.4538 29.8821 34.3058C30.0084 34.6692 30.1346 35.0326 30.2672 35.4152C30.406 35.8487 30.7405 36.193 31.1634 36.3397C31.5927 36.4927 32.0661 36.4289 32.4448 36.1739C37.4375 32.8075 40.4293 27.1841 40.4293 21.1207C40.4293 11.1554 32.4006 3.04541 22.5351 3.04541ZM22.655 21.5224C20.1239 21.5224 18.0725 19.4503 18.0725 16.8936C18.0725 14.3369 20.1239 12.2648 22.655 12.2648C25.1861 12.2648 27.2374 14.3369 27.2374 16.8936C27.2374 19.4503 25.1861 21.5224 22.655 21.5224ZM32.3438 32.578C30.6964 28.1659 28.6766 25.0418 26.4358 23.4224C28.6513 22.109 30.1409 19.6734 30.1409 16.8936C30.1409 12.7302 26.783 9.33192 22.655 9.33192C18.527 9.33192 15.169 12.7238 15.169 16.8936C15.169 19.6734 16.6587 22.109 18.8805 23.4224C16.5955 25.0673 14.5505 28.2424 12.9031 32.731C9.51357 29.8746 7.54425 25.6603 7.54425 21.1207C7.54425 12.7748 14.2728 5.97189 22.5351 5.97189C30.7974 5.97189 37.5322 12.7685 37.5322 21.1207C37.5322 25.5582 35.626 29.7152 32.3438 32.578Z" fill="#0EA5E9"/>
<path opacity="0.2" d="M37.384 21.1756C37.384 25.5944 35.4967 29.7339 32.2469 32.5846C30.6158 28.1911 28.6159 25.0802 26.3973 23.4675C28.5909 22.1597 30.0658 19.7344 30.0658 16.9663C30.0658 12.8204 26.741 9.43645 22.6538 9.43645C18.5666 9.43645 15.2418 12.8141 15.2418 16.9663C15.2418 19.7344 16.7167 22.1597 18.9166 23.4675C16.6542 25.1056 14.6294 28.2673 12.9983 32.7369C9.64224 29.8926 7.69238 25.696 7.69238 21.1756C7.69238 12.8585 14.3544 6.09058 22.5351 6.09058C30.7158 6.09058 37.384 12.8585 37.384 21.1756Z" fill="#0EA5E9"/>
<path opacity="0.2" d="M25.7962 20.3693C27.5976 18.568 27.5976 15.6474 25.7962 13.846C23.9949 12.0446 21.0743 12.0446 19.2729 13.846C17.4716 15.6474 17.4716 18.568 19.2729 20.3693C21.0743 22.1707 23.9949 22.1707 25.7962 20.3693Z" fill="#0EA5E9"/>
</svg>
