<svg width="60" height="60" viewBox="0 0 60 60" fill="none" xmlns="http://www.w3.org/2000/svg">
<g clip-path="url(#clip0_425_3913)">
<path fill-rule="evenodd" clip-rule="evenodd" d="M52.0798 41.142L33.1198 31.302L57.1198 4.662L52.0798 41.142ZM29.0398 41.142L31.9198 33.102L36.2398 35.382L29.0398 41.142ZM26.7598 41.262L20.9998 26.262L52.6798 6.222L30.5998 30.822C30.4798 30.942 30.4798 31.062 30.3598 31.182L26.7598 41.262ZM8.87977 19.542L50.2798 5.262L19.5598 24.582L8.87977 19.542ZM59.3998 0.462003C59.1598 0.222003 58.6798 0.102003 58.3198 0.222003L5.75977 18.342C5.15977 18.582 4.91977 19.182 5.03977 19.662C5.15977 19.902 5.27977 20.142 5.63977 20.262L18.7198 26.502L25.6798 44.622C25.7998 44.982 26.2798 45.342 26.6398 45.342C26.8798 45.342 27.1198 45.222 27.3598 45.102L38.2798 36.342L52.3198 43.662C52.6798 43.782 53.0398 43.782 53.2798 43.662C53.6398 43.542 53.7598 43.182 53.8798 42.822L59.6398 1.302C59.7598 1.062 59.6398 0.702003 59.3998 0.462003Z" fill="black"/>
<path fill-rule="evenodd" clip-rule="evenodd" d="M16.0802 50.142V50.742C16.0802 52.422 16.0802 54.462 17.2802 55.902C18.2402 57.102 20.1602 57.702 21.7202 57.342C22.8002 56.982 23.7602 56.262 24.0002 55.302C24.2402 54.342 23.7602 53.022 22.8002 52.182C21.9602 51.462 20.6402 50.862 18.8402 50.502C17.8802 50.382 17.0402 50.262 16.0802 50.142ZM20.6402 59.742C18.6002 59.742 16.6802 58.902 15.3602 57.342C13.8002 55.302 13.6802 52.782 13.6802 50.742V50.262C9.24023 50.622 5.04023 52.542 2.04023 55.662L0.240234 54.102C3.72023 50.502 8.76023 48.342 13.9202 47.862C14.5202 43.302 16.0802 39.222 18.4802 35.982L20.4002 37.302C18.2402 40.182 16.8002 43.782 16.3202 47.862C17.2802 47.862 18.2402 47.982 19.2002 48.222C21.3602 48.702 23.0402 49.422 24.2402 50.382C25.9202 51.822 26.6402 53.982 26.1602 55.902C25.6802 57.582 24.2402 59.022 22.2002 59.502C21.7202 59.742 21.1202 59.742 20.6402 59.742Z" fill="black"/>
</g>
<defs>
<clipPath id="clip0_425_3913">
<rect width="60" height="60" fill="white"/>
</clipPath>
</defs>
</svg>
