<?xml version="1.0" encoding="utf-8"?>
<!-- Generator: Adobe Illustrator 28.0.0, SVG Export Plug-In . SVG Version: 6.00 Build 0)  -->
<svg version="1.1" id="Layer_1" xmlns="http://www.w3.org/2000/svg" xmlns:xlink="http://www.w3.org/1999/xlink" x="0px" y="0px"
	 viewBox="0 0 40 40" style="enable-background:new 0 0 40 40;" xml:space="preserve">
<style type="text/css">
	.st0{fill:#0EA5E9;}
	.st1{opacity:0.2;fill-rule:evenodd;clip-rule:evenodd;fill:#0EA5E9;enable-background:new    ;}
</style>
<path class="st0" d="M36.34,34.38h-1.93c-0.11,0-0.2-0.08-0.21-0.19l-1.35-23.15c-0.04-0.64-0.57-1.14-1.21-1.14h-7.59v-2
	c-0.01-2.9-2.37-5.26-5.26-5.26c-2.9,0-5.26,2.36-5.27,5.26v2H9.3c-0.65,0-1.18,0.5-1.21,1.14L6.74,34.18
	c-0.01,0.11-0.1,0.2-0.21,0.2H4.6c-0.67,0-1.21,0.54-1.21,1.21S3.93,36.8,4.6,36.8h31.74c0.67,0,1.21-0.54,1.21-1.21
	S37,34.38,36.34,34.38z M29.06,12.38c0.02-0.02,0.07-0.06,0.15-0.06h1.12c0.11,0,0.2,0.09,0.21,0.2l1.32,21.64
	c0,0.08-0.03,0.14-0.06,0.16c-0.03,0.03-0.08,0.06-0.15,0.06h-1.12c-0.11,0-0.2-0.09-0.21-0.2L29,12.54
	C29,12.46,29.04,12.41,29.06,12.38z M14.81,15.19c0.67,0,1.21-0.54,1.21-1.21v-1.66h5.69v1.66c0,0.67,0.54,1.21,1.21,1.21
	s1.21-0.54,1.21-1.21v-1.66h2.24c0.11,0,0.2,0.09,0.21,0.2l1.32,21.64c0,0.08-0.03,0.14-0.06,0.16c-0.02,0.02-0.07,0.06-0.15,0.06
	H9.37c-0.08,0-0.13-0.04-0.15-0.07c-0.02-0.02-0.06-0.08-0.05-0.15l1.31-21.64c0.01-0.11,0.1-0.2,0.21-0.2h2.92v1.66
	C13.6,14.64,14.14,15.19,14.81,15.19z M16.02,9.89v-2c0-1.59,1.25-2.84,2.84-2.84c1.59,0,2.84,1.25,2.85,2.84v2H16.02z"/>
<path class="st1" d="M31.46,34.89h-1.03c-0.34,0-0.63-0.3-0.65-0.67l-1.2-21.85c-0.02-0.41,0.27-0.76,0.65-0.76h1.03
	c0.34,0,0.63,0.3,0.65,0.67l1.2,21.85C32.13,34.54,31.84,34.89,31.46,34.89z"/>
<path class="st1" d="M26.49,11.61h-2.84v2.18c0,0.4-0.33,0.72-0.74,0.72c-0.41,0-0.74-0.32-0.74-0.72v-2.18h-6.93v2.18
	c0,0.4-0.33,0.72-0.74,0.72c-0.41,0-0.74-0.32-0.74-0.72v-2.18h-3.55c-0.39,0-0.71,0.3-0.73,0.67L8.12,34.13
	c-0.02,0.41,0.31,0.76,0.73,0.76h18.99c0.42,0,0.76-0.35,0.73-0.76l-1.36-21.85c-0.02-0.38-0.35-0.67-0.73-0.67H26.49z M23.19,25.91
	L23.23,26l0.5,1.15l0.6,1.32c0,0-0.8,0.64-1.57,0.64c-0.05,0-0.1-0.01-0.16-0.01c-0.02,0-0.05,0-0.07-0.01
	c-0.16-0.03-0.33-0.09-0.48-0.21c-0.04-0.03-0.08-0.06-0.12-0.1c-0.04-0.04-0.07-0.07-0.11-0.11c-0.03-0.04-0.05-0.07-0.08-0.11
	c-0.04-0.06-0.08-0.12-0.12-0.19c0,0-0.06-0.12-0.16-0.31h-0.01c0,0-0.02-0.05-0.03-0.08c-0.02-0.05-0.05-0.1-0.07-0.15
	c-0.03-0.05-0.05-0.11-0.08-0.17c-0.02-0.06-0.05-0.12-0.08-0.18c-0.02-0.05-0.05-0.12-0.08-0.19c-0.02-0.06-0.05-0.13-0.08-0.19
	h-0.02c-0.21-0.56-0.38-1.17-0.32-1.62c0.01-0.12,0.02-0.22,0.05-0.29c0,0,0-0.01,0.01-0.01c-0.01-0.01-0.01-0.01,0-0.02h0.01
	c0-0.04,0.01-0.05,0.02-0.07c0.01-0.01,0.01-0.02,0.02-0.04c0.01-0.01,0.02-0.02,0.02-0.04c0.01,0,0.01-0.01,0.01-0.01
	c0.01-0.01,0.01-0.02,0.01-0.02c0.38-0.77,2.59-1.91,2.59-1.91c0.03-0.01,0.06-0.02,0.09-0.04c0.12-0.05,0.22-0.08,0.32-0.09
	c0.04-0.01,0.07-0.02,0.1-0.02c0.05-0.01,0.11-0.01,0.16-0.01c0.08,0,0.15,0.01,0.22,0.02c1,0.18,1.33,1.64,1.33,1.64L23.19,25.91z
	 M13.29,28.94c-0.05-0.01-0.1-0.03-0.15-0.05c-0.05-0.02-0.1-0.04-0.14-0.06c-0.19-0.08-0.35-0.18-0.49-0.28
	c-0.05-0.03-0.09-0.06-0.13-0.09c-0.1-0.08-0.18-0.14-0.21-0.17c-0.01-0.01-0.02-0.02-0.03-0.03h-0.01l1.29-2.43l-2.34-1.53
	c0,0,0.01-0.02,0.02-0.06c0.01-0.02,0.01-0.04,0.02-0.07c0.12-0.31,0.47-1.05,1.09-1.31c0.05-0.03,0.11-0.05,0.17-0.06
	c0.06-0.02,0.12-0.03,0.19-0.03c0.03-0.01,0.06-0.01,0.1-0.01c0.1,0,0.19,0.02,0.29,0.04c0.01,0,0.02,0,0.03,0.01
	c0.01,0,0.02,0.01,0.03,0.01c0.13,0.04,0.26,0.08,0.39,0.15c0,0,0.01,0.01,0.01,0.01c0.05,0.02,0.25,0.11,0.61,0.36
	c0.04,0.02,0.08,0.05,0.12,0.08c0.03,0.02,0.06,0.05,0.1,0.07l0.3,0.19h0.01l0.05,0.04v0.01c0.48,0.35,0.97,0.78,1.18,1.18
	c0.02,0.04,0.04,0.06,0.05,0.09c0.12,0.22,0.1,0.35,0.1,0.36v0.02c0,0.05,0.01,0.1,0,0.17c0,0.14-0.03,0.3-0.08,0.47
	c-0.04,0.18-0.11,0.4-0.21,0.64c-0.34,0.84-0.84,1.71-0.84,1.71c-0.32,0.5-0.71,0.67-1.09,0.67c-0.07,0-0.13-0.01-0.19-0.01
	C13.45,28.99,13.37,28.97,13.29,28.94L13.29,28.94z M16.2,17.59c0.13,0,0.32,0.01,0.51,0.04c0.07,0.01,0.14,0.02,0.21,0.04
	c0.1,0.02,0.21,0.05,0.3,0.08c0.05,0.02,0.1,0.04,0.16,0.06c0.15,0.07,0.28,0.15,0.4,0.26c0.02,0.02,0.04,0.04,0.06,0.06
	c0.02,0.02,0.05,0.05,0.07,0.08c0.02,0.03,0.04,0.06,0.06,0.09c0.04,0.05,0.06,0.11,0.08,0.17c0.02,0.04,0.03,0.08,0.04,0.12
	c0.01,0.02,0.02,0.05,0.02,0.08c0.03,0.15,0.03,0.32,0.01,0.51c0,0-0.02,0.15-0.05,0.38c-0.04,0.26-0.11,0.63-0.21,1h0.01
	c-0.15,0.56-0.37,1.18-0.7,1.51c-0.03,0.04-0.06,0.07-0.09,0.09c-0.1,0.09-0.18,0.14-0.24,0.17c-0.01,0.01-0.06,0.04-0.06,0.04
	c-0.03,0.02-0.06,0.03-0.1,0.05c-0.21,0.08-0.5,0.14-0.84,0.16h-0.06c-0.04,0.01-0.09,0.01-0.14,0.01h-0.11
	c-0.04,0-0.07,0.01-0.11,0.01h-0.17c-0.54,0-1.09-0.05-1.42-0.08c-0.19-0.02-0.3-0.04-0.3-0.04c-0.12-0.02-0.22-0.04-0.32-0.07
	c-0.03-0.01-0.05-0.02-0.08-0.03c-0.07-0.03-0.15-0.06-0.21-0.09c-0.05-0.04-0.1-0.07-0.15-0.11c-0.01-0.01-0.02-0.02-0.03-0.02
	c-0.06-0.05-0.11-0.11-0.15-0.17c-0.02-0.04-0.04-0.07-0.06-0.1c-0.02-0.03-0.04-0.06-0.05-0.09c-0.03-0.06-0.05-0.14-0.07-0.21
	c-0.02-0.07-0.03-0.14-0.04-0.2c-0.01-0.08-0.01-0.16-0.01-0.24c0-0.57,0.23-1.12,0.23-1.12l2.81,0.27l0.58-2.71H16.2z M18.58,18.97
	c0-0.08,0.01-0.15,0.02-0.21c0-0.03,0.01-0.06,0.02-0.09c0.01-0.06,0.04-0.13,0.07-0.19c0.02-0.05,0.04-0.09,0.07-0.14
	c0.12-0.2,0.3-0.34,0.5-0.45c0.04-0.02,0.08-0.04,0.13-0.05c0.05-0.02,0.1-0.04,0.16-0.06c0.05-0.02,0.1-0.03,0.15-0.04
	c0.06-0.02,0.12-0.03,0.18-0.04c0.08-0.02,0.17-0.03,0.25-0.04c0.18-0.02,0.33-0.02,0.44-0.02c0.09,0,0.16,0.02,0.16,0.02l0.64,2.68
	l2.79-0.32c0,0,0.29,0.63,0.25,1.26c0,0.04,0,0.07-0.01,0.11c-0.01,0.05-0.01,0.09-0.02,0.14c-0.01,0.06-0.02,0.12-0.05,0.17
	c-0.01,0.04-0.03,0.09-0.05,0.13c-0.02,0.04-0.04,0.07-0.06,0.11c-0.04,0.08-0.1,0.15-0.18,0.22c-0.03,0.03-0.06,0.05-0.1,0.08
	c-0.03,0.02-0.06,0.05-0.1,0.07c-0.01,0.01-0.01,0.01-0.01,0.01c-0.02,0.02-0.05,0.04-0.09,0.05c0,0.01-0.01,0.01-0.02,0.01
	c-0.02,0.01-0.04,0.02-0.05,0.02c-0.02,0.01-0.05,0.02-0.08,0.03c-0.03,0.02-0.07,0.03-0.11,0.04c-0.04,0.01-0.08,0.02-0.13,0.03
	c-0.02,0.01-0.04,0.01-0.07,0.02c0,0-0.3,0.06-0.3,0.07c-0.37,0.06-1.01,0.16-1.63,0.16c-0.51,0-1.01-0.07-1.31-0.27
	c0,0-0.6-0.22-0.96-1.54c-0.09-0.26-0.17-0.53-0.23-0.76c-0.03-0.12-0.06-0.23-0.08-0.33c-0.02-0.1-0.05-0.19-0.07-0.27
	c-0.04-0.16-0.05-0.25-0.05-0.25c-0.02-0.1-0.02-0.2-0.03-0.28V18.97z M15.41,28.61c0,0,0.34-0.37,0.81-0.77l-0.04-0.02l0.18-0.09
	c0.53-0.45,1.2-0.91,1.72-0.93h0.01c0.06-0.01,0.12-0.01,0.17-0.02c0.12,0,0.16,0.02,0.16,0.02c0.19,0.02,0.42,0.12,0.68,0.25
	c0.11,0.06,0.21,0.12,0.33,0.19c0.12,0.08,0.25,0.16,0.37,0.25c0.06,0.04,0.12,0.08,0.18,0.13c0.13,0.09,0.24,0.18,0.35,0.27
	c0.11,0.09,0.22,0.17,0.31,0.25c0.01,0.01,0.02,0.02,0.04,0.03c0.16,0.13,0.29,0.24,0.37,0.31c0.02,0.02,0.05,0.04,0.06,0.05
	c0.02,0.01,0.02,0.02,0.02,0.02c0.11,0.11,0.2,0.22,0.27,0.34c0.04,0.05,0.07,0.11,0.08,0.17c0.02,0.05,0.04,0.09,0.05,0.14
	c0,0.01,0.01,0.01,0.01,0.02c0.02,0.1,0.04,0.2,0.03,0.29c0.01,0.91-1.16,1.62-1.16,1.62l-2.12-1.82l-0.03-0.02l-2.07,1.84
	C16.18,31.12,14.12,29.94,15.41,28.61z"/>
<path class="st0" d="M26.47,25.12l-0.09-0.42c-0.04-0.18-0.41-1.7-1.59-2.04c0.08-0.09,0.14-0.18,0.18-0.27
	c0.5-0.97-0.02-2.21-0.09-2.36l-0.17-0.39l-0.43,0.05l-2.2,0.25l-0.51-2.18l-0.07-0.3l-0.3-0.11c-0.05-0.02-0.18-0.06-0.35-0.06
	c-0.5,0-1.44,0.09-2.02,0.69c-0.04,0.04-0.07,0.07-0.09,0.11c-0.02-0.04-0.05-0.07-0.07-0.09c-0.56-0.64-1.53-0.74-2.06-0.74h-0.7
	l-0.1,0.47l-0.46,2.19l-2.21-0.22l-0.44-0.04l-0.17,0.41c-0.02,0.07-0.26,0.67-0.26,1.33c0,0.45,0.11,0.83,0.31,1.13
	c-0.83,0.32-1.34,1.25-1.52,1.85l-0.12,0.41l0.35,0.24l1.85,1.24l-1.02,1.97l-0.2,0.38l0.31,0.3c0.09,0.09,0.96,0.92,1.96,0.92
	c0.19,0,0.41-0.03,0.64-0.13c0,0.11,0,0.21,0.02,0.3c0.15,1.08,1.3,1.78,1.43,1.85l0.37,0.22l0.31-0.29l1.64-1.49l1.71,1.5
	l0.33,0.28l0.37-0.22c0.14-0.09,1.34-0.87,1.4-2.02c0.18,0.07,0.38,0.11,0.59,0.11c0.93,0,1.8-0.69,1.89-0.76l0.34-0.28l-0.17-0.41
	l-0.58-1.32l-0.33-0.76l1.93-1.09l0.37-0.21L26.47,25.12z M20.85,17.89c0.09,0,0.16,0.02,0.16,0.02l0.63,2.68l2.72-0.32
	c0,0,0.81,1.8-0.47,2.36h-0.02c-0.09,0.05-0.2,0.08-0.31,0.1c-0.02,0-0.05,0.01-0.07,0.02c0,0-0.29,0.06-0.3,0.07
	c-0.36,0.06-0.98,0.16-1.58,0.16c-0.5,0-0.98-0.06-1.28-0.27c0,0-0.59-0.22-0.94-1.54c-0.17-0.52-0.3-1.06-0.37-1.36
	c-0.04-0.17-0.05-0.25-0.05-0.25c-0.02-0.1-0.02-0.19-0.03-0.28c0-0.2,0.03-0.38,0.1-0.53c0.32-0.78,1.42-0.84,1.82-0.84
	L20.85,17.89z M20.73,27.47c-0.59-0.45-1.29-0.89-1.82-0.99c-0.09-0.02-0.18-0.04-0.3-0.04h-0.07h-0.03c-0.04,0-0.08,0.01-0.13,0.02
	c-0.53,0.04-1.16,0.35-1.92,0.99c0.05-0.12,0.11-0.24,0.15-0.37c0.11-0.23,0.18-0.48,0.24-0.73c0.05-0.18,0.08-0.38,0.09-0.57
	c0-0.08,0-0.15,0-0.21c0-0.12-0.02-0.34-0.16-0.62l-0.03-0.05l-0.02-0.04c-0.21-0.42-0.64-0.87-1.29-1.36l-0.05-0.05l-0.04-0.02
	c0,0-0.02-0.02-0.04-0.02c0.12,0,0.23,0,0.35,0h0.17c0.04,0,0.07,0,0.1,0h0.18h0.04c0.02,0,0.05,0,0.07,0h0.07
	c0.41-0.03,0.75-0.1,1-0.21h0.02l0.02-0.02c0.04-0.02,0.07-0.03,0.09-0.05c0.04-0.02,0.07-0.04,0.1-0.05
	c0.09-0.05,0.2-0.12,0.33-0.24c0.41-0.37,0.75-1.29,0.9-1.77c0.02,0.09,0.05,0.17,0.08,0.25c0.36,1.33,0.97,1.76,1.21,1.88
	c0.36,0.23,0.87,0.34,1.56,0.34c0.18,0,0.37,0,0.54-0.02c-0.64,0.43-1.32,0.96-1.55,1.45c-0.07,0.14-0.1,0.22-0.12,0.29
	c-0.04,0.12-0.06,0.25-0.07,0.41C20.35,26.13,20.46,26.72,20.73,27.47L20.73,27.47z M13.09,20.27l2.74,0.27l0.56-2.7h0.22
	c0.48,0,1.52,0.09,1.81,0.87c0.08,0.19,0.1,0.43,0.06,0.71c0,0-0.02,0.15-0.05,0.38c-0.04,0.26-0.11,0.63-0.2,1
	c0,0-0.4,1.3-0.77,1.59c-0.09,0.09-0.17,0.14-0.23,0.17c-0.01,0.01-0.07,0.04-0.07,0.04c-0.03,0.02-0.06,0.03-0.09,0.05
	c-0.2,0.09-0.49,0.14-0.82,0.17h-0.06c-0.05,0-0.09,0-0.14,0.01h-0.11c-0.04,0-0.07,0-0.11,0h-0.17c-0.53,0-1.06-0.05-1.38-0.08
	c-0.18-0.02-0.3-0.04-0.3-0.04c-0.14-0.02-0.26-0.05-0.37-0.09c0,0-0.01,0-0.02-0.01c-0.14-0.05-0.25-0.12-0.34-0.19
	c-0.31-0.27-0.41-0.66-0.41-1.03c0-0.57,0.22-1.12,0.22-1.12L13.09,20.27z M14.21,29.26c-0.79,0-1.55-0.76-1.55-0.76l1.26-2.43
	l-2.28-1.53c0,0,0.45-1.45,1.45-1.54C13.12,23,13.15,23,13.19,23c0.09,0,0.18,0.02,0.28,0.04c0.01,0,0.02,0,0.04,0.01
	c0.01,0,0.02,0,0.03,0c0.12,0.04,0.25,0.08,0.38,0.15c0,0,0.08,0.05,0.21,0.12c0.21,0.12,0.55,0.33,0.9,0.58l0.05,0.05
	c0.48,0.35,0.95,0.79,1.16,1.18c0.02,0.04,0.04,0.07,0.05,0.09c0.11,0.22,0.09,0.35,0.09,0.36v0.02c0,0.05,0.01,0.11,0,0.17
	c0,0.14-0.03,0.3-0.08,0.47c-0.04,0.18-0.11,0.4-0.21,0.64c-0.33,0.84-0.82,1.71-0.82,1.71C14.97,29.1,14.58,29.26,14.21,29.26
	L14.21,29.26z M21.84,29.75c0,0.9-1.14,1.61-1.14,1.61l-2.07-1.82l-0.03-0.02l-2.02,1.84c0,0-2-1.18-0.75-2.5
	c0,0,0.33-0.37,0.79-0.77l0.14-0.12c0.52-0.45,1.18-0.9,1.68-0.93h0.01c0.07-0.01,0.12-0.02,0.17-0.02c0.12,0,0.16,0.02,0.16,0.02
	c0.7,0.08,2.06,1.23,2.5,1.62c0.09,0.08,0.15,0.13,0.15,0.13c0.22,0.22,0.34,0.45,0.4,0.66c0.02,0.1,0.04,0.19,0.03,0.29
	L21.84,29.75z M23.43,26.17l0.04,0.09l0.5,1.16l0.58,1.32c0,0-0.78,0.63-1.53,0.63c-0.24,0-0.48-0.07-0.69-0.22
	c-0.16-0.12-0.3-0.28-0.43-0.52c0,0-0.06-0.12-0.16-0.31c-0.07-0.16-0.17-0.35-0.25-0.58c-0.05-0.12-0.17-0.38-0.17-0.38
	c-0.2-0.56-0.37-1.18-0.31-1.62c0-0.12,0.02-0.22,0.05-0.29c0-0.01,0.09-0.21,0.09-0.21c0.37-0.77,2.52-1.91,2.52-1.91
	c0.03-0.01,0.06-0.02,0.09-0.04c0.11-0.05,0.21-0.08,0.31-0.09c0.09-0.02,0.17-0.03,0.25-0.03c0.08,0,0.14,0,0.21,0.02
	c0.98,0.18,1.29,1.64,1.29,1.64l-2.38,1.35L23.43,26.17z"/>
</svg>
