<svg width="38" height="38" viewBox="0 0 38 38" fill="none" xmlns="http://www.w3.org/2000/svg">
<path opacity="0.2" d="M26.1422 28.3747C24.0298 30.837 20.9398 32.3828 17.5118 32.3828C11.199 32.3828 6.03281 27.1161 6.03281 20.5724C6.03281 16.9737 7.5899 13.766 10.0462 11.6031C9.90139 12.4218 9.82897 13.2589 9.82897 14.0959C9.82897 22.0632 16.2142 28.5213 24.0902 28.5213C24.7782 28.5213 25.4662 28.4725 26.1422 28.3747Z" fill="#0EA5E9"/>
<path d="M28.8277 22.9984H28.8234L29.4895 24.339L28.8277 22.9984ZM28.8277 22.9984H28.8234L29.4895 24.339L28.8277 22.9984Z" fill="#0EA5E9"/>
<path d="M29.8514 25.3299H29.8448L28.8234 23.3019C29.3374 22.9762 29.9436 22.9096 30.5103 23.1169C31.5975 23.5239 31.674 24.4584 31.305 25.6797L29.8514 25.3299Z" fill="#0EA5E9"/>
<path d="M23.6664 24.3901C17.9446 24.3961 13.311 19.7408 13.305 14.0056C13.305 11.9659 13.8909 10.0702 14.8954 8.46847H14.9014C15.4574 7.58661 15.1943 6.41678 14.3154 5.85887C13.8491 5.56491 13.2811 5.49293 12.755 5.6549C6.52498 7.56861 2.01094 13.4417 2.01094 20.3647C2.01094 28.8294 8.76705 35.7343 17.1494 35.7343C23.8398 35.7343 29.4898 31.343 31.5047 25.2779L29.723 24.684H29.717L28.7843 23.0343C27.2238 23.9281 25.46 24.3961 23.6664 24.3901ZM17.1494 31.9609C10.8955 31.9609 5.77762 26.7897 5.77762 20.3647C5.77762 16.8312 7.32017 13.6817 9.75357 11.558C9.61007 12.3619 9.53833 13.1838 9.53833 14.0056C9.53833 21.8284 15.864 28.1695 23.6664 28.1695C24.348 28.1695 25.0296 28.1215 25.6992 28.0255C23.6066 30.4431 20.5454 31.9609 17.1494 31.9609Z" fill="#0EA5E9"/>
<path d="M28.4883 2.21873C29.5528 2.21873 30.4154 3.08136 30.4154 4.14588C30.4154 6.27492 32.1407 8.00017 34.2697 8.00017C35.3342 8.00017 36.1969 8.8628 36.1969 9.92732C36.1969 10.9918 35.3342 11.8545 34.2697 11.8545C32.1407 11.8545 30.4154 13.5797 30.4154 15.7088C30.4154 16.7733 29.5528 17.6359 28.4883 17.6359C27.4238 17.6359 26.5611 16.7733 26.5611 15.7088C26.5611 13.5797 24.8359 11.8545 22.7068 11.8545C21.6423 11.8545 20.7797 10.9918 20.7797 9.92732C20.7797 8.8628 21.6423 8.00017 22.7068 8.00017C24.8359 8.00017 26.5611 6.27492 26.5611 4.14588C26.5611 3.08136 27.4238 2.21873 28.4883 2.21873Z" fill="#0EA5E9"/>
</svg>
