<svg width="38" height="38" viewBox="0 0 38 38" fill="none" xmlns="http://www.w3.org/2000/svg">
<g clip-path="url(#clip0_147_319)">
<path d="M19.0034 10.5507C14.3447 10.5507 10.5574 14.338 10.5574 18.9899C10.5574 23.6419 14.3447 27.4292 19.0034 27.4292C23.662 27.4292 27.4426 23.6419 27.4426 18.9899C27.4426 14.338 23.6553 10.5507 19.0034 10.5507ZM19.0034 23.2062C16.6707 23.2062 14.7804 21.3159 14.7804 18.9899C14.7804 16.664 16.6707 14.767 19.0034 14.767C21.336 14.767 23.2196 16.664 23.2196 18.9899C23.2196 21.3159 21.3293 23.2062 19.0034 23.2062Z" fill="#2AA2DB"/>
<path opacity="0.2" d="M23.2196 18.9899C23.2196 21.3159 21.3293 23.2062 19.0034 23.2062C16.6774 23.2062 14.7804 21.3159 14.7804 18.9899C14.7804 16.664 16.6707 14.767 19.0034 14.767C21.336 14.767 23.2196 16.664 23.2196 18.9899Z" fill="#2AA2DB"/>
<path d="M19.0034 38C17.837 38 16.8919 37.0549 16.8919 35.8885V33.7569C16.8919 32.5906 17.837 31.6454 19.0034 31.6454C20.1697 31.6454 21.1148 32.5906 21.1148 33.7569V35.8885C21.1148 37.0549 20.1697 38 19.0034 38ZM7.05839 33.0464C6.51543 33.0464 5.97919 32.8386 5.57029 32.4297C4.74581 31.6052 4.74581 30.2713 5.57029 29.4468L7.33322 27.6839C8.1577 26.8594 9.49162 26.8594 10.3161 27.6839C11.1406 28.5084 11.1406 29.8423 10.3161 30.6668L8.55318 32.4297C8.14429 32.8386 7.60134 33.0464 7.05839 33.0464ZM30.9483 33.0464C30.4054 33.0464 29.8691 32.8386 29.4535 32.4297L27.704 30.6802C26.8795 29.8557 26.8795 28.5218 27.704 27.6973C28.5285 26.8728 29.8624 26.8728 30.6869 27.6973L32.4364 29.4468C33.2609 30.2713 33.2609 31.6052 32.4364 32.4297C32.0275 32.8386 31.4846 33.0464 30.9416 33.0464H30.9483ZM35.8952 21.1081H33.7837C32.6174 21.1081 31.6723 20.163 31.6723 18.9966C31.6723 17.8303 32.6174 16.8852 33.7837 16.8852H35.8952C37.0616 16.8852 38.0067 17.8303 38.0067 18.9966C38.0067 20.163 37.0616 21.1081 35.8952 21.1081ZM4.24308 21.1081H2.11148C0.94514 21.1081 0 20.163 0 18.9966C0 17.8303 0.94514 16.8852 2.11148 16.8852H4.24308C5.40942 16.8852 6.35456 17.8303 6.35456 18.9966C6.35456 20.163 5.40942 21.1081 4.24308 21.1081ZM29.1988 10.9127C28.6558 10.9127 28.1196 10.7049 27.704 10.296C26.8795 9.47151 26.8795 8.13759 27.704 7.31311L29.4535 5.56359C30.278 4.73911 31.6119 4.73911 32.4364 5.56359C33.2609 6.38808 33.2609 7.722 32.4364 8.54648L30.6869 10.296C30.278 10.7049 29.7351 10.9127 29.1921 10.9127H29.1988ZM8.10407 10.2022C7.56112 10.2022 7.02487 9.99436 6.60928 9.58547L4.84636 7.82254C4.02187 6.99806 4.02187 5.66414 4.84636 4.83965C5.67084 4.01517 7.00476 4.01517 7.82925 4.83965L9.59217 6.60258C10.4167 7.42706 10.4167 8.76098 9.59217 9.58547C9.18328 9.99436 8.64032 10.2022 8.10407 10.2022ZM19.0034 6.32775C17.837 6.32775 16.8919 5.38261 16.8919 4.21626V2.10478C16.8919 0.938438 17.837 -0.00670242 19.0034 -0.00670242C20.1697 -0.00670242 21.1148 0.938438 21.1148 2.10478V4.21626C21.1148 5.38261 20.1697 6.32775 19.0034 6.32775Z" fill="#2AA2DB"/>
</g>
<defs>
<clipPath id="clip0_147_319">
<rect width="38" height="38" fill="white"/>
</clipPath>
</defs>
</svg>
