<svg width="38" height="38" viewBox="0 0 38 38" fill="none" xmlns="http://www.w3.org/2000/svg">
<g clip-path="url(#clip0_147_340)">
<path d="M1 5.5C1 4.30653 1.47411 3.16193 2.31802 2.31802C3.16193 1.47411 4.30653 1 5.5 1H32.5C33.6935 1 34.8381 1.47411 35.682 2.31802C36.5259 3.16193 37 4.30653 37 5.5V21.25C37 22.4435 36.5259 23.5881 35.682 24.432C34.8381 25.2759 33.6935 25.75 32.5 25.75H5.5C4.30653 25.75 3.16193 25.2759 2.31802 24.432C1.47411 23.5881 1 22.4435 1 21.25V5.5Z" fill="#0EA5E9" fill-opacity="0.2" stroke="#0EA5E9" stroke-width="4"/>
<path d="M23.5 25.75C23.5 32.5 28 37 28 37H10C10 37 14.5 32.5 14.5 25.75" fill="#0EA5E9" fill-opacity="0.2"/>
<path d="M23.5 25.75C23.5 32.5 28 37 28 37H10C10 37 14.5 32.5 14.5 25.75" stroke="#0EA5E9" stroke-width="4" stroke-linejoin="round"/>
</g>
<defs>
<clipPath id="clip0_147_340">
<rect width="38" height="38" fill="white"/>
</clipPath>
</defs>
</svg>
