<svg width="126" height="26" viewBox="0 0 126 26" fill="none" xmlns="http://www.w3.org/2000/svg">
<path d="M13.4312 24.7959C6.79555 24.7959 1.38752 19.5004 1.38752 12.9992C1.38752 6.49795 6.79555 1.20413 13.4312 1.20413C20.0669 1.20413 25.475 6.49959 25.475 12.9992C25.475 19.4988 20.0669 24.7959 13.4312 24.7959ZM13.4312 0C6.09314 0 0.159851 5.81269 0.159851 12.9992C0.159851 20.1857 6.09314 26 13.4312 26C20.7693 26 26.7026 20.1873 26.7026 12.9992C26.7384 5.81269 20.7693 0 13.4312 0Z" fill="#A3A3A3"/>
<path d="M19.2601 19.3614V6.67199C21.0862 8.25433 22.1736 10.5575 22.1736 13.0342C22.1736 15.5109 21.0862 17.7451 19.2601 19.3614ZM18.0307 15.4408H8.90222V10.5575H18.0307V15.4408ZM7.63879 19.3614C5.81264 17.7801 4.72355 15.4759 4.72355 12.9992C4.72355 10.5225 5.81264 8.2193 7.63879 6.63696V19.3614ZM18.9438 4.8833H18.0307V9.35447H8.90222V4.8833H7.95339C5.24994 6.63696 3.4942 9.62923 3.4942 12.9992C3.4942 16.3691 5.2857 19.3614 7.95339 21.1161H8.90222V16.645H18.0307V21.1161H18.9438C21.6472 19.3614 23.403 16.4036 23.403 12.9992C23.403 9.59475 21.6126 6.63696 18.9438 4.8833Z" fill="#A3A3A3"/>
<path d="M49.725 17.952H46.3566V14.581H49.6523C51.3181 14.581 52.0948 15.269 52.0948 16.2673C52.0574 17.5048 51.0957 17.952 49.725 17.952ZM46.3191 7.94402H49.6875C50.7252 7.94402 51.4293 8.59699 51.4293 9.5603C51.4293 10.3173 50.7627 11.1426 49.5775 11.1426H46.2817V7.94402H46.3191ZM53.6505 12.6215C53.6505 12.6215 56.2048 11.7962 56.2048 9.11312C56.2048 5.94953 53.798 4.40222 50.4665 4.40222H41.8018V21.5628H51.2438C54.1316 21.5628 57.0195 19.6717 57.0195 16.7829C56.9837 13.3435 53.6511 12.6215 53.6511 12.6215" fill="#A3A3A3"/>
<path d="M66.9795 17.8486C64.3509 17.8486 63.0539 15.6828 63.0539 12.9653C63.0539 10.2478 64.3503 8.08198 66.9795 8.08198C69.6086 8.08198 70.9419 10.2489 70.9419 12.9653C70.9419 15.6817 69.608 17.8486 66.9795 17.8486ZM66.9795 3.95508C61.6474 3.95508 58.5009 7.91066 58.5009 12.9314C58.5009 17.952 61.6474 21.9416 66.9795 21.9416C72.3115 21.9416 75.4581 17.986 75.4581 12.9314C75.4955 7.91066 72.3858 3.95508 66.9795 3.95508Z" fill="#A3A3A3"/>
<path d="M85.3448 11.1082L84.6782 10.9708C83.0867 10.661 81.8646 10.2828 81.8646 9.25108C81.8646 8.11591 83.0493 7.66983 84.1227 7.66983C85.6784 7.66983 87.0106 8.39176 87.8991 9.25108L90.7495 6.60307C89.4542 5.22653 87.3062 3.92004 84.011 3.92004C80.1614 3.95507 77.1993 5.98349 77.1993 9.35452C77.1993 12.4147 79.606 13.9631 82.4938 14.5126L83.1594 14.65C85.5661 15.1322 86.4551 15.4754 86.4551 16.5421C86.4551 17.5388 85.456 18.2268 83.9752 18.2268C82.1608 18.2268 80.5308 17.5049 79.3098 16.026L76.3477 18.7074C77.976 20.4961 80.0122 21.941 84.0479 21.941C87.5297 21.941 91.1943 20.1173 91.1943 16.3341C91.1568 12.3802 87.9728 11.6232 85.3443 11.1071" fill="#A3A3A3"/>
<path d="M101.451 17.8486C99.4148 17.8486 97.2668 16.2663 97.2668 12.8613C97.2668 9.8017 99.2304 8.08143 101.303 8.08143C102.932 8.08143 103.895 8.80336 104.672 10.0075L108.411 7.70322C106.561 5.08916 104.339 3.98901 101.303 3.98901C95.7122 3.98901 92.7131 8.01301 92.7131 12.8618C92.7131 17.9526 96.0815 21.9755 101.267 21.9755C104.932 21.9755 106.672 20.7714 108.561 18.2624L104.784 15.8881C104.043 17.0232 103.229 17.8491 101.452 17.8491" fill="#A3A3A3"/>
<path d="M120.815 4.36768V10.6949H115.225V4.36768H110.375V21.5282H115.225V14.7539H120.815V21.5282H125.703V4.36768H120.815Z" fill="#A3A3A3"/>
</svg>
