<?xml version="1.0" encoding="utf-8"?>
<!-- Generator: Adobe Illustrator 27.2.0, SVG Export Plug-In . SVG Version: 6.00 Build 0)  -->
<svg version="1.1" id="Layer_1" xmlns="http://www.w3.org/2000/svg" xmlns:xlink="http://www.w3.org/1999/xlink" x="0px" y="0px"
	 viewBox="0 0 315 61" style="enable-background:new 0 0 315 61;" xml:space="preserve">
<style type="text/css">
	.st0{fill:url(#SVGID_1_);}
	.st1{fill:url(#SVGID_00000104671435935448781780000008170998904588501640_);}
	.st2{fill:url(#SVGID_00000160159994489205268820000016136723407104535192_);}
	.st3{fill:url(#SVGID_00000057144451030082862040000009382115886755719556_);}
	.st4{fill:url(#SVGID_00000021818333848137879610000011683076855991975329_);}
	.st5{fill:url(#SVGID_00000085966462874470830230000006810722130667884418_);}
	.st6{fill:url(#SVGID_00000016769431634966308600000017616717199567112592_);}
	.st7{fill:url(#SVGID_00000172425033298735754330000006420470256196819586_);}
	.st8{fill:url(#SVGID_00000025404874277595400780000007177418051660887709_);}
	.st9{fill:url(#SVGID_00000163757213127744287400000009002524898056166291_);}
	.st10{fill:url(#SVGID_00000152246419317949960300000013943567367467248548_);}
	.st11{fill:url(#SVGID_00000000183948339168114340000008655517099236729472_);}
	.st12{fill:url(#SVGID_00000010275727535221901310000016003261980685535382_);}
	.st13{fill:url(#SVGID_00000178176457779948860550000012300946708955647662_);}
	.st14{fill:url(#SVGID_00000028311414819003109220000006924450924714305458_);}
	.st15{fill:#CBD5E1;}
	.st16{fill:url(#SVGID_00000038386422916526841380000010963157528654745777_);}
	.st17{fill:url(#SVGID_00000173147225041341315790000006594549064560339623_);}
	.st18{fill:url(#SVGID_00000167388169691059034090000014445357384332798354_);}
	.st19{fill:url(#SVGID_00000173158125764751578530000005334713621672560828_);}
</style>
<linearGradient id="SVGID_1_" gradientUnits="userSpaceOnUse" x1="18.45" y1="55.4847" x2="30.07" y2="55.4847" gradientTransform="matrix(1 0 0 -1 0 61.7323)">
	<stop  offset="0" style="stop-color:#E12328"/>
	<stop  offset="0.23" style="stop-color:#E12328"/>
	<stop  offset="0.41" style="stop-color:#E1252A"/>
	<stop  offset="0.54" style="stop-color:#E22E31"/>
	<stop  offset="0.64" style="stop-color:#E53E3E"/>
	<stop  offset="0.74" style="stop-color:#E85450"/>
	<stop  offset="0.84" style="stop-color:#EC7068"/>
	<stop  offset="0.92" style="stop-color:#F19284"/>
	<stop  offset="1" style="stop-color:#F7B8A4"/>
</linearGradient>
<path class="st0" d="M30.1,6.3c0,0.8-0.1,1.2-0.2,2.2c0,0,0,0,0,0c-0.1,0.9-0.3,2.2-0.6,3.7c-0.1,0-10.7-0.2-10.8-0.2l2.4-11.5
	C23.7,0.3,29.9,0.5,30.1,6.3z"/>
<linearGradient id="SVGID_00000179639722609863212600000007377206242755358391_" gradientUnits="userSpaceOnUse" x1="5.0538" y1="44.9772" x2="28.98" y2="44.9772" gradientTransform="matrix(1 0 0 -1 0 61.7323)">
	<stop  offset="0" style="stop-color:#E12328"/>
	<stop  offset="0.1" style="stop-color:#E12328"/>
	<stop  offset="0.36" style="stop-color:#E1262A"/>
	<stop  offset="0.59" style="stop-color:#E23130"/>
	<stop  offset="0.82" style="stop-color:#E5433B"/>
	<stop  offset="1" style="stop-color:#E85948"/>
</linearGradient>
<path style="fill:url(#SVGID_00000179639722609863212600000007377206242755358391_);" d="M29,13.1l-0.1,0.3
	c-1.4,6.9-4.2,8.1-4.6,8.2c-0.6,0.4-1.5,0.6-2.6,0.8c-1.1,0.2-2.5,0.3-4.1,0.3c-3.7,0-7.4-0.5-7.4-0.5c-2.1-0.3-3.6-1.3-4.4-2.8
	C4,16.1,6,11.2,6,11l0.1-0.2l17.4,1.6L29,13.1z"/>
<linearGradient id="SVGID_00000044859752203718257940000011110129907068189071_" gradientUnits="userSpaceOnUse" x1="5.6367" y1="44.9624" x2="28.29" y2="44.9624" gradientTransform="matrix(1 0 0 -1 0 61.7323)">
	<stop  offset="0" style="stop-color:#E12328"/>
	<stop  offset="0.1" style="stop-color:#E12328"/>
	<stop  offset="0.26" style="stop-color:#E1262A"/>
	<stop  offset="0.41" style="stop-color:#E33134"/>
	<stop  offset="0.55" style="stop-color:#E54443"/>
	<stop  offset="0.69" style="stop-color:#E95D59"/>
	<stop  offset="0.82" style="stop-color:#EE7F74"/>
	<stop  offset="0.95" style="stop-color:#F4A796"/>
	<stop  offset="1" style="stop-color:#F7B8A4"/>
</linearGradient>
<path style="fill:url(#SVGID_00000044859752203718257940000011110129907068189071_);" d="M28.3,13.6c-1.4,6.5-4.1,7.5-4.2,7.5l0,0
	c-1.1,0.6-3.3,1-6.4,1c-3.6,0-7.3-0.5-7.3-0.5c-1.9-0.3-3.3-1.1-4-2.5c-1.5-2.7-0.2-6.8,0.2-7.7L23.4,13L28.3,13.6z"/>
<linearGradient id="SVGID_00000062186936331638361330000001251543255308322717_" gradientUnits="userSpaceOnUse" x1="4.4963" y1="27.4941" x2="8.914" y2="38.2389" gradientTransform="matrix(1 0 0 -1 0 61.7323)">
	<stop  offset="0" style="stop-color:#FAB415"/>
	<stop  offset="0.1" style="stop-color:#FAB415"/>
	<stop  offset="0.27" style="stop-color:#FAB518"/>
	<stop  offset="0.42" style="stop-color:#FABA23"/>
	<stop  offset="0.56" style="stop-color:#FBC336"/>
	<stop  offset="0.71" style="stop-color:#FCCF4F"/>
	<stop  offset="0.84" style="stop-color:#FDDF71"/>
	<stop  offset="0.98" style="stop-color:#FEF299"/>
	<stop  offset="1" style="stop-color:#FFF6A1"/>
</linearGradient>
<path style="fill:url(#SVGID_00000062186936331638361330000001251543255308322717_);" d="M8.9,23.5c0.7,0.3,1.1,0.6,1.9,1
	c0,0,0,0,0,0c0.8,0.5,1.9,1.1,3.1,2c0,0.1-4.2,9.8-4.3,9.9L0,29.8C1,27.2,3.5,21.4,8.9,23.5z"/>
<linearGradient id="SVGID_00000041291573470729274580000012678125486772777136_" gradientUnits="userSpaceOnUse" x1="9.1262" y1="11.0998" x2="18.2252" y2="33.2304" gradientTransform="matrix(1 0 0 -1 0 61.7323)">
	<stop  offset="0" style="stop-color:#FAB415"/>
	<stop  offset="0.1" style="stop-color:#FAB415"/>
	<stop  offset="0.35" style="stop-color:#FAB418"/>
	<stop  offset="0.57" style="stop-color:#FAB723"/>
	<stop  offset="0.78" style="stop-color:#FBBC35"/>
	<stop  offset="0.98" style="stop-color:#FCC24F"/>
	<stop  offset="1" style="stop-color:#FDC352"/>
</linearGradient>
<path style="fill:url(#SVGID_00000041291573470729274580000012678125486772777136_);" d="M14.8,27.1l0.2,0.2c5.8,3.9,5.9,7,5.9,7.4
	c0.1,0.7,0,1.6-0.2,2.7c-0.3,1.1-0.7,2.4-1.3,3.9c-1.4,3.4-3.2,6.7-3.3,6.7c-1.1,1.8-2.5,2.8-4.3,3c-3.8,0.5-7.5-3.2-7.7-3.4
	l-0.2-0.2l8.1-15.5L14.8,27.1z"/>
<linearGradient id="SVGID_00000098909863969924310470000006766147784415848332_" gradientUnits="userSpaceOnUse" x1="9.3639" y1="11.636" x2="17.9769" y2="32.5849" gradientTransform="matrix(1 0 0 -1 0 61.7323)">
	<stop  offset="0" style="stop-color:#FAB415"/>
	<stop  offset="0.1" style="stop-color:#FAB415"/>
	<stop  offset="0.27" style="stop-color:#FAB518"/>
	<stop  offset="0.42" style="stop-color:#FABA23"/>
	<stop  offset="0.56" style="stop-color:#FBC336"/>
	<stop  offset="0.71" style="stop-color:#FCCF4F"/>
	<stop  offset="0.84" style="stop-color:#FDDF71"/>
	<stop  offset="0.98" style="stop-color:#FEF299"/>
	<stop  offset="1" style="stop-color:#FFF6A1"/>
</linearGradient>
<path style="fill:url(#SVGID_00000098909863969924310470000006766147784415848332_);" d="M15,27.9c5.5,3.8,5.4,6.7,5.4,6.7v0
	c0.2,1.2-0.3,3.4-1.5,6.3c-1.4,3.4-3.2,6.6-3.2,6.6c-1,1.7-2.3,2.6-3.8,2.8c-3.1,0.4-6.3-2.4-7.1-3.1l7.9-15.1L15,27.9L15,27.9z"/>
<linearGradient id="SVGID_00000157270337220119446950000013297142484924793744_" gradientUnits="userSpaceOnUse" x1="27.0988" y1="4.7996" x2="17.6987" y2="11.6291" gradientTransform="matrix(1 0 0 -1 0 61.7323)">
	<stop  offset="0" style="stop-color:#67A041"/>
	<stop  offset="0.1" style="stop-color:#67A041"/>
	<stop  offset="0.26" style="stop-color:#6AA142"/>
	<stop  offset="0.41" style="stop-color:#75A746"/>
	<stop  offset="0.55" style="stop-color:#88B24C"/>
	<stop  offset="0.68" style="stop-color:#A1C055"/>
	<stop  offset="0.82" style="stop-color:#C3D261"/>
	<stop  offset="0.95" style="stop-color:#EBE870"/>
	<stop  offset="1" style="stop-color:#FFF377"/>
</linearGradient>
<path style="fill:url(#SVGID_00000157270337220119446950000013297142484924793744_);" d="M17.7,50.1c0.5-0.6,0.8-1,1.4-1.6
	c0,0,0,0,0,0c0.6-0.7,1.5-1.6,2.7-2.6c0.1,0.1,8.5,6.4,8.6,6.5l-8.7,7.9C19.4,58.7,14.4,54.9,17.7,50.1L17.7,50.1z"/>
<linearGradient id="SVGID_00000003075401497022531900000012788418145058162321_" gradientUnits="userSpaceOnUse" x1="44.1224" y1="5.421" x2="24.7586" y2="19.4896" gradientTransform="matrix(1 0 0 -1 0 61.7323)">
	<stop  offset="0" style="stop-color:#67A041"/>
	<stop  offset="0.1" style="stop-color:#67A041"/>
	<stop  offset="0.42" style="stop-color:#6AA144"/>
	<stop  offset="0.7" style="stop-color:#75A64E"/>
	<stop  offset="0.98" style="stop-color:#87AF60"/>
	<stop  offset="1" style="stop-color:#8AB062"/>
</linearGradient>
<path style="fill:url(#SVGID_00000003075401497022531900000012788418145058162321_);" d="M22.6,45.2l0.2-0.2c5.2-4.7,8.2-4.1,8.5-4
	c0.7,0.1,1.5,0.4,2.5,0.9c1,0.5,2.2,1.2,3.5,2.2c3,2.2,5.7,4.7,5.7,4.8c1.5,1.5,2.2,3.1,2,4.9c-0.5,3.8-4.9,6.6-5.1,6.7l-0.2,0.1
	L26.6,49L22.6,45.2L22.6,45.2z"/>
<linearGradient id="SVGID_00000103984256450145424900000010946379163809623439_" gradientUnits="userSpaceOnUse" x1="43.6447" y1="5.7841" x2="25.316" y2="19.1007" gradientTransform="matrix(1 0 0 -1 0 61.7323)">
	<stop  offset="0" style="stop-color:#67A041"/>
	<stop  offset="0.1" style="stop-color:#67A041"/>
	<stop  offset="0.26" style="stop-color:#6AA142"/>
	<stop  offset="0.41" style="stop-color:#75A746"/>
	<stop  offset="0.55" style="stop-color:#88B24C"/>
	<stop  offset="0.68" style="stop-color:#A1C055"/>
	<stop  offset="0.82" style="stop-color:#C3D261"/>
	<stop  offset="0.95" style="stop-color:#EBE870"/>
	<stop  offset="1" style="stop-color:#FFF377"/>
</linearGradient>
<path style="fill:url(#SVGID_00000103984256450145424900000010946379163809623439_);" d="M23.5,45.2c5-4.5,7.7-3.7,7.8-3.6h0.1
	c1.3,0.1,3.2,1.1,5.7,3c2.9,2.1,5.7,4.7,5.7,4.7c1.4,1.4,2,2.9,1.8,4.4c-0.4,3.1-3.8,5.6-4.7,6.2L27,48.5L23.5,45.2L23.5,45.2z"/>
<linearGradient id="SVGID_00000104680685811856036760000001854431703873018264_" gradientUnits="userSpaceOnUse" x1="47.6765" y1="21.1854" x2="52.4765" y2="11.0154" gradientTransform="matrix(1 0 0 -1 0 61.7323)">
	<stop  offset="0" style="stop-color:#0D8A9A"/>
	<stop  offset="0.1" style="stop-color:#0D8A9A"/>
	<stop  offset="0.25" style="stop-color:#108B9B"/>
	<stop  offset="0.39" style="stop-color:#1B8F9F"/>
	<stop  offset="0.52" style="stop-color:#2E97A5"/>
	<stop  offset="0.65" style="stop-color:#47A1AE"/>
	<stop  offset="0.78" style="stop-color:#69AFBA"/>
	<stop  offset="0.9" style="stop-color:#91BFC8"/>
	<stop  offset="1" style="stop-color:#BAD0D7"/>
</linearGradient>
<path style="fill:url(#SVGID_00000104680685811856036760000001854431703873018264_);" d="M46.1,49.1c-0.5-0.6-0.7-1.1-1.1-1.9
	c0,0,0,0,0,0c-0.4-0.8-1-2-1.6-3.3c0.1-0.1,8.7-6.1,8.8-6.2L57,48.4C54.8,50.2,49.7,53.7,46.1,49.1z"/>
<linearGradient id="SVGID_00000116957206691774032460000015816464155675551638_" gradientUnits="userSpaceOnUse" x1="60.2072" y1="35.8086" x2="40.8466" y2="21.7423" gradientTransform="matrix(1 0 0 -1 0 61.7323)">
	<stop  offset="0" style="stop-color:#0D8A9A"/>
	<stop  offset="0.1" style="stop-color:#0D8A9A"/>
	<stop  offset="0.32" style="stop-color:#108A9A"/>
	<stop  offset="0.52" style="stop-color:#1B8D9D"/>
	<stop  offset="0.7" style="stop-color:#2D92A1"/>
	<stop  offset="0.89" style="stop-color:#4798A7"/>
	<stop  offset="1" style="stop-color:#5C9EAC"/>
</linearGradient>
<path style="fill:url(#SVGID_00000116957206691774032460000015816464155675551638_);" d="M43,42.9l-0.1-0.3c-2.9-6.4-1.4-9-1.2-9.3
	c0.3-0.6,0.8-1.4,1.6-2.1c0.8-0.8,1.9-1.7,3.1-2.6c3-2.2,6.2-4,6.3-4c1.9-1,3.7-1.1,5.2-0.4c3.5,1.6,4.7,6.7,4.8,6.9l0,0.2l-15,8.9
	L43,42.9L43,42.9z"/>
<linearGradient id="SVGID_00000079457369090997276420000011125821008751859855_" gradientUnits="userSpaceOnUse" x1="59.7156" y1="35.4777" x2="41.3865" y2="22.1609" gradientTransform="matrix(1 0 0 -1 0 61.7323)">
	<stop  offset="0" style="stop-color:#0D8A9A"/>
	<stop  offset="0.1" style="stop-color:#0D8A9A"/>
	<stop  offset="0.25" style="stop-color:#108B9B"/>
	<stop  offset="0.39" style="stop-color:#1B8F9F"/>
	<stop  offset="0.52" style="stop-color:#2E97A5"/>
	<stop  offset="0.65" style="stop-color:#47A1AE"/>
	<stop  offset="0.78" style="stop-color:#69AFBA"/>
	<stop  offset="0.9" style="stop-color:#91BFC8"/>
	<stop  offset="1" style="stop-color:#BAD0D7"/>
</linearGradient>
<path style="fill:url(#SVGID_00000079457369090997276420000011125821008751859855_);" d="M43.3,42.1c-2.7-6.1-1.1-8.5-1.1-8.5l0,0
	c0.5-1.2,2.1-2.7,4.6-4.5c2.9-2.1,6.2-3.9,6.2-3.9c1.7-0.9,3.3-1,4.7-0.3c2.8,1.3,4.1,5.4,4.4,6.3l-14.6,8.7L43.3,42.1L43.3,42.1z"
	/>
<linearGradient id="SVGID_00000125569296235846857040000006513689583740458909_" gradientUnits="userSpaceOnUse" x1="45.7993" y1="44.3652" x2="56.9593" y2="46.6152" gradientTransform="matrix(1 0 0 -1 0 61.7323)">
	<stop  offset="0" style="stop-color:#A22D86"/>
	<stop  offset="0.1" style="stop-color:#A22D86"/>
	<stop  offset="0.27" style="stop-color:#A33088"/>
	<stop  offset="0.43" style="stop-color:#A73B8E"/>
	<stop  offset="0.57" style="stop-color:#AF4E99"/>
	<stop  offset="0.72" style="stop-color:#BA67A8"/>
	<stop  offset="0.86" style="stop-color:#C789BB"/>
	<stop  offset="0.99" style="stop-color:#D8B1D2"/>
	<stop  offset="1" style="stop-color:#D9B4D4"/>
</linearGradient>
<path style="fill:url(#SVGID_00000125569296235846857040000006513689583740458909_);" d="M53.2,21.4c-0.8,0.2-1.2,0.3-2.1,0.5
	c0,0,0,0,0,0c-0.9,0.2-2.2,0.4-3.7,0.5c0-0.1-3.1-10.2-3.1-10.3L56,10.8C56.9,13.5,58.7,19.4,53.2,21.4L53.2,21.4z"/>
<linearGradient id="SVGID_00000126322072918624487090000002523389730803072415_" gradientUnits="userSpaceOnUse" x1="35.5382" y1="60.8774" x2="42.9318" y2="38.1222" gradientTransform="matrix(1 0 0 -1 0 61.7323)">
	<stop  offset="0" style="stop-color:#A22D86"/>
	<stop  offset="0.15" style="stop-color:#A22D86"/>
	<stop  offset="0.43" style="stop-color:#A33087"/>
	<stop  offset="0.68" style="stop-color:#A73B8D"/>
	<stop  offset="0.92" style="stop-color:#AE4D96"/>
	<stop  offset="1" style="stop-color:#B2569B"/>
</linearGradient>
<path style="fill:url(#SVGID_00000126322072918624487090000002523389730803072415_);" d="M46.4,22.5l-0.3,0c-7,0.8-9-1.5-9.2-1.8
	c-0.5-0.4-1-1.2-1.5-2.2c-0.5-1-1-2.3-1.5-3.8C32.7,11.2,32,7.6,32,7.5c-0.3-2.1,0.1-3.8,1.3-5.1C35.8-0.4,41.1,0,41.3,0h0.2l3.9,17
	L46.4,22.5z"/>
<linearGradient id="SVGID_00000015322160308124488740000010652735706690388641_" gradientUnits="userSpaceOnUse" x1="35.7132" y1="60.3283" x2="42.7148" y2="38.7793" gradientTransform="matrix(1 0 0 -1 0 61.7323)">
	<stop  offset="0" style="stop-color:#A22D86"/>
	<stop  offset="0.1" style="stop-color:#A22D86"/>
	<stop  offset="0.27" style="stop-color:#A33088"/>
	<stop  offset="0.43" style="stop-color:#A73B8E"/>
	<stop  offset="0.57" style="stop-color:#AF4E99"/>
	<stop  offset="0.72" style="stop-color:#BA67A8"/>
	<stop  offset="0.86" style="stop-color:#C789BB"/>
	<stop  offset="0.99" style="stop-color:#D8B1D2"/>
	<stop  offset="1" style="stop-color:#D9B4D4"/>
</linearGradient>
<path style="fill:url(#SVGID_00000015322160308124488740000010652735706690388641_);" d="M45.7,22c-6.7,0.7-8.4-1.6-8.4-1.6l0,0
	c-1-0.8-2-2.8-2.9-5.8c-1.1-3.5-1.8-7.1-1.8-7.1c-0.3-1.9,0.1-3.5,1.1-4.6c2.1-2.3,6.4-2.3,7.4-2.2l3.8,16.6L45.7,22L45.7,22z"/>
<path class="st15" d="M102.1,8.9v15.8l-3.5,4H82.5V4.9h16.2L102.1,8.9L102.1,8.9z M96.4,9.9h-8.1v13.8h8.1V9.9z"/>
<path class="st15" d="M111.4,4.9v19.8l-3.5,4h-2.3V8.9l3.5-4H111.4z"/>
<path class="st15" d="M134.5,24.7l-3.5,4h-12.7l-3.5-3.8v-16l3.4-4H131l3.5,4v1h-13.9v13.8h8.1v-4.9h-5.2l-1.7-2v-3h12.7V24.7z"/>
<path class="st15" d="M143.8,4.9v19.8l-3.5,4H138V8.9l3.5-4H143.8z"/>
<path class="st15" d="M166.9,8.9v1h-6.9l0,14.8l-3.5,4h-2.3V9.9h-3.5l-3.5-4v-1h16.2L166.9,8.9z"/>
<path class="st15" d="M186.5,4.9l3.5,4v15.8l-3.5,4h-2.3V9.9h-8.1v4.9h5.2l1.7,2v1l-1.7,2h-5.2v5l-3.5,4h-2.3V9.9l3.5-5H186.5z"/>
<path class="st15" d="M199.3,23.7h13.9v1l-3.5,4h-12.7l-3.5-3.8v-20h2.3l3.5,5V23.7z"/>
<linearGradient id="SVGID_00000143585262233848383220000001458799092376176803_" gradientUnits="userSpaceOnUse" x1="214.26" y1="44.9624" x2="354.05" y2="44.9624" gradientTransform="matrix(1 0 0 -1 0 61.7323)">
	<stop  offset="0" style="stop-color:#E12328"/>
	<stop  offset="0.23" style="stop-color:#E12328"/>
	<stop  offset="0.41" style="stop-color:#E1252A"/>
	<stop  offset="0.54" style="stop-color:#E22E31"/>
	<stop  offset="0.64" style="stop-color:#E53E3E"/>
	<stop  offset="0.74" style="stop-color:#E85450"/>
	<stop  offset="0.84" style="stop-color:#EC7068"/>
	<stop  offset="0.92" style="stop-color:#F19284"/>
	<stop  offset="1" style="stop-color:#F7B8A4"/>
</linearGradient>
<path style="fill:url(#SVGID_00000143585262233848383220000001458799092376176803_);" d="M244.7,8.9v15.8l-3.5,4H225V4.9h16.2
	L244.7,8.9L244.7,8.9z M238.9,9.9h-8.1v13.8h8.1V9.9z"/>
<linearGradient id="SVGID_00000153703152392125620890000005287794084896850867_" gradientUnits="userSpaceOnUse" x1="214.26" y1="44.9624" x2="354.05" y2="44.9624" gradientTransform="matrix(1 0 0 -1 0 61.7323)">
	<stop  offset="0" style="stop-color:#E12328"/>
	<stop  offset="0.23" style="stop-color:#E12328"/>
	<stop  offset="0.41" style="stop-color:#E1252A"/>
	<stop  offset="0.54" style="stop-color:#E22E31"/>
	<stop  offset="0.64" style="stop-color:#E53E3E"/>
	<stop  offset="0.74" style="stop-color:#E85450"/>
	<stop  offset="0.84" style="stop-color:#EC7068"/>
	<stop  offset="0.92" style="stop-color:#F19284"/>
	<stop  offset="1" style="stop-color:#F7B8A4"/>
</linearGradient>
<path style="fill:url(#SVGID_00000153703152392125620890000005287794084896850867_);" d="M253.9,18.8v4.9h13.9v1l-3.5,4h-12.7
	l-3.5-3.8v-16l3.5-4h12.7l3.5,4v1h-13.9v4h6.4l1.7,2v1l-1.7,2H253.9z"/>
<linearGradient id="SVGID_00000090261282929537398360000001217145325887785654_" gradientUnits="userSpaceOnUse" x1="214.26" y1="44.9624" x2="354.05" y2="44.9624" gradientTransform="matrix(1 0 0 -1 0 61.7323)">
	<stop  offset="0" style="stop-color:#E12328"/>
	<stop  offset="0.23" style="stop-color:#E12328"/>
	<stop  offset="0.41" style="stop-color:#E1252A"/>
	<stop  offset="0.54" style="stop-color:#E22E31"/>
	<stop  offset="0.64" style="stop-color:#E53E3E"/>
	<stop  offset="0.74" style="stop-color:#E85450"/>
	<stop  offset="0.84" style="stop-color:#EC7068"/>
	<stop  offset="0.92" style="stop-color:#F19284"/>
	<stop  offset="1" style="stop-color:#F7B8A4"/>
</linearGradient>
<path style="fill:url(#SVGID_00000090261282929537398360000001217145325887785654_);" d="M271.3,23.7h13.9l0-4l-1.2-1h-9.2l-3.5-3.9
	V8.9l3.5-4h12.7l3.5,4v1h-13.9l0,3l1.2,1h9.2l3.5,4l0,6.9l-3.5,4h-12.7l-3.5-4V23.7z"/>
<linearGradient id="SVGID_00000100350683222109242390000011023271049235607178_" gradientUnits="userSpaceOnUse" x1="214.26" y1="44.9624" x2="354.05" y2="44.9624" gradientTransform="matrix(1 0 0 -1 0 61.7323)">
	<stop  offset="0" style="stop-color:#E12328"/>
	<stop  offset="0.23" style="stop-color:#E12328"/>
	<stop  offset="0.41" style="stop-color:#E1252A"/>
	<stop  offset="0.54" style="stop-color:#E22E31"/>
	<stop  offset="0.64" style="stop-color:#E53E3E"/>
	<stop  offset="0.74" style="stop-color:#E85450"/>
	<stop  offset="0.84" style="stop-color:#EC7068"/>
	<stop  offset="0.92" style="stop-color:#F19284"/>
	<stop  offset="1" style="stop-color:#F7B8A4"/>
</linearGradient>
<path style="fill:url(#SVGID_00000100350683222109242390000011023271049235607178_);" d="M300.2,24.7l-3.5,4h-2.3V4.9h2.3l3.5,4
	V24.7L300.2,24.7z M307.5,17.6l6.6,11h-4l-2.9-2l-5.8-9.9l5.3-6.9l4-4.9l3.5,4"/>
</svg>
