<svg width="315" height="61" viewBox="0 0 315 61" fill="none" xmlns="http://www.w3.org/2000/svg">
<g clip-path="url(#clip0_828_3282)">
<path d="M30.07 6.26002C30.07 7.04002 29.97 7.51002 29.86 8.41002C29.86 8.43002 29.86 8.44002 29.85 8.45002C29.73 9.38002 29.52 10.64 29.2 12.11C29.1 12.11 18.55 11.91 18.45 11.91L20.83 0.40002C23.67 0.31002 29.9 0.450021 30.07 6.26002Z" fill="url(#paint0_linear_828_3282)"/>
<path d="M28.98 13.1001L28.91 13.4001C27.51 20.2701 24.72 21.5101 24.35 21.6401C23.76 21.9901 22.9 22.2501 21.79 22.4301C20.68 22.6001 19.32 22.6901 17.72 22.6901C14.04 22.6901 10.33 22.2201 10.29 22.2101C8.17998 21.8701 6.68998 20.9401 5.84998 19.4301C3.98998 16.1101 5.95998 11.2201 6.04998 11.0201L6.12998 10.8201L23.5 12.4201L28.98 13.1001Z" fill="url(#paint1_linear_828_3282)"/>
<path d="M28.29 13.5899C26.88 20.1299 24.17 21.0999 24.14 21.1099L24.09 21.1299C23 21.7699 20.8 22.1099 17.72 22.1099C14.08 22.1099 10.4 21.6499 10.38 21.6399C8.45999 21.3399 7.09999 20.4999 6.34999 19.1499C4.82999 16.4299 6.15999 12.3699 6.49999 11.4299L23.44 12.9899L28.29 13.5899Z" fill="url(#paint2_linear_828_3282)"/>
<path d="M8.93 23.5C9.65 23.81 10.05 24.06 10.84 24.51C10.86 24.51 10.87 24.52 10.87 24.53C11.68 25 12.76 25.67 14 26.52C13.96 26.61 9.76 36.3 9.73 36.39L0 29.82C0.99 27.16 3.49 21.45 8.93 23.5Z" fill="url(#paint3_linear_828_3282)"/>
<path d="M14.84 27.1101L15.09 27.2901C20.91 31.2001 21 34.2501 20.98 34.6401C21.08 35.3201 20.99 36.2101 20.74 37.3101C20.48 38.4001 20.04 39.6901 19.43 41.1701C18.03 44.5701 16.19 47.8301 16.16 47.8601C15.04 49.6801 13.62 50.7101 11.9 50.9101C8.12005 51.3701 4.35005 47.6901 4.20005 47.5301L4.05005 47.3801L12.13 31.9201L14.84 27.1101Z" fill="url(#paint4_linear_828_3282)"/>
<path d="M15.04 27.9399C20.55 31.7299 20.42 34.6099 20.42 34.6399V34.6899C20.6 35.9399 20.08 38.1099 18.9 40.9499C17.52 44.3199 15.69 47.5499 15.67 47.5599C14.66 49.2199 13.37 50.1599 11.83 50.3399C8.74 50.7099 5.49 47.9399 4.75 47.2699L12.63 32.1999L15.03 27.9399H15.04Z" fill="url(#paint5_linear_828_3282)"/>
<path d="M17.7 50.0899C18.17 49.4599 18.51 49.1299 19.13 48.4699C19.14 48.4499 19.15 48.4499 19.16 48.4399C19.8 47.7599 20.71 46.8599 21.83 45.8599C21.91 45.9199 30.33 52.2799 30.41 52.3399L21.72 60.2499C19.37 58.6599 14.41 54.8799 17.69 50.0799L17.7 50.0899Z" fill="url(#paint6_linear_828_3282)"/>
<path d="M22.61 45.2L22.84 45C28.01 40.26 31 40.9 31.37 41.01C32.05 41.07 32.9 41.37 33.91 41.88C34.91 42.39 36.06 43.12 37.36 44.06C40.34 46.22 43.06 48.78 43.09 48.82C44.6 50.34 45.26 51.96 45.05 53.68C44.6 57.46 40.14 60.26 39.94 60.37L39.76 60.48L26.65 48.98L22.62 45.21L22.61 45.2Z" fill="url(#paint7_linear_828_3282)"/>
<path d="M23.45 45.2099C28.43 40.7499 31.1999 41.5599 31.2299 41.5699H31.28C32.54 41.7099 34.5199 42.7199 37.0099 44.5299C39.9499 46.6699 42.6599 49.1999 42.6699 49.2199C44.0499 50.5899 44.65 52.0699 44.47 53.5999C44.1 56.6899 40.64 59.1999 39.81 59.7599L27.02 48.5399L23.45 45.1999V45.2099Z" fill="url(#paint8_linear_828_3282)"/>
<path d="M46.1299 49.12C45.6799 48.48 45.4699 48.05 45.0399 47.26C45.0299 47.24 45.0199 47.24 45.0199 47.22C44.5799 46.39 44.0099 45.26 43.3999 43.88C43.4799 43.82 52.1399 37.78 52.2099 37.72L57.0499 48.43C54.8099 50.17 49.6799 53.72 46.1299 49.12Z" fill="url(#paint9_linear_828_3282)"/>
<path d="M42.9899 42.94L42.8699 42.66C39.9599 36.28 41.4899 33.64 41.7199 33.31C41.9899 32.68 42.5299 31.96 43.3299 31.17C44.1299 30.38 45.1799 29.51 46.4699 28.57C49.4499 26.41 52.7199 24.61 52.7599 24.59C54.6699 23.62 56.4199 23.5 57.9899 24.23C61.4499 25.82 62.7299 30.94 62.7699 31.15L62.8199 31.36L47.8299 40.28L42.9999 42.95L42.9899 42.94Z" fill="url(#paint10_linear_828_3282)"/>
<path d="M43.2599 42.1399C40.5599 36.0199 42.1799 33.6399 42.1999 33.6199L42.2299 33.5699C42.7399 32.4099 44.3199 30.8399 46.8099 29.0299C49.7499 26.8899 52.9999 25.0999 53.0199 25.0999C54.7499 24.2099 56.3399 24.0899 57.7399 24.7499C60.5699 26.0599 61.8799 30.1199 62.1599 31.0799L47.5399 39.7799L43.2599 42.1499V42.1399Z" fill="url(#paint11_linear_828_3282)"/>
<path d="M53.2499 21.4C52.4999 21.63 52.0299 21.7 51.1399 21.86C51.1199 21.86 51.1099 21.86 51.0999 21.86C50.1799 22.03 48.9299 22.22 47.4299 22.37C47.3999 22.28 44.3299 12.18 44.2999 12.08L55.9799 10.79C56.9499 13.46 58.7399 19.43 53.2599 21.39L53.2499 21.4Z" fill="url(#paint12_linear_828_3282)"/>
<path d="M46.41 22.48L46.1 22.51C39.13 23.3 37.09 21.03 36.85 20.72C36.33 20.27 35.82 19.53 35.31 18.53C34.81 17.53 34.3 16.26 33.81 14.74C32.67 11.24 31.97 7.57002 31.97 7.53002C31.64 5.42002 32.07 3.71002 33.24 2.45002C35.82 -0.359984 41.08 1.60821e-05 41.3 0.0300161H41.51L45.36 17.06L46.41 22.48Z" fill="url(#paint13_linear_828_3282)"/>
<path d="M45.73 21.97C39.07 22.65 37.31 20.37 37.3 20.35L37.27 20.31C36.32 19.47 35.32 17.48 34.37 14.55C33.25 11.09 32.55 7.44998 32.55 7.41998C32.24 5.49998 32.62 3.94998 33.67 2.81998C35.79 0.529982 40.06 0.539982 41.06 0.579982L44.81 17.17L45.74 21.97H45.73Z" fill="url(#paint14_linear_828_3282)"/>
<path d="M102.14 22.3301V38.1501L98.67 42.1001H82.49V18.3701H98.67L102.14 22.3201V22.3301ZM96.36 23.3201H88.28V37.1601H96.36V23.3201Z" fill="#1C1B1A"/>
<path d="M111.38 18.3701V38.1501L107.91 42.1001H105.6V22.3301L109.07 18.3701H111.38Z" fill="#1C1B1A"/>
<path d="M134.51 38.1501L131.04 42.1001H118.32L114.86 38.3501V22.3301L118.31 18.3701H131.04L134.51 22.3301V23.3201H120.63V37.1601H128.72V32.2201H123.52L121.79 30.2401V27.2801H134.51V38.1501Z" fill="#1C1B1A"/>
<path d="M143.76 18.3701V38.1501L140.29 42.1001H137.98V22.3301L141.44 18.3701H143.76Z" fill="#1C1B1A"/>
<path d="M166.88 22.3301V23.3201H159.94L159.96 38.1501L156.47 42.1001H154.17V23.3201H150.71L147.23 19.3601V18.3701H163.4L166.88 22.3301Z" fill="#1C1B1A"/>
<path d="M186.54 18.3701L190.01 22.3301V38.1501L186.54 42.1001H184.23V23.3201H176.13V28.2601H181.33L183.07 30.2401V31.2301L181.33 33.2001H176.13V38.1501L172.66 42.1001H170.35V23.3201L173.82 18.3701H186.54Z" fill="#1C1B1A"/>
<path d="M199.26 37.1601H213.13V38.1501L209.66 42.1001H196.94L193.47 38.3401V18.3701H195.79L199.26 23.3201V37.1601Z" fill="#1C1B1A"/>
<path d="M244.67 22.3301V38.1501L241.2 42.1001H225.01V18.3701H241.2L244.67 22.3201V22.3301ZM238.89 23.3201H230.81V37.1601H238.89V23.3201Z" fill="url(#paint15_linear_828_3282)"/>
<path d="M253.92 32.2201V37.1601H267.79V38.1501L264.33 42.1001H251.61L248.14 38.3401V22.3301L251.6 18.3701H264.33L267.79 22.3301V23.3201H253.92V27.2801H260.28L262.01 29.2501V30.2301L260.28 32.2201H253.92Z" fill="url(#paint16_linear_828_3282)"/>
<path d="M271.26 37.1601H285.14L285.15 33.2001L283.99 32.2101H274.74L271.26 28.2601V22.3301L274.74 18.3701H287.45L290.92 22.3301V23.3201H277.06L277.04 26.2801L278.22 27.2801H287.46L290.93 31.2301L290.92 38.1501L287.46 42.1001H274.74L271.26 38.1501V37.1601Z" fill="url(#paint17_linear_828_3282)"/>
<path d="M300.17 38.1501L296.7 42.1001H294.39V18.3701H296.7L300.17 22.3201V38.1401V38.1501ZM307.48 31.0601L314.05 42.1001H310L307.11 40.1201L301.33 30.2301L306.6 23.3001L310.58 18.3701L314.05 22.3201" fill="url(#paint18_linear_828_3282)"/>
</g>
<defs>
<linearGradient id="paint0_linear_828_3282" x1="18.45" y1="6.24002" x2="30.07" y2="6.24002" gradientUnits="userSpaceOnUse">
<stop stop-color="#E12328"/>
<stop offset="0.23" stop-color="#E12328"/>
<stop offset="0.41" stop-color="#E1252A"/>
<stop offset="0.54" stop-color="#E22E31"/>
<stop offset="0.64" stop-color="#E53E3E"/>
<stop offset="0.74" stop-color="#E85450"/>
<stop offset="0.84" stop-color="#EC7068"/>
<stop offset="0.92" stop-color="#F19284"/>
<stop offset="1" stop-color="#F7B8A4"/>
</linearGradient>
<linearGradient id="paint1_linear_828_3282" x1="5.05998" y1="16.7501" x2="28.98" y2="16.7501" gradientUnits="userSpaceOnUse">
<stop stop-color="#E12328"/>
<stop offset="0.1" stop-color="#E12328"/>
<stop offset="0.36" stop-color="#E1262A"/>
<stop offset="0.59" stop-color="#E23130"/>
<stop offset="0.82" stop-color="#E5433B"/>
<stop offset="1" stop-color="#E85948"/>
</linearGradient>
<linearGradient id="paint2_linear_828_3282" x1="5.63999" y1="16.7699" x2="28.29" y2="16.7699" gradientUnits="userSpaceOnUse">
<stop stop-color="#E12328"/>
<stop offset="0.1" stop-color="#E12328"/>
<stop offset="0.26" stop-color="#E1262A"/>
<stop offset="0.41" stop-color="#E33134"/>
<stop offset="0.55" stop-color="#E54443"/>
<stop offset="0.69" stop-color="#E95D59"/>
<stop offset="0.82" stop-color="#EE7F74"/>
<stop offset="0.95" stop-color="#F4A796"/>
<stop offset="1" stop-color="#F7B8A4"/>
</linearGradient>
<linearGradient id="paint3_linear_828_3282" x1="4.50809" y1="34.2393" x2="8.92675" y2="23.4923" gradientUnits="userSpaceOnUse">
<stop stop-color="#FAB415"/>
<stop offset="0.1" stop-color="#FAB415"/>
<stop offset="0.27" stop-color="#FAB518"/>
<stop offset="0.42" stop-color="#FABA23"/>
<stop offset="0.56" stop-color="#FBC336"/>
<stop offset="0.71" stop-color="#FCCF4F"/>
<stop offset="0.84" stop-color="#FDDF71"/>
<stop offset="0.98" stop-color="#FEF299"/>
<stop offset="1" stop-color="#FFF6A1"/>
</linearGradient>
<linearGradient id="paint4_linear_828_3282" x1="9.13307" y1="50.6294" x2="18.2328" y2="28.497" gradientUnits="userSpaceOnUse">
<stop stop-color="#FAB415"/>
<stop offset="0.1" stop-color="#FAB415"/>
<stop offset="0.35" stop-color="#FAB418"/>
<stop offset="0.57" stop-color="#FAB723"/>
<stop offset="0.78" stop-color="#FBBC35"/>
<stop offset="0.98" stop-color="#FCC24F"/>
<stop offset="1" stop-color="#FDC352"/>
</linearGradient>
<linearGradient id="paint5_linear_828_3282" x1="9.36283" y1="50.0966" x2="17.9796" y2="29.1388" gradientUnits="userSpaceOnUse">
<stop stop-color="#FAB415"/>
<stop offset="0.1" stop-color="#FAB415"/>
<stop offset="0.27" stop-color="#FAB518"/>
<stop offset="0.42" stop-color="#FABA23"/>
<stop offset="0.56" stop-color="#FBC336"/>
<stop offset="0.71" stop-color="#FCCF4F"/>
<stop offset="0.84" stop-color="#FDDF71"/>
<stop offset="0.98" stop-color="#FEF299"/>
<stop offset="1" stop-color="#FFF6A1"/>
</linearGradient>
<linearGradient id="paint6_linear_828_3282" x1="27.094" y1="56.9394" x2="17.6932" y2="50.1094" gradientUnits="userSpaceOnUse">
<stop stop-color="#67A041"/>
<stop offset="0.1" stop-color="#67A041"/>
<stop offset="0.26" stop-color="#6AA142"/>
<stop offset="0.41" stop-color="#75A746"/>
<stop offset="0.55" stop-color="#88B24C"/>
<stop offset="0.68" stop-color="#A1C055"/>
<stop offset="0.82" stop-color="#C3D261"/>
<stop offset="0.95" stop-color="#EBE870"/>
<stop offset="1" stop-color="#FFF377"/>
</linearGradient>
<linearGradient id="paint7_linear_828_3282" x1="44.1043" y1="56.3072" x2="24.7526" y2="42.2474" gradientUnits="userSpaceOnUse">
<stop stop-color="#67A041"/>
<stop offset="0.1" stop-color="#67A041"/>
<stop offset="0.42" stop-color="#6AA144"/>
<stop offset="0.7" stop-color="#75A64E"/>
<stop offset="0.98" stop-color="#87AF60"/>
<stop offset="1" stop-color="#8AB062"/>
</linearGradient>
<linearGradient id="paint8_linear_828_3282" x1="43.6468" y1="55.9501" x2="25.3226" y2="42.6367" gradientUnits="userSpaceOnUse">
<stop stop-color="#67A041"/>
<stop offset="0.1" stop-color="#67A041"/>
<stop offset="0.26" stop-color="#6AA142"/>
<stop offset="0.41" stop-color="#75A746"/>
<stop offset="0.55" stop-color="#88B24C"/>
<stop offset="0.68" stop-color="#A1C055"/>
<stop offset="0.82" stop-color="#C3D261"/>
<stop offset="0.95" stop-color="#EBE870"/>
<stop offset="1" stop-color="#FFF377"/>
</linearGradient>
<linearGradient id="paint9_linear_828_3282" x1="47.6699" y1="40.55" x2="52.4699" y2="50.72" gradientUnits="userSpaceOnUse">
<stop stop-color="#0D8A9A"/>
<stop offset="0.1" stop-color="#0D8A9A"/>
<stop offset="0.25" stop-color="#108B9B"/>
<stop offset="0.39" stop-color="#1B8F9F"/>
<stop offset="0.52" stop-color="#2E97A5"/>
<stop offset="0.65" stop-color="#47A1AE"/>
<stop offset="0.78" stop-color="#69AFBA"/>
<stop offset="0.9" stop-color="#91BFC8"/>
<stop offset="1" stop-color="#BAD0D7"/>
</linearGradient>
<linearGradient id="paint10_linear_828_3282" x1="60.1995" y1="25.9292" x2="40.8397" y2="39.9949" gradientUnits="userSpaceOnUse">
<stop stop-color="#0D8A9A"/>
<stop offset="0.1" stop-color="#0D8A9A"/>
<stop offset="0.32" stop-color="#108A9A"/>
<stop offset="0.52" stop-color="#1B8D9D"/>
<stop offset="0.7" stop-color="#2D92A1"/>
<stop offset="0.89" stop-color="#4798A7"/>
<stop offset="1" stop-color="#5C9EAC"/>
</linearGradient>
<linearGradient id="paint11_linear_828_3282" x1="59.7185" y1="26.2539" x2="41.3862" y2="39.5731" gradientUnits="userSpaceOnUse">
<stop stop-color="#0D8A9A"/>
<stop offset="0.1" stop-color="#0D8A9A"/>
<stop offset="0.25" stop-color="#108B9B"/>
<stop offset="0.39" stop-color="#1B8F9F"/>
<stop offset="0.52" stop-color="#2E97A5"/>
<stop offset="0.65" stop-color="#47A1AE"/>
<stop offset="0.78" stop-color="#69AFBA"/>
<stop offset="0.9" stop-color="#91BFC8"/>
<stop offset="1" stop-color="#BAD0D7"/>
</linearGradient>
<linearGradient id="paint12_linear_828_3282" x1="45.7999" y1="17.37" x2="56.9599" y2="15.12" gradientUnits="userSpaceOnUse">
<stop stop-color="#A22D86"/>
<stop offset="0.1" stop-color="#A22D86"/>
<stop offset="0.27" stop-color="#A33088"/>
<stop offset="0.43" stop-color="#A73B8E"/>
<stop offset="0.57" stop-color="#AF4E99"/>
<stop offset="0.72" stop-color="#BA67A8"/>
<stop offset="0.86" stop-color="#C789BB"/>
<stop offset="0.99" stop-color="#D8B1D2"/>
<stop offset="1" stop-color="#D9B4D4"/>
</linearGradient>
<linearGradient id="paint13_linear_828_3282" x1="35.5388" y1="0.854615" x2="42.9305" y2="23.6039" gradientUnits="userSpaceOnUse">
<stop stop-color="#A22D86"/>
<stop offset="0.15" stop-color="#A22D86"/>
<stop offset="0.43" stop-color="#A33087"/>
<stop offset="0.68" stop-color="#A73B8D"/>
<stop offset="0.92" stop-color="#AE4D96"/>
<stop offset="1" stop-color="#B2569B"/>
</linearGradient>
<linearGradient id="paint14_linear_828_3282" x1="35.699" y1="1.41237" x2="42.6982" y2="22.9538" gradientUnits="userSpaceOnUse">
<stop stop-color="#A22D86"/>
<stop offset="0.1" stop-color="#A22D86"/>
<stop offset="0.27" stop-color="#A33088"/>
<stop offset="0.43" stop-color="#A73B8E"/>
<stop offset="0.57" stop-color="#AF4E99"/>
<stop offset="0.72" stop-color="#BA67A8"/>
<stop offset="0.86" stop-color="#C789BB"/>
<stop offset="0.99" stop-color="#D8B1D2"/>
<stop offset="1" stop-color="#D9B4D4"/>
</linearGradient>
<linearGradient id="paint15_linear_828_3282" x1="214.26" y1="30.2401" x2="354.05" y2="30.2401" gradientUnits="userSpaceOnUse">
<stop stop-color="#E12328"/>
<stop offset="0.23" stop-color="#E12328"/>
<stop offset="0.41" stop-color="#E1252A"/>
<stop offset="0.54" stop-color="#E22E31"/>
<stop offset="0.64" stop-color="#E53E3E"/>
<stop offset="0.74" stop-color="#E85450"/>
<stop offset="0.84" stop-color="#EC7068"/>
<stop offset="0.92" stop-color="#F19284"/>
<stop offset="1" stop-color="#F7B8A4"/>
</linearGradient>
<linearGradient id="paint16_linear_828_3282" x1="214.26" y1="30.2401" x2="354.05" y2="30.2401" gradientUnits="userSpaceOnUse">
<stop stop-color="#E12328"/>
<stop offset="0.23" stop-color="#E12328"/>
<stop offset="0.41" stop-color="#E1252A"/>
<stop offset="0.54" stop-color="#E22E31"/>
<stop offset="0.64" stop-color="#E53E3E"/>
<stop offset="0.74" stop-color="#E85450"/>
<stop offset="0.84" stop-color="#EC7068"/>
<stop offset="0.92" stop-color="#F19284"/>
<stop offset="1" stop-color="#F7B8A4"/>
</linearGradient>
<linearGradient id="paint17_linear_828_3282" x1="214.26" y1="30.2401" x2="354.05" y2="30.2401" gradientUnits="userSpaceOnUse">
<stop stop-color="#E12328"/>
<stop offset="0.23" stop-color="#E12328"/>
<stop offset="0.41" stop-color="#E1252A"/>
<stop offset="0.54" stop-color="#E22E31"/>
<stop offset="0.64" stop-color="#E53E3E"/>
<stop offset="0.74" stop-color="#E85450"/>
<stop offset="0.84" stop-color="#EC7068"/>
<stop offset="0.92" stop-color="#F19284"/>
<stop offset="1" stop-color="#F7B8A4"/>
</linearGradient>
<linearGradient id="paint18_linear_828_3282" x1="214.26" y1="30.2401" x2="354.05" y2="30.2401" gradientUnits="userSpaceOnUse">
<stop stop-color="#E12328"/>
<stop offset="0.23" stop-color="#E12328"/>
<stop offset="0.41" stop-color="#E1252A"/>
<stop offset="0.54" stop-color="#E22E31"/>
<stop offset="0.64" stop-color="#E53E3E"/>
<stop offset="0.74" stop-color="#E85450"/>
<stop offset="0.84" stop-color="#EC7068"/>
<stop offset="0.92" stop-color="#F19284"/>
<stop offset="1" stop-color="#F7B8A4"/>
</linearGradient>
<clipPath id="clip0_828_3282">
<rect width="314.04" height="60.47" fill="white"/>
</clipPath>
</defs>
</svg>
