<svg xmlns="http://www.w3.org/2000/svg" width="187" height="52" fill="none">
  <mask id="a" width="9" height="13" x="10" y="8" maskUnits="userSpaceOnUse" style="mask-type:luminance">
    <path fill="#fff" d="m13.324 8.262-2.046 9.765-.467 2.83c4.032.405 5.201-.982 5.201-.982 2.045-1.56 2.688-7.568 2.688-7.568.526-3.698-3.272-4.045-4.792-4.045h-.584Z"/>
  </mask>
  <g mask="url(#a)">
    <path fill="url(#b)" d="M17.882 15.773c-.468 2.311-1.227 3.525-1.812 4.102.935-.75 1.578-2.484 1.987-4.044l-.175-.058Zm-3.974-7.51h-.584L11.92 15.08l2.98.289 2.514.289-5.435-.751 6.194.115-.117.578a31.4 31.4 0 0 0 .585-3.293c.526-3.698-3.214-4.045-4.734-4.045Z"/>
  </g>
  <mask id="c" width="14" height="7" x="4" y="14" maskUnits="userSpaceOnUse" style="mask-type:luminance">
    <path fill="#fff" d="M7.188 20.684s6.253.81 8.123-.289c0 0 1.694-.52 2.57-4.622l-3.038-.346-9.993-.983s-2.279 5.547 2.338 6.24Z"/>
  </mask>
  <g mask="url(#c)">
    <path fill="url(#d)" d="M4.85 14.444s-2.279 5.49 2.338 6.24c0 0 2.162.29 4.324.29 1.52 0 3.039-.116 3.799-.579 0 0 .35-.115.76-.52.584-.577 1.343-1.79 1.81-4.102l-.525-.058-2.513-.288-2.98-.29-7.013-.693Z"/>
  </g>
  <mask id="e" width="8" height="2" x="11" y="14" maskUnits="userSpaceOnUse" style="mask-type:luminance">
    <path fill="#fff" d="M11.921 15.773h6.253v-.866h-6.253v.866Z"/>
  </mask>
  <g mask="url(#e)">
    <mask id="f" width="8" height="2" x="11" y="14" maskUnits="userSpaceOnUse" style="mask-type:luminance">
      <path fill="#fff" d="m11.921 14.907 6.253.115-.117.751-6.136-.866Z"/>
    </mask>
    <g mask="url(#f)">
      <path fill="url(#g)" d="M18.057 15.6c0 .058-.058.116-.058.173l.058-.173Z"/>
      <path fill="url(#h)" d="M18.057 15.6c0 .058-.058.116-.058.173l.058-.173Z"/>
    </g>
  </g>
  <mask id="i" width="15" height="8" x="4" y="14" maskUnits="userSpaceOnUse" style="mask-type:luminance">
    <path fill="#fff" d="M7.188 20.569c-1.11-.174-1.929-.694-2.338-1.445-.876-1.56-.116-3.929.117-4.449l9.876.925 2.805.347c-.76 3.697-2.396 4.275-2.396 4.275h-.058c-.643.347-1.929.578-3.74.578-2.045 0-4.208-.231-4.266-.231Zm-2.513-6.182c-.058.115-1.169 2.946-.117 4.853.468.867 1.344 1.387 2.571 1.618 0 0 2.221.288 4.325.288 1.87 0 3.155-.173 3.857-.577.233-.058 1.87-.81 2.688-4.738l.058-.173-3.214-.405-10.11-.982-.058.116Z"/>
  </mask>
  <g mask="url(#i)">
    <path fill="url(#j)" d="M18.116 14.271H3.506v6.875h14.61v-6.875Z"/>
  </g>
  <mask id="k" width="15" height="8" x="20" y="14" maskUnits="userSpaceOnUse" style="mask-type:luminance">
    <path fill="#fff" d="m23.784 15.6-2.922.462c.877 3.929 2.571 4.565 2.571 4.565 2.163 1.444 8.123.115 8.123.115 4.617-.867 2.22-6.298 2.22-6.298L23.785 15.6Z"/>
  </mask>
  <g mask="url(#k)">
    <path fill="url(#l)" d="M23.55 20.627c.76.462 1.987.635 3.214.635.41 0 .877 0 1.286-.058v-.115c-.584.058-1.169.115-1.636.115-1.403-.057-2.338-.289-2.864-.577Zm10.227-6.183-7.013.81.702 2.888.467 2.427-.993-5.316 1.87 5.894-.585.057c1.812-.115 3.331-.462 3.331-.462 4.675-.867 2.22-6.298 2.22-6.298Z"/>
  </g>
  <mask id="m" width="10" height="14" x="19" y="8" maskUnits="userSpaceOnUse" style="mask-type:luminance">
    <path fill="#fff" d="M19.927 12.595s1.227 6.125 2.864 7.512c0 0 1.052 1.444 5.259.982l-.584-2.947-2.28-9.706h-.409c-1.285-.058-5.493.288-4.85 4.16Z"/>
  </mask>
  <g mask="url(#m)">
    <path fill="url(#n)" d="M24.777 8.378c-1.285 0-5.493.289-4.85 4.16 0 0 1.227 6.124 2.864 7.51 0 0 .175.29.76.52.525.29 1.46.52 2.863.52.467 0 1.052 0 1.636-.115l-.117-.52-.467-2.31-.702-2.89-1.577-6.818s-.176-.057-.41-.057Z"/>
  </g>
  <mask id="o" width="10" height="14" x="19" y="8" maskUnits="userSpaceOnUse" style="mask-type:luminance">
    <path fill="#fff" d="M22.907 19.991c-.584-.52-1.168-1.675-1.753-3.351-.642-1.965-1.052-4.102-1.11-4.102-.175-1.098.058-2.023.643-2.658 1.227-1.329 3.74-1.329 4.324-1.329l2.22 9.591.527 2.774c-.526.057-.994.057-1.403.057-2.688 0-3.448-.982-3.448-.982ZM20.512 9.65c-.702.751-.935 1.733-.702 2.947 0 0 .41 2.137 1.11 4.16.585 1.733 1.17 2.888 1.812 3.466.117.173 1.344 1.502 5.376 1.04h.176l-.643-3.12-2.28-9.822h-.526c-.992-.058-3.155.058-4.323 1.329Z"/>
  </mask>
  <g mask="url(#o)">
    <path fill="url(#p)" d="m15.486 9.591 11.921-3.929 4.909 14.733-11.921 3.872L15.486 9.59Z"/>
  </g>
  <mask id="q" width="10" height="14" x="25" y="24" maskUnits="userSpaceOnUse" style="mask-type:luminance">
    <path fill="#fff" d="M25.245 27.849c-.76 2.427 2.22 7.742 2.22 7.742 2.163 4.102 6.721.289 6.721.289l-3.974-9.187-1.227-2.6c-3.565 1.907-3.74 3.756-3.74 3.756Z"/>
  </mask>
  <g mask="url(#q)">
    <path fill="url(#r)" d="m31.38 29.467-2.57 1.444-2.22 1.156 4.908-2.427-5.201 3.467-.234-.52a28.103 28.103 0 0 0 1.403 3.062c.76 1.444 1.811 1.907 2.863 1.907 1.928 0 3.915-1.618 3.915-1.618l-2.863-6.471Zm-6.193-1.503c-.293 1.156.175 2.89.76 4.45l.116-.059c-.935-2.195-.993-3.582-.876-4.39Z"/>
  </g>
  <mask id="s" width="13" height="12" x="25" y="21" maskUnits="userSpaceOnUse" style="mask-type:luminance">
    <path fill="#fff" d="M31.965 22.187s-5.551 2.889-6.486 4.853c0 0-1.11 1.387.584 5.258l2.688-1.387L37.517 26s-.935-4.218-3.857-4.218c-.467 0-1.052.116-1.695.405Z"/>
  </mask>
  <g mask="url(#s)">
    <path fill="url(#t)" d="M33.66 21.782c-.526 0-1.052.116-1.695.405 0 0-5.551 2.889-6.486 4.853 0 0-.234.289-.293.867-.116.809-.058 2.195.877 4.39l.468-.23 2.22-1.156 2.571-1.444L37.458 26c.059 0-.876-4.218-3.798-4.218Z"/>
  </g>
  <mask id="u" width="7" height="5" x="25" y="29" maskUnits="userSpaceOnUse" style="mask-type:luminance">
    <path fill="#fff" d="M25.946 33.107h5.493V29.64h-5.493v3.467Z"/>
  </mask>
  <g mask="url(#u)">
    <mask id="v" width="7" height="5" x="25" y="29" maskUnits="userSpaceOnUse" style="mask-type:luminance">
      <path fill="#fff" d="m31.44 29.64-5.202 3.467-.292-.694 5.493-2.773Z"/>
    </mask>
    <g mask="url(#v)">
      <path fill="url(#w)" d="m25.946 32.413.059.174c0-.116-.059-.116-.059-.174Z"/>
      <path fill="url(#x)" d="m25.946 32.413.059.174c0-.116-.059-.116-.059-.174Z"/>
    </g>
  </g>
  <mask id="y" width="14" height="12" x="24" y="21" maskUnits="userSpaceOnUse" style="mask-type:luminance">
    <path fill="#fff" d="M25.654 27.155c.35-.693 1.286-1.56 2.747-2.6 1.753-1.213 3.681-2.195 3.681-2.195 1.052-.462 1.929-.52 2.747-.173 1.636.808 2.337 3.177 2.513 3.697l-8.65 4.854-2.512 1.329c-1.52-3.525-.526-4.912-.526-4.912Zm6.253-5.084s-1.928 1.04-3.74 2.253c-1.52 1.04-2.513 1.965-2.805 2.716-.117.173-1.052 1.675.584 5.431l.059.173 2.863-1.502 8.883-4.969v-.115c-.059-.116-.702-3.12-2.747-4.045-.409-.173-.818-.289-1.285-.289-.585-.115-1.17.058-1.812.347Z"/>
  </mask>
  <g mask="url(#y)">
    <path fill="url(#z)" d="m19.11 25.191 14.2-9.764 9.583 13.578-14.2 9.764-9.584-13.578Z"/>
  </g>
  <mask id="A" width="14" height="12" x="10" y="31" maskUnits="userSpaceOnUse" style="mask-type:luminance">
    <path fill="#fff" d="M18.583 31.662c-2.571.116-6.662 4.622-6.662 4.622-3.214 3.351 1.929 6.356 1.929 6.356l7.421-6.702 2.104-2.023c-2.279-2.022-3.857-2.253-4.5-2.253h-.292Z"/>
  </mask>
  <g mask="url(#A)">
    <path fill="url(#B)" d="M14.376 33.973c-1.403 1.156-2.455 2.311-2.455 2.311-3.214 3.352 1.929 6.356 1.929 6.356l5.2-4.738-2.278-1.964-1.87-1.734 3.973 3.756-5.025-3.698.526-.289Zm4.149-2.253c-1.227.116-2.747 1.098-4.032 2.138l.116.115c1.754-1.617 3.098-2.137 3.916-2.253Z"/>
  </g>
  <mask id="C" width="14" height="12" x="14" y="31" maskUnits="userSpaceOnUse" style="mask-type:luminance">
    <path fill="#fff" d="m14.61 33.973 2.22 2.023 7.597 6.529s5.084-3.12 1.811-6.414c0 0-4.616-4.218-6.778-4.449 0 0-.117-.057-.41-.057-.7.057-2.22.346-4.44 2.368Z"/>
  </mask>
  <g mask="url(#C)">
    <path fill="url(#D)" d="M19.05 31.662c-.116 0-.292 0-.525.058-.818.116-2.104.636-3.916 2.254l.351.346 1.87 1.733 2.28 1.965 5.317 4.622s5.084-3.12 1.811-6.413c0 0-4.616-4.218-6.778-4.45 0-.115-.176-.115-.41-.115Z"/>
  </g>
  <mask id="E" width="6" height="6" x="13" y="33" maskUnits="userSpaceOnUse" style="mask-type:luminance">
    <path fill="#fff" d="M13.967 38.075h4.967v-4.217h-4.967v4.217Z"/>
  </mask>
  <g mask="url(#E)">
    <mask id="F" width="6" height="6" x="13" y="33" maskUnits="userSpaceOnUse" style="mask-type:luminance">
      <path fill="#fff" d="m18.934 38.075-4.967-3.697.525-.52 4.442 4.217Z"/>
    </mask>
    <g mask="url(#F)">
      <path fill="url(#G)" d="m14.492 33.858-.116.115.117-.115Z"/>
      <path fill="url(#H)" d="m14.492 33.858-.116.115.117-.115Z"/>
    </g>
  </g>
  <mask id="I" width="14" height="12" x="14" y="31" maskUnits="userSpaceOnUse" style="mask-type:luminance">
    <path fill="#fff" d="m16.947 35.88-2.104-1.907c2.922-2.6 4.5-2.137 4.558-2.137h.059c.7.057 1.87.635 3.33 1.675 1.695 1.213 3.332 2.716 3.332 2.716.818.809 1.168 1.617 1.051 2.542-.233 1.79-2.22 3.235-2.688 3.582l-7.538-6.471Zm-2.454-2.022-.117.115 2.396 2.196 7.655 6.587.117-.058c.117-.058 2.688-1.676 2.98-3.871.117-.983-.292-1.907-1.169-2.774 0 0-1.636-1.502-3.39-2.715-1.518-1.098-2.687-1.676-3.505-1.734-.059 0-.176-.057-.468-.057-.701-.058-2.22.23-4.5 2.31Z"/>
  </mask>
  <g mask="url(#I)">
    <path fill="url(#J)" d="m8.94 38.827 9.935-13.694 14.2 10.111-9.992 13.694L8.94 38.827Z"/>
  </g>
  <mask id="K" width="13" height="12" x="1" y="21" maskUnits="userSpaceOnUse" style="mask-type:luminance">
    <path fill="#fff" d="m1.11 25.307 8.357 5.546 2.513 1.56c1.928-3.524 1.052-5.142 1.052-5.142-.702-2.484-6.078-5.316-6.078-5.316-.701-.404-1.286-.577-1.87-.577-2.746 0-3.974 3.929-3.974 3.929Z"/>
  </mask>
  <g mask="url(#K)">
    <path fill="url(#L)" d="m9.934 23.804-.058.116c1.987 1.329 2.805 2.427 3.156 3.178-.41-1.098-1.754-2.311-3.098-3.294Zm-4.85-2.426c-2.746 0-3.915 3.929-3.915 3.929l5.844 3.87 1.402-2.6 1.286-2.253-2.805 4.738L9.35 23.4l.468.289a29.919 29.919 0 0 0-2.864-1.791c-.701-.347-1.344-.52-1.87-.52Z"/>
  </g>
  <mask id="M" width="11" height="15" x="3" y="23" maskUnits="userSpaceOnUse" style="mask-type:luminance">
    <path fill="#fff" d="M8.357 26.578 3.74 35.36s4.266 4.16 6.72.231c0 0 3.097-5.431 2.805-7.569 0 0 .176-1.791-3.39-4.102l-1.518 2.658Z"/>
  </mask>
  <g mask="url(#M)">
    <path fill="url(#N)" d="m9.876 23.92-.234.404-1.285 2.254-1.345 2.6L3.74 35.36s1.987 1.907 3.974 1.907c.993 0 1.928-.463 2.746-1.734 0 0 3.097-5.43 2.805-7.569 0 0 .059-.346-.233-.924-.351-.636-1.17-1.791-3.156-3.12Z"/>
  </g>
  <mask id="O" width="4" height="7" x="6" y="23" maskUnits="userSpaceOnUse" style="mask-type:luminance">
    <path fill="#fff" d="M6.837 29.062h3.097V23.4H6.837v5.662Z"/>
  </mask>
  <g mask="url(#O)">
    <mask id="P" width="4" height="7" x="6" y="23" maskUnits="userSpaceOnUse" style="mask-type:luminance">
      <path fill="#fff" d="M6.837 29.062 9.292 23.4l.642.404-3.097 5.258Z"/>
    </mask>
    <g mask="url(#P)">
      <path fill="url(#Q)" d="M9.76 23.689c.058.058.116.058.174.115l-.175-.115Z"/>
      <path fill="url(#R)" d="M9.76 23.689c.058.058.116.058.174.115l-.175-.115Z"/>
    </g>
  </g>
  <mask id="S" width="11" height="15" x="3" y="23" maskUnits="userSpaceOnUse" style="mask-type:luminance">
    <path fill="#fff" d="m3.915 35.36 4.559-8.724 1.402-2.485c3.214 2.196 3.156 3.871 3.156 3.871v.058c.117.693-.176 1.965-.877 3.64a39.66 39.66 0 0 1-1.87 3.813c-.584.983-1.344 1.503-2.22 1.618h-.351c-1.695 0-3.39-1.444-3.799-1.79Zm4.325-8.898-4.734 8.956.117.115c.117.116 2.28 2.196 4.5 1.965.993-.116 1.811-.694 2.454-1.791 0 0 1.11-1.907 1.87-3.871.702-1.734.994-3.005.877-3.756 0-.231-.059-1.964-3.448-4.218l-.117-.173-1.52 2.773Z"/>
  </mask>
  <g mask="url(#S)">
    <path fill="url(#T)" d="m-1.46 35.707 6.427-15.485 13.5 5.49-6.37 15.484-13.558-5.49Z"/>
  </g>
  <path fill="#231F20" d="M60.424 21.436v9.07L58.38 32.76h-9.408V19.182h9.408l2.045 2.254Zm-3.389.577H52.36v7.974h4.675v-7.974Zm8.765-2.831v11.382l-2.045 2.254h-1.344V21.436l2.046-2.254H65.8Zm13.441 11.382-2.045 2.254h-7.363l-2.046-2.138v-9.244l2.046-2.254h7.363l2.045 2.254v.577h-8.064v7.974h4.675v-2.831h-2.98L71.82 26v-1.676h7.421v6.24Zm5.377-11.382v11.382l-2.046 2.254h-1.344V21.436l2.046-2.254h1.344Zm13.44 2.254v.577h-4.032v8.551l-2.045 2.254h-1.286V22.013H88.65l-2.046-2.253v-.578h9.467l1.987 2.254Zm11.454-2.254 1.987 2.254v9.128l-1.987 2.254h-1.344V22.013h-4.734v2.831h3.039l.994 1.156v.578l-.994 1.155h-3.039v2.831l-1.986 2.254h-1.345V22.013l1.987-2.83h7.422Zm7.363 10.805h8.123v.577l-2.045 2.254h-7.422l-1.987-2.138V19.182h1.344l1.987 2.831v7.974Z"/>
  <path fill="url(#U)" d="M143.289 21.436v9.07l-2.046 2.254h-9.408V19.182h9.408l2.046 2.254Zm-3.331.577h-4.675v7.974h4.675v-7.974Z"/>
  <path fill="url(#V)" d="M148.723 27.155v2.832h8.065v.577l-2.046 2.254h-7.363l-2.045-2.138v-9.244l1.987-2.254h7.421l2.046 2.254v.577h-8.065v2.311h3.682l.993 1.098V26l-.993 1.155h-3.682Z"/>
  <path fill="url(#W)" d="M158.775 29.987h8.064v-2.254l-.643-.578h-5.376l-2.045-2.31v-3.41l2.045-2.253h7.363l2.045 2.254v.577h-8.064v1.734l.643.577h5.376l2.045 2.254v3.986l-2.045 2.254h-7.363l-2.045-2.254v-.577Z"/>
  <path fill="url(#X)" d="m175.605 30.564-2.046 2.254h-1.344V19.182h1.344l2.046 2.254v9.128Zm4.266-4.102 3.798 6.356h-2.337l-1.695-1.156L176.248 26l3.038-3.987 2.338-2.83 2.045 2.253"/>
  <defs>
    <linearGradient id="b" x1="15.305" x2="15.305" y1="20.318" y2="7.65" gradientUnits="userSpaceOnUse">
      <stop stop-color="#E12329"/>
      <stop offset=".23" stop-color="#E12329"/>
      <stop offset=".41" stop-color="#E1252B"/>
      <stop offset=".54" stop-color="#E22E32"/>
      <stop offset=".65" stop-color="#E43E3F"/>
      <stop offset=".75" stop-color="#E75450"/>
      <stop offset=".84" stop-color="#EA7067"/>
      <stop offset=".93" stop-color="#EE9282"/>
      <stop offset="1" stop-color="#F3B39D"/>
    </linearGradient>
    <linearGradient id="d" x1="4.711" x2="18.374" y1="17.726" y2="17.726" gradientUnits="userSpaceOnUse">
      <stop stop-color="#E12329"/>
      <stop offset=".1" stop-color="#E12329"/>
      <stop offset=".27" stop-color="#E1262B"/>
      <stop offset=".42" stop-color="#E23134"/>
      <stop offset=".56" stop-color="#E54443"/>
      <stop offset=".7" stop-color="#E85D58"/>
      <stop offset=".83" stop-color="#EC7F73"/>
      <stop offset=".97" stop-color="#F1A793"/>
      <stop offset="1" stop-color="#F3B39D"/>
    </linearGradient>
    <linearGradient id="g" x1="11.989" x2="18.168" y1="15.698" y2="15.698" gradientUnits="userSpaceOnUse">
      <stop stop-color="#fff"/>
      <stop offset=".1" stop-color="#fff"/>
      <stop offset=".3" stop-color="#FEFCFB"/>
      <stop offset=".48" stop-color="#FDF3F0"/>
      <stop offset=".65" stop-color="#FAE5DD"/>
      <stop offset=".81" stop-color="#F7D1C3"/>
      <stop offset=".98" stop-color="#F3B7A2"/>
      <stop offset="1" stop-color="#F3B39D"/>
    </linearGradient>
    <linearGradient id="h" x1="11.989" x2="18.168" y1="15.698" y2="15.698" gradientUnits="userSpaceOnUse">
      <stop stop-color="#9D9FA2"/>
      <stop offset=".1" stop-color="#9D9FA2"/>
      <stop offset=".3" stop-color="#A0A2A5"/>
      <stop offset=".48" stop-color="#ABADAF"/>
      <stop offset=".65" stop-color="#BEBFC1"/>
      <stop offset=".81" stop-color="#D8D9DA"/>
      <stop offset=".98" stop-color="#F9F9F9"/>
      <stop offset="1" stop-color="#fff"/>
    </linearGradient>
    <linearGradient id="j" x1="4.062" x2="18.101" y1="17.721" y2="17.721" gradientUnits="userSpaceOnUse">
      <stop stop-color="#E12329"/>
      <stop offset=".1" stop-color="#E12329"/>
      <stop offset=".36" stop-color="#E1262A"/>
      <stop offset=".59" stop-color="#E23130"/>
      <stop offset=".81" stop-color="#E34339"/>
      <stop offset="1" stop-color="#E65B45"/>
    </linearGradient>
    <linearGradient id="l" x1="22.885" x2="35.108" y1="20.076" y2="15.989" gradientUnits="userSpaceOnUse">
      <stop stop-color="#A6258C"/>
      <stop offset=".23" stop-color="#A6258C"/>
      <stop offset=".42" stop-color="#A6278D"/>
      <stop offset=".55" stop-color="#AA3091"/>
      <stop offset=".66" stop-color="#AF4099"/>
      <stop offset=".76" stop-color="#B756A4"/>
      <stop offset=".85" stop-color="#C172B1"/>
      <stop offset=".94" stop-color="#CD94C2"/>
      <stop offset="1" stop-color="#D6AECF"/>
    </linearGradient>
    <linearGradient id="n" x1="22.054" x2="26.225" y1="9.483" y2="22.247" gradientUnits="userSpaceOnUse">
      <stop stop-color="#A6258C"/>
      <stop offset=".1" stop-color="#A6258C"/>
      <stop offset=".27" stop-color="#A7288D"/>
      <stop offset=".42" stop-color="#AB3393"/>
      <stop offset=".57" stop-color="#B1469C"/>
      <stop offset=".71" stop-color="#BA5FA8"/>
      <stop offset=".85" stop-color="#C681B9"/>
      <stop offset=".99" stop-color="#D4A9CC"/>
      <stop offset="1" stop-color="#D6AECF"/>
    </linearGradient>
    <linearGradient id="p" x1="21.786" x2="26.103" y1="8.68" y2="21.888" gradientUnits="userSpaceOnUse">
      <stop stop-color="#A6258C"/>
      <stop offset=".15" stop-color="#A6258C"/>
      <stop offset=".41" stop-color="#A6288D"/>
      <stop offset=".64" stop-color="#A93391"/>
      <stop offset=".86" stop-color="#AE4598"/>
      <stop offset="1" stop-color="#B3569E"/>
    </linearGradient>
    <linearGradient id="r" x1="25.388" x2="32.6" y1="26.888" y2="37.359" gradientUnits="userSpaceOnUse">
      <stop stop-color="#108A9A"/>
      <stop offset=".23" stop-color="#108A9A"/>
      <stop offset=".41" stop-color="#128B9A"/>
      <stop offset=".53" stop-color="#1B8E9E"/>
      <stop offset=".63" stop-color="#2B94A3"/>
      <stop offset=".73" stop-color="#419DAB"/>
      <stop offset=".82" stop-color="#5DA8B4"/>
      <stop offset=".9" stop-color="#80B6C1"/>
      <stop offset=".98" stop-color="#A8C6CF"/>
      <stop offset="1" stop-color="#B1CAD2"/>
    </linearGradient>
    <linearGradient id="t" x1="35.94" x2="24.89" y1="23.129" y2="30.914" gradientUnits="userSpaceOnUse">
      <stop stop-color="#108A9A"/>
      <stop offset=".1" stop-color="#108A9A"/>
      <stop offset=".26" stop-color="#138B9B"/>
      <stop offset=".4" stop-color="#1E8F9F"/>
      <stop offset=".54" stop-color="#3197A5"/>
      <stop offset=".67" stop-color="#4AA1AE"/>
      <stop offset=".8" stop-color="#6CAEBA"/>
      <stop offset=".92" stop-color="#94BEC8"/>
      <stop offset="1" stop-color="#B1CAD2"/>
    </linearGradient>
    <linearGradient id="w" x1="31.012" x2="25.765" y1="29.001" y2="32.698" gradientUnits="userSpaceOnUse">
      <stop stop-color="#fff"/>
      <stop offset=".1" stop-color="#fff"/>
      <stop offset=".32" stop-color="#FBFCFC"/>
      <stop offset=".52" stop-color="#F0F5F6"/>
      <stop offset=".71" stop-color="#DDE8EB"/>
      <stop offset=".89" stop-color="#C4D6DC"/>
      <stop offset="1" stop-color="#B1CAD2"/>
    </linearGradient>
    <linearGradient id="x" x1="31.012" x2="25.765" y1="29.001" y2="32.698" gradientUnits="userSpaceOnUse">
      <stop stop-color="#9D9FA2"/>
      <stop offset=".1" stop-color="#9D9FA2"/>
      <stop offset=".3" stop-color="#A0A2A5"/>
      <stop offset=".48" stop-color="#ABADAF"/>
      <stop offset=".65" stop-color="#BEBFC1"/>
      <stop offset=".81" stop-color="#D8D9DA"/>
      <stop offset=".98" stop-color="#F9F9F9"/>
      <stop offset="1" stop-color="#fff"/>
    </linearGradient>
    <linearGradient id="z" x1="36.521" x2="25.167" y1="23.293" y2="31.292" gradientUnits="userSpaceOnUse">
      <stop stop-color="#108A9A"/>
      <stop offset=".1" stop-color="#108A9A"/>
      <stop offset=".33" stop-color="#138A9A"/>
      <stop offset=".54" stop-color="#1E8D9D"/>
      <stop offset=".73" stop-color="#3091A1"/>
      <stop offset=".92" stop-color="#4A98A7"/>
      <stop offset="1" stop-color="#579BAA"/>
    </linearGradient>
    <linearGradient id="B" x1="19.582" x2="12.203" y1="31.484" y2="41.84" gradientUnits="userSpaceOnUse">
      <stop stop-color="#68A042"/>
      <stop offset=".33" stop-color="#68A042"/>
      <stop offset=".51" stop-color="#6AA144"/>
      <stop offset=".63" stop-color="#72A54D"/>
      <stop offset=".73" stop-color="#7FAC5D"/>
      <stop offset=".83" stop-color="#91B773"/>
      <stop offset=".92" stop-color="#A9C48F"/>
      <stop offset="1" stop-color="#C5D4B0"/>
    </linearGradient>
    <linearGradient id="D" x1="26.561" x2="15.64" y1="40.059" y2="32.099" gradientUnits="userSpaceOnUse">
      <stop stop-color="#68A042"/>
      <stop offset=".1" stop-color="#68A042"/>
      <stop offset=".26" stop-color="#6BA243"/>
      <stop offset=".41" stop-color="#76A846"/>
      <stop offset=".55" stop-color="#89B24B"/>
      <stop offset=".69" stop-color="#A2C153"/>
      <stop offset=".82" stop-color="#C4D35C"/>
      <stop offset=".95" stop-color="#ECEA68"/>
      <stop offset="1" stop-color="#FFF56E"/>
    </linearGradient>
    <linearGradient id="G" x1="19.259" x2="14.356" y1="37.329" y2="33.755" gradientUnits="userSpaceOnUse">
      <stop stop-color="#fff"/>
      <stop offset=".1" stop-color="#fff"/>
      <stop offset=".32" stop-color="#FCFDFB"/>
      <stop offset=".52" stop-color="#F4F7F0"/>
      <stop offset=".7" stop-color="#E6ECDD"/>
      <stop offset=".89" stop-color="#D3DEC4"/>
      <stop offset="1" stop-color="#C5D4B0"/>
    </linearGradient>
    <linearGradient id="H" x1="19.259" x2="14.356" y1="37.329" y2="33.755" gradientUnits="userSpaceOnUse">
      <stop stop-color="#9D9FA2"/>
      <stop offset=".1" stop-color="#9D9FA2"/>
      <stop offset=".3" stop-color="#A0A2A5"/>
      <stop offset=".48" stop-color="#ABADAF"/>
      <stop offset=".65" stop-color="#BEBFC1"/>
      <stop offset=".81" stop-color="#D8D9DA"/>
      <stop offset=".98" stop-color="#F9F9F9"/>
      <stop offset="1" stop-color="#fff"/>
    </linearGradient>
    <linearGradient id="J" x1="26.529" x2="15.307" y1="41.007" y2="32.828" gradientUnits="userSpaceOnUse">
      <stop stop-color="#68A042"/>
      <stop offset=".1" stop-color="#68A042"/>
      <stop offset=".45" stop-color="#6BA145"/>
      <stop offset=".76" stop-color="#76A650"/>
      <stop offset="1" stop-color="#84AD5F"/>
    </linearGradient>
    <linearGradient id="L" x1="13.293" x2="1.468" y1="28.064" y2="23.188" gradientUnits="userSpaceOnUse">
      <stop stop-color="#FBB516"/>
      <stop offset=".23" stop-color="#FBB516"/>
      <stop offset=".41" stop-color="#FBB518"/>
      <stop offset=".53" stop-color="#FBB821"/>
      <stop offset=".64" stop-color="#FBBC31"/>
      <stop offset=".74" stop-color="#FCC347"/>
      <stop offset=".83" stop-color="#FDCB63"/>
      <stop offset=".92" stop-color="#FDD585"/>
      <stop offset="1" stop-color="#FFE1AE"/>
    </linearGradient>
    <linearGradient id="N" x1="6.433" x2="11.459" y1="37.45" y2="24.98" gradientUnits="userSpaceOnUse">
      <stop stop-color="#FBB516"/>
      <stop offset=".1" stop-color="#FBB516"/>
      <stop offset=".27" stop-color="#FBB619"/>
      <stop offset=".43" stop-color="#FBBC24"/>
      <stop offset=".58" stop-color="#FCC537"/>
      <stop offset=".72" stop-color="#FCD250"/>
      <stop offset=".87" stop-color="#FDE371"/>
      <stop offset="1" stop-color="#FFF799"/>
    </linearGradient>
    <linearGradient id="Q" x1="7.545" x2="9.914" y1="29.323" y2="23.446" gradientUnits="userSpaceOnUse">
      <stop stop-color="#fff"/>
      <stop offset=".1" stop-color="#fff"/>
      <stop offset=".32" stop-color="#FFFDFB"/>
      <stop offset=".51" stop-color="#FFF9F0"/>
      <stop offset=".7" stop-color="#FFF2DD"/>
      <stop offset=".88" stop-color="#FFE9C4"/>
      <stop offset="1" stop-color="#FFE1AE"/>
    </linearGradient>
    <linearGradient id="R" x1="7.545" x2="9.914" y1="29.323" y2="23.446" gradientUnits="userSpaceOnUse">
      <stop stop-color="#9D9FA2"/>
      <stop offset=".1" stop-color="#9D9FA2"/>
      <stop offset=".3" stop-color="#A0A2A5"/>
      <stop offset=".48" stop-color="#ABADAF"/>
      <stop offset=".65" stop-color="#BEBFC1"/>
      <stop offset=".81" stop-color="#D8D9DA"/>
      <stop offset=".98" stop-color="#F9F9F9"/>
      <stop offset="1" stop-color="#fff"/>
    </linearGradient>
    <linearGradient id="T" x1="5.968" x2="11.13" y1="36.831" y2="24.027" gradientUnits="userSpaceOnUse">
      <stop stop-color="#FBB516"/>
      <stop offset=".1" stop-color="#FBB516"/>
      <stop offset=".36" stop-color="#FBB519"/>
      <stop offset=".59" stop-color="#FBB824"/>
      <stop offset=".81" stop-color="#FCBC36"/>
      <stop offset="1" stop-color="#FDC24E"/>
    </linearGradient>
    <linearGradient id="U" x1="131.992" x2="185.769" y1="26" y2="26" gradientUnits="userSpaceOnUse">
      <stop stop-color="#E12329"/>
      <stop offset=".1" stop-color="#E12329"/>
      <stop offset=".27" stop-color="#E1262B"/>
      <stop offset=".42" stop-color="#E23134"/>
      <stop offset=".56" stop-color="#E54443"/>
      <stop offset=".7" stop-color="#E85D58"/>
      <stop offset=".83" stop-color="#EC7F73"/>
      <stop offset=".97" stop-color="#F1A793"/>
      <stop offset="1" stop-color="#F3B39D"/>
    </linearGradient>
    <linearGradient id="V" x1="131.992" x2="185.769" y1="26" y2="26" gradientUnits="userSpaceOnUse">
      <stop stop-color="#E12329"/>
      <stop offset=".1" stop-color="#E12329"/>
      <stop offset=".27" stop-color="#E1262B"/>
      <stop offset=".42" stop-color="#E23134"/>
      <stop offset=".56" stop-color="#E54443"/>
      <stop offset=".7" stop-color="#E85D58"/>
      <stop offset=".83" stop-color="#EC7F73"/>
      <stop offset=".97" stop-color="#F1A793"/>
      <stop offset="1" stop-color="#F3B39D"/>
    </linearGradient>
    <linearGradient id="W" x1="140.225" x2="198.792" y1="26" y2="26" gradientUnits="userSpaceOnUse">
      <stop stop-color="#E12329"/>
      <stop offset=".1" stop-color="#E12329"/>
      <stop offset=".27" stop-color="#E1262B"/>
      <stop offset=".42" stop-color="#E23134"/>
      <stop offset=".56" stop-color="#E54443"/>
      <stop offset=".7" stop-color="#E85D58"/>
      <stop offset=".83" stop-color="#EC7F73"/>
      <stop offset=".97" stop-color="#F1A793"/>
      <stop offset="1" stop-color="#F3B39D"/>
    </linearGradient>
    <linearGradient id="X" x1="137.695" x2="198.963" y1="44.202" y2="15.867" gradientUnits="userSpaceOnUse">
      <stop stop-color="#E12329"/>
      <stop offset=".1" stop-color="#E12329"/>
      <stop offset=".27" stop-color="#E1262B"/>
      <stop offset=".42" stop-color="#E23134"/>
      <stop offset=".56" stop-color="#E54443"/>
      <stop offset=".7" stop-color="#E85D58"/>
      <stop offset=".83" stop-color="#EC7F73"/>
      <stop offset=".97" stop-color="#F1A793"/>
      <stop offset="1" stop-color="#F3B39D"/>
    </linearGradient>
  </defs>
</svg>