<svg width="115" height="30" viewBox="0 0 115 30" fill="none" xmlns="http://www.w3.org/2000/svg">
<g clip-path="url(#clip0_62_152)">
<path d="M48.6627 24.66C48.3427 24.45 47.9227 24.34 47.2227 24.34C46.9027 24.34 46.6327 24.34 45.9427 24.39H45.8327V29.34H46.9527V27.58H47.3227C48.6027 27.58 49.3427 26.99 49.3427 25.98C49.3427 25.39 49.0727 24.91 48.6527 24.65L48.6627 24.66ZM47.2227 26.63H46.9527V25.25H47.3827C47.9727 25.25 48.2327 25.46 48.2327 25.94C48.2327 26.42 47.9627 26.63 47.2227 26.63Z" fill="#A3A3A3"/>
<path d="M52.4427 24.23C50.9527 24.23 49.9927 25.24 49.9927 26.89C49.9927 28.43 50.8927 29.39 52.3927 29.39C53.8927 29.39 54.8427 28.38 54.8427 26.78C54.8427 25.18 53.8827 24.22 52.4427 24.22V24.23ZM52.3927 28.49C51.5927 28.49 51.1727 27.85 51.1727 26.84C51.1727 25.83 51.6527 25.19 52.3927 25.19C53.1927 25.19 53.6127 25.83 53.6127 26.84C53.6127 27.9 53.1327 28.49 52.3927 28.49Z" fill="#A3A3A3"/>
<path d="M61.1727 24.8699L60.8027 26.5199L60.5327 27.6399C60.4227 27.9099 60.4227 28.1699 60.3727 28.6999C60.3227 28.2199 60.3227 28.0099 60.2127 27.6399L59.9427 26.5199L59.6227 24.9799L59.5127 24.3999H58.1827L57.9727 25.4099L57.7027 26.5299C57.7027 26.5799 57.6527 26.7999 57.5427 27.1199C57.4327 27.5499 57.3327 28.0199 57.3327 28.1799L57.2827 28.7099V28.1799C57.2827 27.9699 57.2327 27.6999 57.0727 27.1199C56.7527 25.7899 56.7527 25.5799 56.4827 24.3499L55.2027 24.2999L55.5227 25.6299C55.7327 26.4799 56.0527 27.7099 56.2727 28.5099L56.4827 29.2599H57.9227L58.2427 27.9799C58.6727 26.4399 58.6727 26.2199 58.7727 25.0999C58.8227 26.0599 58.8827 26.3199 59.2527 27.9799L59.5727 29.3099H61.0127C61.6527 27.3399 61.9727 26.1699 62.3927 24.3599H61.2727L61.1627 24.8899L61.1727 24.8699Z" fill="#A3A3A3"/>
<path d="M64.5827 27.22H66.5027V26.26H64.5827V25.3H66.5527V24.34H63.4627V29.24H66.6027V28.28H64.5827V27.22Z" fill="#A3A3A3"/>
<path d="M70.3827 27.27C70.9627 26.95 71.2327 26.58 71.2327 25.94C71.2327 25.35 70.9627 24.87 70.5427 24.61C70.1727 24.4 69.7927 24.34 69.0527 24.34C68.6827 24.34 68.3627 24.34 67.7727 24.39H67.6627V29.29H68.7827V27.43H69.2627L69.3127 27.54C69.5827 27.97 70.2727 28.92 70.5327 29.3H71.9127L71.8627 29.25C71.4327 28.77 70.6927 27.76 70.3727 27.28L70.3827 27.27ZM69.1027 26.58H68.7827V25.2H69.1527C69.7927 25.2 70.1127 25.41 70.1127 25.89C70.1127 26.37 69.7927 26.58 69.1027 26.58Z" fill="#A3A3A3"/>
<path d="M74.4327 25.35H75.9727L75.9227 29.35H77.0427V25.35H78.5827V24.34H74.4327V25.35Z" fill="#A3A3A3"/>
<path d="M81.5127 24.23C80.0227 24.23 79.0627 25.24 79.0627 26.89C79.0627 28.43 79.9627 29.39 81.4627 29.39C82.9627 29.39 83.9127 28.38 83.9127 26.78C83.9127 25.18 82.9527 24.22 81.5127 24.22V24.23ZM81.4627 28.49C80.6627 28.49 80.2427 27.85 80.2427 26.84C80.2427 25.83 80.7227 25.19 81.4627 25.19C82.2627 25.19 82.6827 25.83 82.6827 26.84C82.6827 27.9 82.2027 28.49 81.4627 28.49Z" fill="#A3A3A3"/>
<path d="M86.8827 26.9C86.8827 28.44 87.8927 29.4 89.5427 29.4C90.1327 29.4 90.5527 29.29 91.0827 29.08V28.12C90.6027 28.39 90.2327 28.49 89.7527 28.49C88.7427 28.49 88.1027 27.9 88.1027 26.95C88.1027 25.94 88.7427 25.35 89.8027 25.35C90.2827 25.35 90.6027 25.46 91.0827 25.72V24.6C90.5527 24.39 90.1727 24.28 89.6427 24.28C87.9927 24.28 86.8727 25.29 86.8727 26.89L86.8827 26.9Z" fill="#A3A3A3"/>
<path d="M94.8727 27.27C95.4627 26.95 95.7227 26.58 95.7227 25.94C95.7227 25.35 95.4527 24.87 95.0327 24.61C94.6627 24.4 94.2827 24.34 93.5427 24.34C93.1727 24.34 92.8527 24.34 92.2627 24.39H92.1527V29.29H93.2727V27.43H93.7527L93.8027 27.54C94.0727 27.97 94.7627 28.92 95.0227 29.3H96.4027L96.3527 29.25C95.9227 28.77 95.1827 27.76 94.8627 27.28L94.8727 27.27ZM93.5427 26.58H93.2227V25.2H93.5927C94.2327 25.2 94.5527 25.41 94.5527 25.89C94.5527 26.37 94.2327 26.58 93.5427 26.58Z" fill="#A3A3A3"/>
<path d="M98.0627 27.22H99.9827V26.26H98.0627V25.3H100.033V24.34H96.9527V29.24H100.093V28.28H98.0627V27.22Z" fill="#A3A3A3"/>
<path d="M102.753 24.39C101.953 26.2 101.213 28.06 100.783 29.34H101.953L102.383 28.01H104.083L104.513 29.34H105.683C105.043 27.37 104.563 26.04 103.873 24.39H102.753ZM102.803 27.05L103.073 26.25C103.183 25.88 103.233 25.77 103.283 25.66C103.283 25.5867 103.299 25.48 103.333 25.34C103.383 25.66 103.443 25.82 103.543 26.19L103.813 27.04H102.803V27.05Z" fill="#A3A3A3"/>
<path d="M105.463 25.35H107.013L106.953 29.35H108.073V25.35H109.613V24.34H105.463V25.35Z" fill="#A3A3A3"/>
<path d="M111.693 27.22H113.613V26.26H111.693V25.3H113.663V24.34H110.573V29.24H113.713V28.28H111.693V27.22Z" fill="#A3A3A3"/>
<path d="M111.903 13.8499C111.583 13.3699 111.153 12.9999 110.683 12.6299C112.383 11.3499 113.503 9.27993 113.553 6.92993C113.553 6.71993 113.343 6.55993 113.123 6.55993H110.883C110.673 6.55993 110.513 6.71993 110.513 6.92993C110.463 9.32993 108.543 11.1899 106.203 11.1899H104.873V6.97993C104.873 6.70993 104.663 6.54993 104.443 6.54993H102.263C102.053 6.54993 101.833 6.75993 101.833 6.97993V19.4899C101.833 19.6999 102.043 19.9199 102.263 19.9199H104.443C104.653 19.9199 104.873 19.7099 104.873 19.4899V14.1699H106.203C107.483 14.1699 108.603 14.6999 109.393 15.6099C109.553 15.7699 109.713 15.9299 109.823 16.0899C110.563 17.0499 111.043 18.2199 111.103 19.4999C111.103 19.7099 111.263 19.8699 111.473 19.8699H113.713C113.923 19.8199 114.083 19.6599 114.083 19.4399C114.033 17.3099 113.183 15.3899 111.903 13.8499Z" fill="#A3A3A3"/>
<path d="M89.9727 9.69998V19.44C89.9727 19.65 90.1827 19.87 90.4027 19.87H92.5827C92.7927 19.87 93.0127 19.66 93.0127 19.44V7.99998C93.0127 7.88998 92.9627 7.72998 92.8527 7.67998C90.9327 6.61998 88.7027 5.97998 86.3627 5.97998C84.0227 5.97998 81.7827 6.61998 79.8627 7.67998C79.7527 7.72998 79.7027 7.88998 79.7027 7.99998V19.5C79.7027 19.71 79.9127 19.93 80.1327 19.93H82.3127C82.5227 19.93 82.7427 19.72 82.7427 19.5V9.70998C83.8627 9.27998 85.1327 9.01998 86.4127 9.01998C87.6927 9.01998 88.9727 9.28998 90.0827 9.70998H89.9727V9.69998Z" fill="#A3A3A3"/>
<path d="M99.0227 19.4999V6.98994C99.0227 6.77994 98.8127 6.55994 98.5927 6.55994H96.4127C96.2027 6.55994 95.9827 6.76994 95.9827 6.98994V19.4499C95.9827 19.7199 96.1427 19.8799 96.4127 19.9299H98.5927C98.8027 19.9299 99.0227 19.7199 99.0227 19.4999Z" fill="#A3A3A3"/>
<path d="M53.0327 19.8699H56.6527C56.8127 19.8699 56.9727 19.7599 57.0227 19.5999L61.8127 7.13993V6.97993C61.8127 6.76993 61.6527 6.54993 61.4427 6.54993H58.5727C58.4127 6.54993 58.2527 6.65993 58.2027 6.81993L54.8527 16.8799L51.7627 6.81993C51.7127 6.65993 51.5527 6.54993 51.3927 6.54993H48.4627C48.2527 6.59993 48.0927 6.75993 48.0927 6.97993V7.08993L52.6727 19.5999C52.7227 19.7599 52.8827 19.8699 53.0427 19.8699H53.0327Z" fill="#A3A3A3"/>
<path d="M46.8527 19.4399V17.2599C46.8527 17.0499 46.6927 16.8899 46.4827 16.8899H37.5427C37.2727 16.1999 37.0627 15.4499 36.9527 14.7099H45.3127C45.5227 14.7099 45.6827 14.4999 45.6827 14.2799V12.0999C45.6827 11.8899 45.5227 11.7299 45.3127 11.7299H36.9027C37.0127 10.9799 37.2227 10.2399 37.4827 9.54995H45.8927C46.1027 9.54995 46.2627 9.38995 46.2627 9.17995V6.93995C46.2627 6.72995 46.1027 6.56995 45.8927 6.56995H35.8827C35.7227 6.56995 35.5627 6.61995 35.5127 6.77995C34.4427 8.69995 33.8127 10.8799 33.8127 13.2199C33.8127 15.5599 34.4027 17.7499 35.5127 19.6599C35.5627 19.7699 35.7227 19.8699 35.8827 19.8699H46.4227C46.6327 19.8699 46.7927 19.7099 46.8527 19.4399Z" fill="#A3A3A3"/>
<path d="M63.7827 18.75C65.7027 19.87 67.8827 20.45 70.2227 20.45C72.5627 20.45 74.7427 19.81 76.7727 18.69C76.8827 18.64 76.9827 18.53 76.9827 18.37V7.99998C76.9327 7.88998 76.8727 7.72998 76.7727 7.67998C74.8527 6.61998 72.6227 5.97998 70.2827 5.97998C67.9427 5.97998 65.7027 6.61998 63.7927 7.67998C63.6827 7.72998 63.5827 7.83998 63.5827 7.99998V18.43C63.5827 18.54 63.6927 18.7 63.7927 18.75H63.7827ZM66.5527 9.69998C67.6727 9.26998 68.9527 9.00998 70.2227 9.00998C71.4927 9.00998 72.7827 9.27998 73.8927 9.69998V16.78C72.7227 17.2 71.4927 17.47 70.2227 17.47C68.9527 17.47 67.6627 17.2 66.5527 16.78V9.69998Z" fill="#A3A3A3"/>
<path d="M13.2127 0.599976C6.2927 0.599976 0.702698 6.23998 0.702698 13.11C0.702698 19.98 6.2927 25.62 13.2127 25.67C18.6927 25.67 23.3827 22.1 25.0327 17.15C25.1427 16.88 24.9227 16.62 24.6627 16.62H10.9327C9.8127 15.87 9.0727 14.6 9.0727 13.16C9.0727 11.72 9.8227 10.45 10.9327 9.69998H18.5427C18.8627 9.69998 19.0727 9.32998 18.8627 9.05998C18.2227 8.14998 17.3727 7.40998 16.3627 6.92998C16.3127 6.92998 16.2027 6.87998 16.0427 6.87998H10.4027C10.2927 6.87998 10.1927 6.87998 10.0827 6.92998C7.7927 8.04998 6.2527 10.44 6.2527 13.16C6.2527 15.88 7.7927 18.22 10.0827 19.39C10.1927 19.39 10.2927 19.44 10.4027 19.44H20.5127C18.7527 21.46 16.1427 22.74 13.2227 22.74C7.9027 22.74 3.5827 18.43 3.5827 13.1C3.5827 7.76998 7.8927 3.46998 13.2127 3.46998C18.0527 3.46998 22.0527 7.03998 22.7427 11.78H11.8827C11.7227 11.78 11.5627 11.83 11.5127 11.99C11.3527 12.31 11.2427 12.74 11.2427 13.16C11.2427 13.58 11.3527 13.96 11.5127 14.33C11.5627 14.44 11.7227 14.54 11.8827 14.54H25.2927C25.4527 14.54 25.6627 14.38 25.6627 14.17C25.7127 13.8 25.7127 13.48 25.7127 13.1C25.7227 6.18998 20.1327 0.599976 13.2127 0.599976Z" fill="#A3A3A3"/>
</g>
<defs>
<clipPath id="clip0_62_152">
<rect width="113.39" height="28.8" fill="white" transform="translate(0.702698 0.599976)"/>
</clipPath>
</defs>
</svg>
