<?xml version="1.0" encoding="utf-8"?>
<!-- Generator: Adobe Illustrator 28.0.0, SVG Export Plug-In . SVG Version: 6.00 Build 0)  -->
<svg version="1.1" id="Layer_1" xmlns="http://www.w3.org/2000/svg" xmlns:xlink="http://www.w3.org/1999/xlink" x="0px" y="0px"
	 viewBox="0 0 1920 656.75" style="enable-background:new 0 0 1920 656.75;" xml:space="preserve">
<style type="text/css">
	.st0{fill:#E5E5E5;}
	.st1{fill:#0EA5E9;}
	.group {
		opacity: 0.5;
	}
	@media (prefers-color-scheme: dark) {
 		.group {
			opacity: 0.05;
		}
	}
</style>
<g>
	<g class="group">
		<rect x="168.2" y="168.15" class="st0" width="3.17" height="3.17"/>
		<rect x="485.55" y="168.15" class="st0" width="3.17" height="3.17"/>
		<rect x="802.91" y="168.15" class="st0" width="3.17" height="3.17"/>
		<rect x="1120.27" y="168.15" class="st0" width="3.17" height="3.17"/>
		<rect x="168.2" y="485.42" class="st0" width="3.17" height="3.17"/>
		<rect x="485.55" y="485.42" class="st0" width="3.17" height="3.17"/>
		<rect x="802.91" y="485.42" class="st0" width="3.17" height="3.17"/>
		<rect x="1120.27" y="485.42" class="st0" width="3.17" height="3.17"/>
		<rect x="1432.07" y="168.15" class="st0" width="3.17" height="3.17"/>
		<rect x="1432.07" y="485.42" class="st0" width="3.17" height="3.17"/>
		<path class="st0" d="M1910.48,317.27v-51.72v-3.17v-60.44v-3.17v-60.44v-3.17V74.72v-3.17V22.21v-9.52h9.52V9.52h-9.52V0h-3.18
			v9.52h-9.52h-49.34h-3.18h-60.45h-3.17h-60.46H1718h-60.46h-3.17h-50.93h-9.52V0h-3.18v9.52h-9.52h-49.34h-3.18h-60.45h-3.17
			h-60.46h-3.17h-60.46h-3.17h-46.17h-9.52V0h-3.18v9.52h-9.52h-49.34h-3.18h-60.45h-3.17h-60.46h-3.17h-60.46h-3.17h-51.73h-8.72
			h-0.8V0h-3.17v9.52h-9.52h-50.14h-3.18H838.3h-3.17h-60.46h-3.17h-60.46h-3.17h-50.94h-9.52V0h-3.17v9.52h-4.76h-4.76h-50.94
			h-3.17h-60.46h-3.17h-60.46h-3.17h-60.46h-3.17h-60.46h-3.17h-3.18h-57.28h-3.17H202h-3.17h-60.46h-3.17H74.74h-3.17H22.21h-9.52
			V0H9.52v9.52H0v3.17h9.52v9.52v49.34v3.17v60.44v3.17v60.44v3.17v60.44v3.17v51.72V326v0.79H0v3.17h9.52v9.52v50.13v3.17v60.44
			v3.17v60.44v3.17v60.44v3.17v50.92v9.52H0v3.17h9.52v9.52h3.17v-9.52h9.52h49.35h3.17h60.46h3.17h60.46H202h60.46h3.17h51.73h3.96
			h4.76h0.79v9.52h3.17v-9.52h9.52h50.14h3.17h60.46h3.17h60.46h3.17h60.46h3.17h50.94h3.17h6.35v9.52h3.17v-9.52h9.52h50.94h3.17
			h60.46h3.17h60.46h3.17h60.45h3.18h50.14h9.52v9.52h3.17v-9.52h0.8h8.72h51.73h3.17h60.46h3.17h60.46h3.17h60.45h3.18h49.34h9.52
			v9.52h3.18v-9.52h9.52h46.17h3.17h60.46h3.17h60.46h3.17h60.45h3.18h49.34h9.52v9.52h3.18v-9.52h9.52h50.93h3.17H1718h3.17h60.46
			h3.17h60.45h3.18h49.34h9.52v9.52h3.18v-9.52h9.52v-3.17h-9.52v-9.52v-50.92v-3.17v-60.44v-3.17v-60.44v-3.17v-60.44v-3.17v-50.13
			v-9.52h9.52v-3.17h-9.52V326V317.27z M1907.3,262.38h-58.86v-60.44h58.86V262.38z M1590.74,326h-58.86v-60.44h58.86v51.72V326z
			 M1528.7,326h-60.45v-60.44h60.45V326z M1465.08,326h-60.46v-60.44h60.46V326z M1401.44,326h-60.46v-60.44h60.46V326z
			 M1337.81,326h-55.69v-8.72v-51.72h55.69V326z M1278.94,317.27V326h-58.86v-60.44h58.86V317.27z M1216.9,326h-60.45v-60.44h60.45
			V326z M1153.28,326h-60.46v-60.44h60.46V326z M1089.64,326h-60.46v-60.44h60.46V326z M1026.01,326h-60.45v-60.44h60.45V326z
			 M962.38,317.27h-0.79V326h-59.66v-60.44h60.45V317.27z M898.75,326H838.3v-60.44h60.45V326z M835.12,326h-60.46v-60.44h60.46V326
			z M771.49,326h-60.46v-60.44h60.46V326z M707.86,326h-60.46v-8.72v-51.72h60.46V326z M644.23,317.27V326h-6.35h-54.11v-60.44
			h54.11h6.35V317.27z M580.6,326h-60.46v-60.44h60.46V326z M516.97,326h-60.46v-60.44h60.46V326z M453.34,326h-60.46v-60.44h60.46
			V326z M389.71,326h-59.66v-8.72h-0.79v-51.72h60.46V326z M326.08,326h-4.76h-55.69v-60.44h55.69h4.76V326z M317.36,329.17v0.79
			h8.73v59.65h-4.76h-55.69v-60.44H317.36z M329.26,339.48h0.79v-9.52h9.52v-0.79h50.14v60.44h-60.46V339.48z M392.89,329.17h60.46
			v60.44h-60.46V329.17z M456.52,329.17h60.46v60.44h-60.46V329.17z M520.15,329.17h60.46v60.44h-60.46V329.17z M583.78,329.17
			h50.94v0.79h9.52v9.52v50.13h-6.35h-54.11V329.17z M647.41,339.48v-9.52h9.52v-0.79h50.94v60.44h-60.46V339.48z M711.04,329.17
			h60.46v60.44h-60.46V329.17z M774.67,329.17h60.46v60.44h-60.46V329.17z M838.3,329.17h60.45v60.44H838.3V329.17z M901.93,329.17
			h50.14v0.79h9.52v9.52h0.79v50.13h-60.45V329.17z M965.56,329.96h8.72v-0.79h51.73v60.44h-60.45V329.96z M1029.18,329.17h60.46
			v60.44h-60.46V329.17z M1092.81,329.17h60.46v60.44h-60.46V329.17z M1156.45,329.17h60.45v60.44h-60.45V329.17z M1220.08,329.17
			h49.34v0.79h9.52v9.52v50.13h-58.86V329.17z M1282.12,339.48v-9.52h9.52v-0.79h46.17v60.44h-55.69V339.48z M1340.98,329.17h60.46
			v60.44h-60.46V329.17z M1404.61,329.17h60.46v60.44h-60.46V329.17z M1468.25,329.17h60.45v60.44h-60.45V329.17z M1531.88,329.17
			h49.34v0.79h9.52v9.52v50.13h-58.86V329.17z M1593.92,339.48v-9.52h9.52v-0.79h50.93v60.44h-60.45V339.48z M1593.92,326v-8.72
			v-51.72h60.45V326H1593.92z M1593.92,262.38v-60.44h60.45v60.44H1593.92z M1590.74,262.38h-58.86v-60.44h58.86V262.38z
			 M1528.7,262.38h-60.45v-60.44h60.45V262.38z M1465.08,262.38h-60.46v-60.44h60.46V262.38z M1401.44,262.38h-60.46v-60.44h60.46
			V262.38z M1337.81,262.38h-55.69v-60.44h55.69V262.38z M1278.94,262.38h-58.86v-60.44h58.86V262.38z M1216.9,262.38h-60.45v-60.44
			h60.45V262.38z M1153.28,262.38h-60.46v-60.44h60.46V262.38z M1089.64,262.38h-60.46v-60.44h60.46V262.38z M1026.01,262.38h-60.45
			v-60.44h60.45V262.38z M962.38,262.38h-60.45v-60.44h60.45V262.38z M898.75,262.38H838.3v-60.44h60.45V262.38z M835.12,262.38
			h-60.46v-60.44h60.46V262.38z M771.49,262.38h-60.46v-60.44h60.46V262.38z M707.86,262.38h-60.46v-60.44h60.46V262.38z
			 M644.23,262.38h-6.35h-54.11v-60.44h54.11h6.35V262.38z M580.6,262.38h-60.46v-60.44h60.46V262.38z M516.97,262.38h-60.46v-60.44
			h60.46V262.38z M453.34,262.38h-60.46v-60.44h60.46V262.38z M389.71,262.38h-60.46v-60.44h60.46V262.38z M326.08,262.38h-4.76
			h-55.69v-60.44h55.69h4.76V262.38z M262.45,262.38H202v-60.44h60.46V262.38z M262.45,265.56V326H202v-60.44H262.45z
			 M262.45,329.17v60.44H202v-60.44H262.45z M262.45,392.78v60.44H202v-60.44H262.45z M265.63,392.78h55.69h4.76v60.44h-4.76h-55.69
			V392.78z M329.26,392.78h60.46v60.44h-60.46V392.78z M392.89,392.78h60.46v60.44h-60.46V392.78z M456.52,392.78h60.46v60.44
			h-60.46V392.78z M520.15,392.78h60.46v60.44h-60.46V392.78z M583.78,392.78h54.11h6.35v60.44h-6.35h-54.11V392.78z M647.41,392.78
			h60.46v60.44h-60.46V392.78z M711.04,392.78h60.46v60.44h-60.46V392.78z M774.67,392.78h60.46v60.44h-60.46V392.78z M838.3,392.78
			h60.45v60.44H838.3V392.78z M901.93,392.78h60.45v60.44h-60.45V392.78z M965.56,392.78h60.45v60.44h-60.45V392.78z
			 M1029.18,392.78h60.46v60.44h-60.46V392.78z M1092.81,392.78h60.46v60.44h-60.46V392.78z M1156.45,392.78h60.45v60.44h-60.45
			V392.78z M1220.08,392.78h58.86v60.44h-58.86V392.78z M1282.12,392.78h55.69v60.44h-55.69V392.78z M1340.98,392.78h60.46v60.44
			h-60.46V392.78z M1404.61,392.78h60.46v60.44h-60.46V392.78z M1468.25,392.78h60.45v60.44h-60.45V392.78z M1531.88,392.78h58.86
			v60.44h-58.86V392.78z M1593.92,392.78h60.45v60.44h-60.45V392.78z M1657.54,392.78H1718v60.44h-60.46V392.78z M1657.54,389.61
			v-60.44H1718v60.44H1657.54z M1657.54,326v-60.44H1718V326H1657.54z M1657.54,262.38v-60.44H1718v60.44H1657.54z M1657.54,198.77
			v-60.44H1718v60.44H1657.54z M1654.37,198.77h-60.45v-60.44h60.45V198.77z M1590.74,198.77h-58.86v-60.44h58.86V198.77z
			 M1528.7,198.77h-60.45v-60.44h60.45V198.77z M1465.08,198.77h-60.46v-60.44h60.46V198.77z M1401.44,198.77h-60.46v-60.44h60.46
			V198.77z M1337.81,198.77h-55.69v-60.44h55.69V198.77z M1278.94,198.77h-58.86v-60.44h58.86V198.77z M1216.9,198.77h-60.45v-60.44
			h60.45V198.77z M1153.28,198.77h-60.46v-60.44h60.46V198.77z M1089.64,198.77h-60.46v-60.44h60.46V198.77z M1026.01,198.77h-60.45
			v-60.44h60.45V198.77z M962.38,198.77h-60.45v-60.44h60.45V198.77z M898.75,198.77H838.3v-60.44h60.45V198.77z M835.12,198.77
			h-60.46v-60.44h60.46V198.77z M771.49,198.77h-60.46v-60.44h60.46V198.77z M707.86,198.77h-60.46v-60.44h60.46V198.77z
			 M644.23,198.77h-6.35h-54.11v-60.44h54.11h6.35V198.77z M580.6,198.77h-60.46v-60.44h60.46V198.77z M516.97,198.77h-60.46v-60.44
			h60.46V198.77z M453.34,198.77h-60.46v-60.44h60.46V198.77z M389.71,198.77h-60.46v-60.44h60.46V198.77z M326.08,198.77h-4.76
			h-55.69v-60.44h55.69h4.76V198.77z M262.45,198.77H202v-60.44h60.46V198.77z M198.82,198.77h-60.46v-60.44h60.46V198.77z
			 M198.82,201.94v60.44h-60.46v-60.44H198.82z M198.82,265.56V326h-60.46v-60.44H198.82z M198.82,329.17v60.44h-60.46v-60.44
			H198.82z M198.82,392.78v60.44h-60.46v-60.44H198.82z M198.82,456.39v60.44h-60.46v-60.44H198.82z M202,456.39h60.46v60.44H202
			V456.39z M265.63,456.39h55.69h4.76v60.44h-4.76h-55.69V456.39z M329.26,456.39h60.46v60.44h-60.46V456.39z M392.89,456.39h60.46
			v60.44h-60.46V456.39z M456.52,456.39h60.46v60.44h-60.46V456.39z M520.15,456.39h60.46v60.44h-60.46V456.39z M583.78,456.39
			h54.11h6.35v60.44h-6.35h-54.11V456.39z M647.41,456.39h60.46v60.44h-60.46V456.39z M711.04,456.39h60.46v60.44h-60.46V456.39z
			 M774.67,456.39h60.46v60.44h-60.46V456.39z M838.3,456.39h60.45v60.44H838.3V456.39z M901.93,456.39h60.45v60.44h-60.45V456.39z
			 M965.56,456.39h60.45v60.44h-60.45V456.39z M1029.18,456.39h60.46v60.44h-60.46V456.39z M1092.81,456.39h60.46v60.44h-60.46
			V456.39z M1156.45,456.39h60.45v60.44h-60.45V456.39z M1220.08,456.39h58.86v60.44h-58.86V456.39z M1282.12,456.39h55.69v60.44
			h-55.69V456.39z M1340.98,456.39h60.46v60.44h-60.46V456.39z M1404.61,456.39h60.46v60.44h-60.46V456.39z M1468.25,456.39h60.45
			v60.44h-60.45V456.39z M1531.88,456.39h58.86v60.44h-58.86V456.39z M1593.92,456.39h60.45v60.44h-60.45V456.39z M1657.54,456.39
			H1718v60.44h-60.46V456.39z M1721.17,456.39h60.46v60.44h-60.46V456.39z M1721.17,453.22v-60.44h60.46v60.44H1721.17z
			 M1721.17,389.61v-60.44h60.46v60.44H1721.17z M1721.17,326v-60.44h60.46V326H1721.17z M1721.17,262.38v-60.44h60.46v60.44
			H1721.17z M1721.17,198.77v-60.44h60.46v60.44H1721.17z M1784.81,138.33h60.45v60.44h-60.45V138.33z M1784.81,135.16V74.72h60.45
			v60.44H1784.81z M1781.64,135.16h-60.46V74.72h60.46V135.16z M1718,135.16h-60.46V74.72H1718V135.16z M1654.37,135.16h-60.45
			V74.72h60.45V135.16z M1590.74,135.16h-58.86V74.72h58.86V135.16z M1528.7,135.16h-60.45V74.72h60.45V135.16z M1465.08,135.16
			h-60.46V74.72h60.46V135.16z M1401.44,135.16h-60.46V74.72h60.46V135.16z M1337.81,135.16h-55.69V74.72h55.69V135.16z
			 M1278.94,135.16h-58.86V74.72h58.86V135.16z M1216.9,135.16h-60.45V74.72h60.45V135.16z M1153.28,135.16h-60.46V74.72h60.46
			V135.16z M1089.64,135.16h-60.46V74.72h60.46V135.16z M1026.01,135.16h-60.45V74.72h60.45V135.16z M962.38,135.16h-60.45V74.72
			h60.45V135.16z M898.75,135.16H838.3V74.72h60.45V135.16z M835.12,135.16h-60.46V74.72h60.46V135.16z M771.49,135.16h-60.46V74.72
			h60.46V135.16z M707.86,135.16h-60.46V74.72h60.46V135.16z M644.23,135.16h-6.35h-54.11V74.72h54.11h6.35V135.16z M580.6,135.16
			h-60.46V74.72h60.46V135.16z M516.97,135.16h-60.46V74.72h60.46V135.16z M453.34,135.16h-60.46V74.72h60.46V135.16z
			 M389.71,135.16h-60.46V74.72h60.46V135.16z M326.08,135.16h-4.76h-55.69V74.72h55.69h4.76V135.16z M262.45,135.16H202V74.72
			h60.46V135.16z M198.82,135.16h-60.46V74.72h60.46V135.16z M135.19,135.16H74.74V74.72h60.46V135.16z M135.19,138.33v60.44H74.74
			v-60.44H135.19z M135.19,201.94v60.44H74.74v-60.44H135.19z M135.19,265.56V326H74.74v-60.44H135.19z M135.19,329.17v60.44H74.74
			v-60.44H135.19z M135.19,392.78v60.44H74.74v-60.44H135.19z M135.19,456.39v60.44H74.74v-60.44H135.19z M135.19,520.01v60.44
			H74.74v-60.44H135.19z M138.37,520.01h60.46v60.44h-60.46V520.01z M202,520.01h60.46v60.44H202V520.01z M265.63,520.01h55.69h4.76
			v60.44h-4.76h-55.69V520.01z M329.26,520.01h60.46v60.44h-60.46V520.01z M392.89,520.01h60.46v60.44h-60.46V520.01z
			 M456.52,520.01h60.46v60.44h-60.46V520.01z M520.15,520.01h60.46v60.44h-60.46V520.01z M583.78,520.01h54.11h6.35v60.44h-6.35
			h-54.11V520.01z M647.41,520.01h60.46v60.44h-60.46V520.01z M711.04,520.01h60.46v60.44h-60.46V520.01z M774.67,520.01h60.46
			v60.44h-60.46V520.01z M838.3,520.01h60.45v60.44H838.3V520.01z M901.93,520.01h60.45v60.44h-60.45V520.01z M965.56,520.01h60.45
			v60.44h-60.45V520.01z M1029.18,520.01h60.46v60.44h-60.46V520.01z M1092.81,520.01h60.46v60.44h-60.46V520.01z M1156.45,520.01
			h60.45v60.44h-60.45V520.01z M1220.08,520.01h58.86v60.44h-58.86V520.01z M1282.12,520.01h55.69v60.44h-55.69V520.01z
			 M1340.98,520.01h60.46v60.44h-60.46V520.01z M1404.61,520.01h60.46v60.44h-60.46V520.01z M1468.25,520.01h60.45v60.44h-60.45
			V520.01z M1531.88,520.01h58.86v60.44h-58.86V520.01z M1593.92,520.01h60.45v60.44h-60.45V520.01z M1657.54,520.01H1718v60.44
			h-60.46V520.01z M1721.17,520.01h60.46v60.44h-60.46V520.01z M1784.81,520.01h60.45v60.44h-60.45V520.01z M1784.81,516.83v-60.44
			h60.45v60.44H1784.81z M1784.81,453.22v-60.44h60.45v60.44H1784.81z M1784.81,389.61v-60.44h60.45v60.44H1784.81z M1784.81,326
			v-60.44h60.45V326H1784.81z M1784.81,262.38v-60.44h60.45v60.44H1784.81z M1907.3,198.77h-58.86v-60.44h58.86V198.77z
			 M1907.3,135.16h-58.86V74.72h58.86V135.16z M1897.78,12.69h9.52v9.52v49.34h-58.86V12.69H1897.78z M1845.26,12.69v58.85h-60.45
			V12.69H1845.26z M1781.64,12.69v58.85h-60.46V12.69H1781.64z M1718,12.69v58.85h-60.46V12.69H1718z M1654.37,12.69v58.85h-60.45
			V22.21v-9.52h9.52H1654.37z M1581.22,12.69h9.52v9.52v49.34h-58.86V12.69H1581.22z M1528.7,12.69v58.85h-60.45V12.69H1528.7z
			 M1465.08,12.69v58.85h-60.46V12.69H1465.08z M1401.44,12.69v58.85h-60.46V12.69H1401.44z M1337.81,12.69v58.85h-55.69V22.21
			v-9.52h9.52H1337.81z M1269.42,12.69h9.52v9.52v49.34h-58.86V12.69H1269.42z M1216.9,12.69v58.85h-60.45V12.69H1216.9z
			 M1153.28,12.69v58.85h-60.46V12.69H1153.28z M1089.64,12.69v58.85h-60.46V12.69H1089.64z M974.28,12.69h51.73v58.85h-60.45V12.69
			H974.28z M952.07,12.69h9.52v9.52h0.79v49.34h-60.45V12.69H952.07z M898.75,12.69v58.85H838.3V12.69H898.75z M835.12,12.69v58.85
			h-60.46V12.69H835.12z M771.49,12.69v58.85h-60.46V12.69H771.49z M656.93,12.69h50.94v58.85h-60.46V22.21v-9.52H656.93z
			 M634.71,12.69h4.76h4.76v9.52v49.34h-6.35h-54.11V12.69H634.71z M580.6,12.69v58.85h-60.46V12.69H580.6z M516.97,12.69v58.85
			h-60.46V12.69H516.97z M453.34,12.69v58.85h-60.46V12.69H453.34z M389.71,12.69v58.85h-60.46V12.69H389.71z M322.91,12.69h3.18
			v58.85h-4.76h-55.69V12.69H322.91z M262.45,12.69v58.85H202V12.69H262.45z M198.82,12.69v58.85h-60.46V12.69H198.82z
			 M135.19,12.69v58.85H74.74V12.69H135.19z M12.69,22.21v-9.52h9.52h49.35v58.85H12.69V22.21z M12.69,74.72h58.87v60.44H12.69
			V74.72z M12.69,138.33h58.87v60.44H12.69V138.33z M12.69,201.94h58.87v60.44H12.69V201.94z M12.69,317.27v-51.72h58.87V326H12.69
			V317.27z M12.69,339.48v-9.52h9.52v-0.79h49.35v60.44H12.69V339.48z M12.69,392.78h58.87v60.44H12.69V392.78z M12.69,456.39h58.87
			v60.44H12.69V456.39z M12.69,520.01h58.87v60.44H12.69V520.01z M22.21,644.06h-9.52v-9.52v-50.92h58.87v60.44H22.21z
			 M74.74,644.06v-60.44h60.46v60.44H74.74z M138.37,644.06v-60.44h60.46v60.44H138.37z M202,644.06v-60.44h60.46v60.44H202z
			 M321.32,644.06h-3.96h-51.73v-60.44h55.69h4.76v60.44H321.32z M339.57,644.06h-9.52v-9.52h-0.79v-50.92h60.46v60.44H339.57z
			 M392.89,644.06v-60.44h60.46v60.44H392.89z M456.52,644.06v-60.44h60.46v60.44H456.52z M520.15,644.06v-60.44h60.46v60.44H520.15
			z M637.88,644.06h-3.17h-50.94v-60.44h54.11h6.35v50.92v9.52H637.88z M656.93,644.06h-9.52v-9.52v-50.92h60.46v60.44H656.93z
			 M711.04,644.06v-60.44h60.46v60.44H711.04z M774.67,644.06v-60.44h60.46v60.44H774.67z M838.3,644.06v-60.44h60.45v60.44H838.3z
			 M952.07,644.06h-50.14v-60.44h60.45v50.92h-0.79v9.52H952.07z M974.28,644.06h-8.72v-60.44h60.45v60.44H974.28z M1029.18,644.06
			v-60.44h60.46v60.44H1029.18z M1092.81,644.06v-60.44h60.46v60.44H1092.81z M1156.45,644.06v-60.44h60.45v60.44H1156.45z
			 M1220.08,644.06v-60.44h58.86v50.92v9.52h-9.52H1220.08z M1291.64,644.06h-9.52v-9.52v-50.92h55.69v60.44H1291.64z
			 M1340.98,644.06v-60.44h60.46v60.44H1340.98z M1404.61,644.06v-60.44h60.46v60.44H1404.61z M1468.25,644.06v-60.44h60.45v60.44
			H1468.25z M1531.88,644.06v-60.44h58.86v50.92v9.52h-9.52H1531.88z M1603.44,644.06h-9.52v-9.52v-50.92h60.45v60.44H1603.44z
			 M1657.54,644.06v-60.44H1718v60.44H1657.54z M1721.17,644.06v-60.44h60.46v60.44H1721.17z M1784.81,644.06v-60.44h60.45v60.44
			H1784.81z M1907.3,634.54v9.52h-9.52h-49.34v-60.44h58.86V634.54z M1907.3,580.45h-58.86v-60.44h58.86V580.45z M1907.3,516.83
			h-58.86v-60.44h58.86V516.83z M1907.3,453.22h-58.86v-60.44h58.86V453.22z M1907.3,339.48v50.13h-58.86v-60.44h49.34v0.79h9.52
			V339.48z M1848.44,326v-60.44h58.86v51.72V326H1848.44z"/>
		<rect x="1748.63" y="168.15" class="st0" width="3.17" height="3.17"/>
		<rect x="1748.63" y="485.42" class="st0" width="3.17" height="3.17"/>
	</g>
	<g>
		<path class="st1" d="M329.02,0h-3.17v22.21h3.17V0z"/>
		<path class="st1" d="M338.54,9.52h-22.21v3.17h22.21V9.52z"/>
	</g>
</g>
</svg>
