<svg width="52" height="28" viewBox="0 0 52 28" fill="none" xmlns="http://www.w3.org/2000/svg">
<g clip-path="url(#clip0_62_108)">
<path d="M6.19799 2.63981C6.4251 2.11076 6.65581 1.57457 6.58371 1.53525C6.58011 1.53346 6.5747 1.53168 6.56749 1.53346C6.43591 1.56206 5.91321 2.37171 5.53289 2.89539C5.66087 2.34312 5.81768 1.71934 5.74017 1.69253H5.73296C5.63743 1.69968 5.33643 2.40031 5.08769 2.93114C5.08409 2.27698 5.18142 1.0491 5.06246 1.03302C4.95071 1.01693 4.73621 2.08396 4.56318 2.73632C4.48027 2.1626 4.39555 1.48521 4.31084 1.48878C4.22252 1.49236 4.19548 2.23588 4.15583 2.82748C3.9143 2.20728 3.57544 1.08485 3.46189 1.11166C3.35014 1.13847 3.55021 2.26626 3.62051 2.93114C3.33572 2.43248 3.00227 1.80871 2.91034 1.80871H2.90494C2.82563 1.84446 3.05634 2.51291 3.23298 3.07055C2.79138 2.58083 2.12268 1.73543 2.00552 1.75688H1.99831C1.90098 1.82658 2.52642 2.84535 2.82563 3.43516C2.38223 3.0777 1.83249 2.60227 1.72254 2.60942L1.70992 2.61479C1.65044 2.67377 2.09023 3.19566 2.45252 3.64785C1.89016 3.36009 1.05564 2.87395 0.893416 2.88288C0.880799 2.88288 0.873589 2.88646 0.868182 2.89182C0.801491 2.99012 1.77661 3.73186 2.26507 4.17332C1.74417 4.0071 1.07186 3.76581 0.916847 3.7819C0.900625 3.7819 0.889811 3.78905 0.884404 3.79799C0.850157 3.87484 1.43955 4.19834 1.94063 4.4861C1.39089 4.42712 0.61584 4.30558 0.332857 4.31988C0.269772 4.32345 0.230118 4.33418 0.226513 4.35384C0.199477 4.47001 1.38007 4.81139 1.99471 5.04732C1.74236 5.0634 1.45217 5.07412 1.19442 5.09021C0.835738 5.11166 0.547348 5.13847 0.545545 5.19387C0.54194 5.27788 1.21966 5.36903 1.79463 5.4584C1.13855 5.62998 0.145404 5.83909 0.159823 5.94633C0.176045 6.06251 1.37827 5.96063 2.04157 5.95706C1.48822 6.21085 0.707765 6.52721 0.736604 6.61657C0.76364 6.69879 1.45217 6.53078 2.02715 6.40746C1.47921 6.80603 0.621247 7.36188 0.673518 7.45661C0.731196 7.5567 1.7712 7.05446 2.39304 6.80603C1.96947 7.23856 1.37286 7.80156 1.43054 7.87305C1.48642 7.94097 2.09925 7.5138 2.59852 7.18851C2.23443 7.75688 1.61619 8.60764 1.70091 8.67913C1.76039 8.72739 2.12268 8.37707 2.5048 8.00174C3.42584 5.12774 5.29858 3.35652 6.19439 2.63981H6.19799Z" fill="#A3A3A3"/>
<path d="M19.4838 7.9375H16.654V10.8669H19.4838V7.9375Z" fill="#A3A3A3"/>
<path d="M19.4586 2.88647H17.2091V5.11704H19.4586V2.88647Z" fill="#A3A3A3"/>
<path d="M22.1803 3.81592H21.0051V4.98124H22.1803V3.81592Z" fill="#A3A3A3"/>
<path d="M23.8223 4.1322H23.0887V4.85785H23.8223V4.1322Z" fill="#A3A3A3"/>
<path d="M24.4639 5.52454H22.921V7.05447H24.4639V5.52454Z" fill="#A3A3A3"/>
<path d="M24.062 7.7301H21.4971V10.2752H24.062V7.7301Z" fill="#A3A3A3"/>
<path d="M21.3926 5.76587H20.2823V6.86685H21.3926V5.76587Z" fill="#A3A3A3"/>
<path d="M25.8518 7.36377H24.9885V8.22168H25.8518V7.36377Z" fill="#A3A3A3"/>
<path d="M21.1781 2.2627H20.3508V3.08307H21.1781V2.2627Z" fill="#A3A3A3"/>
<path d="M19.3468 6.11438H18.2365V7.21536H19.3468V6.11438Z" fill="#A3A3A3"/>
<path d="M10.8501 6.99191C14.5289 7.56743 17.9265 7.05626 17.9265 7.05626C15.0209 7.15813 12.7535 6.84535 11.043 6.4021C10.9907 6.53079 10.9132 6.7399 10.8501 6.99191Z" fill="#A3A3A3"/>
<path d="M4.77228 4.57904C6.07364 5.6264 7.6724 6.28056 9.3 6.6827C9.06208 7.27073 8.87283 7.89628 8.75026 8.55044C8.19331 11.521 8.35372 14.5433 9.24954 16.3449C8.88184 14.4218 8.91608 11.8695 9.40094 9.3583C10.1616 5.42801 12.393 2.8239 14.4153 1.55491C12.8454 1.87662 10.8249 3.54776 9.62264 5.96599C8.03649 5.39584 7.1515 4.77028 6.83967 4.52184C8.59886 2.25732 11.4755 0.362773 14.628 0.0035233C10.9222 -0.0912041 7.09382 1.60495 4.77228 4.57904Z" fill="#A3A3A3"/>
<path d="M47.2305 20.6577C48.9969 19.8159 49.6854 18.2091 49.6854 16.7721V16.7239C49.6854 14.5201 48.0903 12.2967 44.5251 12.2967H38.6689V22.7775C38.55 21.4638 37.9101 20.336 36.8304 19.571L36.816 19.5621C37.5226 18.7364 37.82 17.7176 37.82 16.7703V16.7221C37.82 14.5183 36.2248 12.2949 32.6596 12.2949H23.1283L17.748 18.2109V12.2949H14.3955V18.1966C10.2066 17.9714 6.57291 16.6434 4.83896 14.8633C3.9017 11.471 4.58121 8.29491 5.8303 6.07328C5.24812 5.78374 4.7939 5.44058 4.34329 5.09741C2.14432 8.22699 1.71714 11.7998 2.69406 15.0313C4.53976 17.0635 8.91247 18.597 13.7358 18.597C13.9575 18.597 14.1774 18.597 14.3955 18.5916V23.3441C11.3169 22.8347 8.21133 21.0635 6.21603 17.9464C5.09671 17.6747 4.00624 16.9777 3.18252 16.361C5.21928 20.7632 9.6731 23.4638 14.0963 23.4763C14.1846 23.4763 14.2873 23.4763 14.3955 23.4799V27.9964H17.748V21.7015L23.8817 27.9964H32.9137C34.4152 27.9964 35.6138 27.7069 36.5781 27.1099C37.7948 26.3575 38.5392 25.1349 38.6671 23.7122V27.9946H42.007V15.0045H44.0222C45.5813 15.0045 46.4464 15.6229 46.4464 16.7167V16.765C46.4464 18.0018 45.4155 18.5255 43.7825 18.5255H42.8632V21.2636H44.0492L47.6901 27.9946H51.1616L47.2323 20.6524L47.2305 20.6577ZM26.8864 26.5541L21.7224 21.2261C23.35 20.0822 25.248 18.1912 26.1943 15.2279C26.1943 15.2279 25.4066 16.0483 24.8496 16.4397C24.8496 16.4397 23.9718 18.9723 21.544 21.042L20.2642 19.7212L26.8864 12.4593V26.5523V26.5541ZM35.2749 23.2779C35.2749 24.6899 34.0979 25.2869 32.236 25.2869H30.2191V15.0098H32.1603C33.7194 15.0098 34.5846 15.6282 34.5846 16.7221V16.7703C34.5846 18.0072 33.5536 18.5308 31.9206 18.5308H31.0753V21.269H32.5118C34.2908 21.269 35.2767 21.975 35.2767 23.2243V23.2779H35.2749Z" fill="#A3A3A3"/>
</g>
<defs>
<clipPath id="clip0_62_108">
<rect width="51" height="28" fill="white" transform="translate(0.159851)"/>
</clipPath>
</defs>
</svg>
