<svg width="77" height="36" viewBox="0 0 77 36" fill="none" xmlns="http://www.w3.org/2000/svg">
<g clip-path="url(#clip0_62_124)">
<path d="M8.80636 16.5012H7.10745V18.2382H8.80636V16.5012Z" fill="#A3A3A3"/>
<path d="M3.58183 15.5636H25.8706L27.5696 13.8266H14.497V8.80017H12.798V13.8266H3.58183C2.92782 13.8266 2.40161 13.281 2.40161 12.62V8.80017H0.702698V12.62C0.702698 14.2417 1.99567 15.5636 3.58183 15.5636Z" fill="#A3A3A3"/>
<path d="M58.8942 7.09399H57.1953V8.83097H58.8942V7.09399Z" fill="#A3A3A3"/>
<path d="M58.8942 9.76095H57.1953V13.8267H50.798V11.7362C50.798 10.1145 49.5051 8.79254 47.9189 8.79254H38.8155V13.8267H32.313V7.09399H30.6141V15.5637H58.8867V9.76863L58.8942 9.76095ZM49.1067 13.8267H40.5144V10.5295H47.9189C48.5729 10.5295 49.0991 11.0752 49.0991 11.7362V13.8267H49.1067Z" fill="#A3A3A3"/>
<path d="M29.2609 13.1042L23.3749 7.09399H20.9769L29.2609 15.556V13.1042Z" fill="#A3A3A3"/>
<path d="M68.4186 7.09399L75.0113 13.8267H61.9387V7.09399H60.2398V15.5637H73.3124L75.0113 13.8267L76.7027 15.556V13.1042L70.8166 7.09399H68.4186Z" fill="#A3A3A3"/>
<path d="M76.7027 11.2597V7.09399L74.6655 9.17683L76.7027 11.2597Z" fill="#A3A3A3"/>
<path d="M58.2703 3.70449C58.6912 3.70449 59.022 3.53541 59.24 3.18955C59.3603 3.53541 59.6008 3.70449 59.9767 3.70449H62.9009V3.17418H61.7959C61.5704 3.17418 61.3749 3.08963 61.2095 2.91286C61.0441 2.73609 60.9615 2.52857 60.9615 2.29032C60.9615 2.05206 61.0442 1.8676 61.202 1.7062C61.3674 1.55249 61.5628 1.46794 61.7884 1.46794C62.0364 1.46794 62.2544 1.56017 62.4424 1.73694L62.7355 1.33729C62.4724 1.07597 62.1492 0.945312 61.7658 0.945312C61.3824 0.945312 61.0817 1.06828 60.8337 1.30654C60.5856 1.5448 60.4578 1.85223 60.4578 2.22883C60.4578 2.42097 60.5029 2.59775 60.5856 2.76683C60.6683 2.93592 60.781 3.07426 60.9314 3.17418H59.9692C59.691 3.17418 59.5482 2.98972 59.5482 2.61312V0.945312H58.2627C57.8944 0.945312 57.5787 1.07597 57.3156 1.34497C57.0525 1.61397 56.9171 1.93677 56.9171 2.32106C56.9171 2.70535 57.0449 3.02815 57.308 3.29715C57.5712 3.56615 57.8869 3.69681 58.2627 3.69681L58.2703 3.70449ZM57.6839 1.72157C57.8493 1.55249 58.0447 1.46794 58.2703 1.46794H59.037V2.32106C59.037 2.58237 58.9619 2.7822 58.819 2.93592C58.6762 3.08963 58.4883 3.16649 58.2703 3.16649C58.0372 3.16649 57.8418 3.08195 57.6839 2.92055C57.5185 2.75146 57.4434 2.55163 57.4434 2.32106C57.4434 2.09049 57.5261 1.88297 57.6839 1.71389V1.72157Z" fill="#A3A3A3"/>
<path d="M64.8554 3.70449H65.6222C65.5996 3.90432 65.517 4.07341 65.3741 4.21944C65.2313 4.36547 65.0358 4.43464 64.8028 4.43464C64.6525 4.43464 64.5096 4.4039 64.3668 4.33472C64.224 4.27324 64.1112 4.18101 64.0285 4.06572L63.6677 4.41158C63.7955 4.58067 63.9609 4.71132 64.1638 4.81124C64.3743 4.91115 64.5848 4.95727 64.8178 4.95727C65.1937 4.95727 65.5019 4.8343 65.7425 4.59604C65.983 4.35778 66.1183 4.05804 66.1484 3.69681H68.2082C68.4186 3.69681 68.6141 3.65069 68.7945 3.55078C68.9749 3.45086 69.1328 3.32021 69.2455 3.15881C69.2831 3.32789 69.3658 3.45855 69.4861 3.55846C69.6064 3.65069 69.7567 3.70449 69.9447 3.70449H75.3646C75.7405 3.70449 76.0562 3.57384 76.3193 3.30483C76.5824 3.03583 76.7102 2.71303 76.7102 2.32875C76.7102 1.94446 76.5749 1.62166 76.3118 1.35266C76.0487 1.08366 75.733 0.952998 75.3571 0.952998C74.9812 0.952998 74.6655 1.08366 74.4024 1.35266C74.1393 1.62166 74.004 1.94446 74.004 2.32875C74.004 2.50552 74.0416 2.66692 74.1243 2.82063C74.207 2.96666 74.3122 3.08963 74.44 3.18186H73.3425V2.77452C73.335 2.2442 73.1621 1.80612 72.8238 1.46026C72.4855 1.12208 72.0645 0.952998 71.5458 0.952998H70.4258V1.47563H71.5233C71.9142 1.47563 72.2224 1.5986 72.463 1.83686C72.7035 2.07512 72.8238 2.39792 72.8238 2.80526V3.18955H69.9296C69.8093 3.18955 69.7116 3.15112 69.644 3.07426C69.5763 2.9974 69.5387 2.8898 69.5387 2.75915V2.33643C69.5387 1.95214 69.4034 1.62934 69.1403 1.36034C68.8772 1.09134 68.5615 0.960684 68.1856 0.960684C67.8097 0.960684 67.494 1.09134 67.2309 1.36034C66.9678 1.62934 66.8325 1.95214 66.8325 2.33643C66.8325 2.5132 66.8701 2.6746 66.9528 2.82832C67.0355 2.97435 67.1407 3.09732 67.2685 3.18955H66.1259V2.43635C66.1259 1.99826 65.9981 1.63703 65.7425 1.36034C65.4869 1.08366 65.1636 0.945312 64.7652 0.945312C64.3894 0.945312 64.0736 1.07597 63.8105 1.34497C63.5474 1.61397 63.4121 1.93677 63.4121 2.32106C63.4121 2.70535 63.5474 3.05889 63.818 3.32021C64.0887 3.58152 64.4269 3.71986 64.8404 3.71986L64.8554 3.70449ZM74.7632 1.72157C74.9286 1.55249 75.1241 1.46794 75.3496 1.46794C75.5751 1.46794 75.7781 1.55249 75.936 1.72157C76.1013 1.89066 76.1765 2.09049 76.1765 2.32875C76.1765 2.567 76.0938 2.76683 75.936 2.92823C75.7781 3.08963 75.5751 3.17418 75.3496 3.17418C75.1241 3.17418 74.9211 3.08963 74.7632 2.92823C74.6054 2.76683 74.5227 2.55932 74.5227 2.32875C74.5227 2.09817 74.6054 1.89066 74.7632 1.72157ZM67.6068 1.72157C67.7722 1.55249 67.9676 1.46794 68.1931 1.46794C68.4186 1.46794 68.6216 1.55249 68.7795 1.72157C68.9448 1.89066 69.02 2.09049 69.02 2.32875C69.02 2.567 68.9373 2.76683 68.7795 2.92823C68.6216 3.08963 68.4186 3.17418 68.1931 3.17418C67.9676 3.17418 67.7646 3.08963 67.6068 2.92823C67.4414 2.75915 67.3662 2.55932 67.3662 2.32875C67.3662 2.09817 67.4489 1.89066 67.6068 1.72157ZM64.1939 1.69851C64.3593 1.52943 64.5547 1.45257 64.7878 1.45257C65.0434 1.45257 65.2463 1.53711 65.3967 1.71389C65.5545 1.89066 65.6297 2.10586 65.6297 2.38255V3.17418H64.8554C64.5848 3.17418 64.3668 3.08963 64.2014 2.92823C64.0285 2.76683 63.9458 2.55932 63.9458 2.30569C63.9458 2.06743 64.0285 1.8676 64.1939 1.69851Z" fill="#A3A3A3"/>
<path d="M71.5834 4.48845C71.5834 4.6729 71.7262 4.81893 71.9066 4.81893C72.0871 4.81893 72.2299 4.6729 72.2299 4.48845C72.2299 4.30399 72.0871 4.15796 71.9066 4.15796C71.7262 4.15796 71.5834 4.30399 71.5834 4.48845Z" fill="#A3A3A3"/>
<path d="M58.7965 0.645602C58.9694 0.645602 59.1122 0.499573 59.1122 0.322801C59.1122 0.146029 58.9694 0 58.7965 0C58.6236 0 58.4807 0.146029 58.4807 0.322801C58.4807 0.499573 58.6236 0.645602 58.7965 0.645602Z" fill="#A3A3A3"/>
<path d="M57.8869 0.645602C58.0598 0.645602 58.2026 0.499573 58.2026 0.322801C58.2026 0.146029 58.0598 0 57.8869 0C57.714 0 57.5711 0.146029 57.5711 0.322801C57.5711 0.499573 57.714 0.645602 57.8869 0.645602Z" fill="#A3A3A3"/>
<path d="M46.6109 19.9675L43.7543 28.4295H45.551L47.7535 21.889L49.9636 28.4295H51.7528L48.9037 19.9675H46.6109Z" fill="#A3A3A3"/>
<path d="M58.6161 23.3339H54.3086V19.9675H52.6097V28.4295H54.3086V25.0632H58.6161V28.4295H60.315V19.9675H58.6161V23.3339Z" fill="#A3A3A3"/>
<path d="M40.9654 23.3339H38.2366C37.8006 23.3339 37.4398 22.965 37.4398 22.5192C37.4398 22.0734 37.8006 21.7045 38.2366 21.7045H42.7996V19.9675H38.2366C36.861 19.9675 35.7409 21.1127 35.7409 22.5192C35.7409 23.9257 36.861 25.0709 38.2366 25.0709H40.9654C41.4014 25.0709 41.7622 25.4398 41.7622 25.8855C41.7622 26.3313 41.4014 26.7002 40.9654 26.7002H36.4024V28.4372H40.9654C42.3411 28.4372 43.4612 27.292 43.4612 25.8855C43.4612 24.4791 42.3411 23.3339 40.9654 23.3339Z" fill="#A3A3A3"/>
<path d="M61.5703 28.4295H68.2683V26.6926H63.2693V25.0632H66.9076V23.3339H63.2693V21.7045H68.2683V19.9675H61.5703V28.4295Z" fill="#A3A3A3"/>
<path d="M3.64197 25.4244L6.58875 28.4295H8.98677L4.84474 24.1947L8.98677 19.9675H6.58875L0.702698 25.9778V28.4295L3.64197 25.4244Z" fill="#A3A3A3"/>
<path d="M33.1775 25.6165L28.8701 19.9675H27.1711V28.4295H28.8701V22.7805L33.1775 28.4295H34.8764V19.9675H33.1775V25.6165Z" fill="#A3A3A3"/>
<path d="M17.4513 28.4295V19.9675H15.7524V23.3339H11.4449V19.9675H9.74603V28.4295H11.4449V25.0632H15.7524V28.4295H17.4513Z" fill="#A3A3A3"/>
<path d="M75.7029 23.8411C75.9359 23.4569 76.0637 23.0034 76.0637 22.5192C76.0637 21.1127 74.9436 19.9675 73.568 19.9675H69.3057V28.4372H74.1994C75.5751 28.4372 76.6952 27.292 76.6952 25.8855C76.6952 25.0555 76.3043 24.31 75.6954 23.8488L75.7029 23.8411ZM71.0121 21.7045H73.5755C74.0115 21.7045 74.3723 22.0734 74.3723 22.5192C74.3723 22.965 74.0115 23.3339 73.5755 23.3339H71.0121V21.7045ZM74.2145 26.7002H71.0121V25.0709H74.2145C74.6505 25.0709 75.0113 25.4398 75.0113 25.8855C75.0113 26.3313 74.6505 26.7002 74.2145 26.7002Z" fill="#A3A3A3"/>
<path d="M21.1573 19.9675L18.3082 28.4295H20.1049L22.3074 21.889L24.51 28.4295H26.3066L23.4501 19.9675H21.1573Z" fill="#A3A3A3"/>
<path d="M0.702698 19.9675V24.1332L2.73989 22.0504L0.702698 19.9675Z" fill="#A3A3A3"/>
<path d="M2.60458 32.4876V33.0102H4.07797C4.0479 33.3868 3.91259 33.6865 3.66452 33.9171C3.41645 34.1477 3.10824 34.263 2.73237 34.263C2.32644 34.263 1.98816 34.1169 1.69498 33.8249C1.40932 33.5328 1.2665 33.1793 1.2665 32.7566C1.2665 32.3338 1.40932 31.9957 1.69498 31.7036C1.98064 31.4116 2.32644 31.2732 2.73237 31.2732C2.95037 31.2732 3.16086 31.3193 3.35631 31.4192C3.55176 31.5115 3.71714 31.6421 3.84493 31.8112L4.34108 31.5038C4.15314 31.2502 3.91259 31.058 3.63445 30.912C3.35631 30.766 3.05562 30.6968 2.73237 30.6968C2.16857 30.6968 1.69498 30.8966 1.29657 31.304C0.898148 31.7113 0.702698 32.1955 0.702698 32.7642C0.702698 33.333 0.898148 33.8249 1.29657 34.2322C1.69498 34.6396 2.16857 34.8394 2.73237 34.8394C3.29617 34.8394 3.79231 34.6472 4.15314 34.263C4.52149 33.8787 4.70191 33.3791 4.70191 32.7642C4.70191 32.6566 4.70191 32.5567 4.67935 32.4799H2.60458V32.4876Z" fill="#A3A3A3"/>
<path d="M6.79173 31.7267C6.58877 31.7267 6.40083 31.7728 6.24297 31.8573C6.08511 31.9419 5.95731 32.0725 5.87462 32.2416L5.84455 31.7421H5.35593V34.7779H5.88214V33.3791C5.88214 32.9871 5.97235 32.7028 6.15276 32.526C6.33318 32.3492 6.5587 32.257 6.83684 32.257C6.85939 32.257 6.89698 32.257 6.94208 32.2647L7.04732 31.7421C6.97215 31.7344 6.90449 31.7267 6.82932 31.7267H6.79925H6.79173Z" fill="#A3A3A3"/>
<path d="M8.9041 31.7113C8.48313 31.7113 8.1223 31.865 7.82912 32.1648C7.52843 32.4722 7.37808 32.8334 7.37808 33.2638C7.37808 33.6942 7.52843 34.0631 7.8216 34.3706C8.11478 34.678 8.47561 34.8317 8.89658 34.8317C9.31755 34.8317 9.67086 34.678 9.97155 34.3706C10.2722 34.0631 10.4226 33.6942 10.4226 33.2638C10.4226 32.8334 10.2722 32.4722 9.97155 32.1648C9.67086 31.865 9.31755 31.7113 8.89658 31.7113H8.9041ZM9.60321 33.9786C9.40776 34.1784 9.17472 34.2783 8.9041 34.2783C8.63347 34.2783 8.40044 34.1784 8.20499 33.9786C8.00954 33.7865 7.91181 33.5482 7.91181 33.2638C7.91181 32.9795 8.00954 32.7489 8.19747 32.5567C8.39292 32.3569 8.62596 32.2647 8.89658 32.2647C9.1672 32.2647 9.40024 32.3646 9.59569 32.5567C9.79114 32.7566 9.88135 32.9871 9.88135 33.2638C9.88135 33.5405 9.78362 33.7788 9.59569 33.9786H9.60321Z" fill="#A3A3A3"/>
<path d="M13.0988 33.2869C13.0988 33.6174 13.0236 33.871 12.8657 34.0401C12.7154 34.2092 12.5199 34.2937 12.2944 34.2937C12.0689 34.2937 11.8659 34.2092 11.7156 34.0401C11.5652 33.871 11.49 33.6174 11.49 33.2869V31.7498H10.9638V33.2869C10.9638 33.7942 11.0766 34.1708 11.3021 34.4321C11.5276 34.6934 11.8208 34.824 12.1816 34.824C12.3921 34.824 12.5801 34.7702 12.7454 34.6626C12.9108 34.555 13.0311 34.4167 13.1213 34.2399L13.1514 34.7779H13.64V31.7421H13.1138V33.2792L13.0988 33.2869Z" fill="#A3A3A3"/>
<path d="M16.008 31.7113C15.7674 31.7113 15.5494 31.7728 15.3464 31.9034C15.1435 32.0341 14.9931 32.1878 14.9029 32.38L14.8728 31.7497H14.3842V35.9999H14.9104V34.1631C15.0006 34.3552 15.1435 34.5166 15.3464 34.6396C15.5494 34.7702 15.7674 34.8317 16.0004 34.8317C16.3989 34.8317 16.7371 34.678 17.0228 34.3706C17.3084 34.0631 17.4438 33.6942 17.4438 33.2638C17.4438 32.8334 17.3009 32.4722 17.0228 32.1648C16.7371 31.865 16.3989 31.7113 16.0004 31.7113H16.008ZM16.6319 33.994C16.4364 34.1938 16.2034 34.2937 15.9253 34.2937C15.6471 34.2937 15.4066 34.1938 15.2111 33.994C15.0157 33.7941 14.9179 33.5482 14.9179 33.2638C14.9179 32.9795 15.0157 32.7412 15.2111 32.5414C15.4066 32.3415 15.6471 32.2416 15.9253 32.2416C16.2034 32.2416 16.4364 32.3415 16.6319 32.5414C16.8273 32.7412 16.9251 32.9795 16.9251 33.2638C16.9251 33.5482 16.8273 33.7865 16.6319 33.994Z" fill="#A3A3A3"/>
</g>
<defs>
<clipPath id="clip0_62_124">
<rect width="76" height="36" fill="white" transform="translate(0.702698)"/>
</clipPath>
</defs>
</svg>
