<?xml version="1.0" standalone="no"?>
<!DOCTYPE svg PUBLIC "-//W3C//DTD SVG 20010904//EN"
 "http://www.w3.org/TR/2001/REC-SVG-20010904/DTD/svg10.dtd">
<svg version="1.0" xmlns="http://www.w3.org/2000/svg"
 width="1008.000000pt" height="1008.000000pt" viewBox="0 0 1008.000000 1008.000000"
 preserveAspectRatio="xMidYMid meet">
<metadata>
Created by potrace 1.14, written by Peter Selinger 2001-2017
</metadata>
<g transform="translate(0.000000,1008.000000) scale(0.100000,-0.100000)"
fill="#000000" stroke="none">
<path d="M6268 9924 c-2 -1 -32 -5 -66 -9 -35 -3 -73 -8 -85 -11 -25 -5 -68
-12 -112 -20 -16 -3 -51 -11 -77 -19 -27 -8 -48 -11 -48 -8 0 3 -6 1 -12 -4
-11 -8 -54 -23 -78 -27 -29 -5 -247 -109 -260 -125 -3 -4 -23 -18 -46 -33 -63
-40 -166 -148 -220 -229 -27 -41 -49 -76 -50 -79 0 -3 -9 -23 -19 -45 -10 -22
-19 -43 -20 -47 -2 -5 -3 -9 -5 -10 -10 -14 -42 -192 -45 -255 -1 -39 -6 -76
-9 -82 -4 -6 -4 -11 1 -11 4 0 8 -24 9 -53 1 -65 12 -155 28 -229 3 -16 8 -40
12 -55 8 -41 43 -192 55 -238 6 -22 15 -56 19 -75 5 -19 25 -93 45 -165 40
-145 43 -158 49 -182 25 -95 62 -209 70 -215 6 -4 8 -8 5 -8 -8 0 14 -70 69
-225 52 -145 53 -147 62 -170 4 -11 24 -63 45 -115 41 -105 146 -323 158 -328
4 -2 7 -8 7 -12 0 -11 66 -113 95 -149 11 -13 41 -47 68 -74 26 -28 47 -54 47
-59 0 -4 4 -8 10 -8 5 0 31 -16 57 -36 27 -21 62 -43 78 -51 17 -7 37 -17 45
-22 37 -21 112 -51 128 -51 10 0 22 -4 28 -9 5 -6 20 -11 34 -13 14 -2 31 -7
38 -11 6 -5 17 -5 22 -2 6 3 10 2 10 -2 0 -5 12 -10 28 -11 15 -1 37 -4 50 -7
12 -3 32 -7 45 -10 12 -3 45 -8 72 -11 28 -3 68 -8 90 -11 56 -6 478 -11 489
-5 9 5 112 13 198 16 27 0 48 5 48 9 0 5 4 6 9 3 4 -3 4 15 -1 42 -5 26 -10
58 -12 72 -2 14 -6 36 -9 50 -4 14 -9 39 -11 55 -3 17 -7 42 -10 56 -3 14 -8
41 -10 60 -3 19 -5 34 -6 34 -3 0 -10 40 -12 72 -2 18 -7 33 -11 33 -5 0 -6 3
-3 8 2 4 0 30 -5 57 -6 28 -12 64 -15 80 -2 17 -7 41 -10 55 -3 14 -7 35 -9
47 -2 13 -6 41 -10 63 -4 22 -7 42 -6 45 0 2 -5 19 -10 37 -5 18 -12 47 -15
63 -3 17 -9 48 -15 70 -5 22 -12 49 -14 60 -3 11 -8 34 -12 50 -9 37 -8 33
-17 75 -22 103 -75 327 -82 345 -4 8 -1 15 5 15 6 0 11 -7 11 -15 0 -13 28
-105 47 -155 3 -8 8 -24 10 -35 2 -11 7 -31 13 -45 8 -22 52 -166 55 -180 0
-3 9 -32 19 -65 10 -33 36 -116 57 -185 21 -69 50 -165 65 -215 16 -49 29 -92
29 -95 0 -3 11 -39 24 -80 13 -41 24 -79 26 -85 1 -5 5 -17 8 -25 4 -8 8 -24
10 -35 1 -11 5 -24 9 -30 5 -9 31 -98 43 -147 2 -9 8 -25 13 -35 5 -10 8 -26
7 -35 -2 -10 1 -18 6 -18 5 0 8 -3 7 -7 -5 -21 14 -51 31 -48 10 2 54 6 97 10
79 6 97 8 189 20 57 8 88 13 95 15 3 2 8 2 12 1 4 0 31 4 60 10 29 6 67 13 83
16 44 8 60 11 60 13 0 1 7 3 15 5 8 2 26 6 40 9 57 12 72 15 171 40 57 14 124
35 149 47 121 57 153 73 163 83 7 6 35 28 62 48 28 20 71 58 97 85 47 51 138
183 138 202 0 6 9 28 20 49 11 22 22 48 24 58 3 11 10 42 16 69 6 28 14 60 16
72 18 93 18 305 -1 423 -3 19 -7 49 -9 65 -3 17 -7 41 -10 55 -4 14 -9 39 -12
55 -2 17 -10 48 -16 70 -5 22 -12 47 -13 55 -2 8 -4 15 -5 15 -1 0 -3 11 -6
25 -6 36 -66 223 -76 236 -7 10 -48 8 -188 -12 -25 -3 -74 -7 -110 -9 -36 -2
-72 -6 -80 -9 -15 -5 -78 -12 -180 -21 -30 -3 -72 -7 -92 -10 -90 -12 -106
-14 -168 -20 -36 -3 -83 -8 -105 -11 -22 -3 -56 -6 -75 -8 -19 -2 -60 -7 -91
-11 -30 -3 -73 -8 -95 -10 -21 -1 -63 -6 -93 -10 -30 -4 -71 -9 -90 -10 -20
-1 -36 -4 -36 -5 0 -1 -22 -3 -50 -5 -27 -2 -66 -6 -85 -9 -19 -3 -66 -8 -105
-11 -38 -4 -81 -8 -95 -11 -14 -2 -53 -7 -86 -10 l-61 -6 -8 48 c-5 27 -10 54
-11 59 -3 9 -33 137 -50 215 -3 14 -7 30 -8 35 -35 138 -45 188 -41 196 3 4 2
9 -3 11 -4 1 -15 41 -26 88 -20 96 -31 144 -41 180 -3 14 -8 37 -9 51 -2 15
-7 33 -11 40 -5 7 -10 22 -11 33 -3 33 -14 87 -29 146 -8 30 -16 66 -19 80 -3
14 -10 43 -15 65 -5 22 -12 51 -15 65 -3 14 -12 52 -20 86 -8 34 -17 72 -20
85 -2 13 -7 31 -10 39 -3 8 -7 29 -10 45 -3 17 -10 50 -16 75 -6 25 -13 56
-16 70 -2 14 -7 33 -10 42 -3 10 -7 28 -10 40 -9 48 -12 64 -23 106 l-12 43
-194 -2 c-107 -1 -196 -3 -197 -5z m870 -2035 c-3 -8 -7 -3 -11 10 -4 17 -3
21 5 13 5 -5 8 -16 6 -23z"/>
<path d="M3372 9849 c-14 -6 -23 -25 -32 -73 -7 -36 -12 -69 -12 -73 0 -5 -4
-18 -9 -29 -4 -12 -11 -41 -14 -65 -4 -24 -9 -47 -11 -51 -3 -4 -7 -20 -9 -35
-2 -16 -7 -40 -10 -54 -15 -77 -47 -227 -52 -249 -4 -14 -7 -35 -7 -47 -1 -13
-4 -23 -7 -23 -3 0 -6 -6 -6 -12 -2 -35 -10 -75 -17 -86 -4 -7 -5 -12 -3 -12
3 0 1 -17 -4 -37 -17 -68 -19 -78 -25 -123 -3 -25 -9 -47 -13 -50 -3 -3 -7
-14 -7 -25 -1 -11 -5 -36 -9 -55 -4 -19 -9 -42 -10 -50 -1 -8 -5 -26 -8 -40
-4 -14 -9 -36 -11 -50 -3 -14 -21 -101 -41 -195 -20 -93 -39 -181 -41 -195 -4
-24 -14 -69 -21 -100 -2 -8 -6 -26 -8 -40 -8 -54 -16 -69 -38 -64 -11 2 -57 6
-101 10 -45 3 -97 8 -116 10 -19 3 -62 7 -95 9 -82 6 -148 12 -227 20 -37 4
-86 9 -110 10 -24 2 -43 4 -43 5 0 1 -22 3 -50 6 -51 4 -105 8 -231 20 -40 4
-89 8 -110 9 -22 1 -39 3 -39 4 0 1 -29 4 -65 6 -36 3 -87 7 -115 10 -27 3
-77 8 -110 10 -33 3 -85 8 -115 11 -30 3 -73 7 -95 9 -22 2 -67 6 -100 9 -33
3 -90 8 -126 12 -36 3 -78 7 -93 8 -14 2 -29 -1 -33 -7 -22 -37 -122 -417
-138 -527 -29 -203 -27 -521 4 -578 6 -11 8 -22 6 -24 -17 -16 113 -318 136
-318 5 0 9 -6 9 -14 0 -19 158 -176 176 -176 8 0 14 -5 14 -10 0 -6 12 -16 28
-23 15 -6 29 -14 32 -17 10 -11 140 -70 154 -70 8 0 17 -4 20 -9 3 -5 18 -11
33 -14 16 -3 46 -10 68 -16 50 -14 89 -21 146 -26 24 -2 44 -4 44 -5 0 -3 42
-9 109 -15 39 -3 94 -8 121 -11 102 -9 152 -13 230 -19 44 -3 107 -7 140 -10
310 -26 781 -22 1040 10 39 5 78 10 88 11 9 1 18 3 20 4 2 2 27 6 83 13 16 2
39 9 51 15 11 6 23 9 26 6 3 -3 25 0 48 7 24 7 49 13 56 15 60 11 283 119 320
154 12 11 24 20 27 20 15 0 142 145 198 225 44 63 150 252 156 277 1 5 13 33
27 64 24 53 86 227 89 249 1 5 4 15 7 20 3 6 12 33 18 60 7 28 17 61 22 75 5
14 11 36 13 50 2 14 16 74 31 134 14 60 24 110 22 112 -2 3 -26 6 -53 9 -27 2
-60 7 -73 9 -13 3 -47 8 -75 11 -28 3 -67 7 -86 10 -19 3 -53 8 -75 10 -130
15 -152 18 -170 22 -11 2 -38 6 -60 8 -93 10 -112 12 -160 19 -50 7 -82 10
-185 21 -30 3 -77 8 -105 11 -27 3 -79 8 -115 11 -36 2 -76 6 -90 8 -14 2 -40
3 -57 4 -18 1 -33 5 -33 10 0 5 84 7 188 6 206 -4 732 -14 1024 -20 103 -2
187 -1 187 3 -1 4 -1 9 1 12 1 3 3 21 5 40 2 19 7 46 10 60 3 14 8 41 11 60 6
42 12 75 14 75 2 0 6 27 15 100 4 33 9 64 12 68 3 5 7 32 9 60 2 29 6 63 9 77
3 14 7 45 9 70 2 25 8 74 12 110 5 36 9 128 8 205 0 112 -5 158 -23 230 -22
86 -106 275 -122 275 -4 0 -10 8 -14 19 -8 27 -118 135 -190 186 -108 77 -305
160 -430 180 -11 2 -20 4 -20 5 0 2 -9 4 -20 6 -26 4 -77 13 -117 20 -93 16
-481 26 -516 13z m-72 -1858 c0 -5 -17 -7 -37 -4 -52 7 -54 13 -5 13 23 0 42
-4 42 -9z"/>
<path d="M1028 6225 c-2 -1 -25 -5 -53 -8 -208 -24 -416 -152 -590 -360 -76
-92 -177 -253 -246 -392 -38 -77 -68 -144 -68 -148 0 -4 -7 -19 -15 -33 -9
-13 -14 -24 -11 -24 3 0 -3 -17 -14 -37 -35 -71 -35 -78 4 -99 19 -10 35 -22
35 -26 0 -5 6 -8 14 -8 8 0 16 -4 18 -8 2 -4 60 -47 131 -95 70 -48 184 -126
255 -174 70 -48 129 -89 132 -92 3 -3 45 -33 95 -66 49 -33 156 -106 237 -162
82 -57 153 -103 158 -103 6 0 10 -3 10 -8 0 -4 18 -18 40 -32 22 -14 40 -28
40 -32 0 -5 5 -8 11 -8 9 0 95 -55 109 -70 3 -3 32 -23 65 -45 33 -21 66 -45
73 -52 7 -7 17 -13 21 -13 4 0 19 -10 34 -22 25 -23 25 -24 9 -55 -16 -31
-107 -205 -133 -254 -6 -13 -16 -31 -20 -39 -5 -8 -26 -49 -47 -90 -22 -41
-47 -88 -56 -105 -9 -16 -16 -35 -16 -42 0 -6 -4 -13 -8 -15 -5 -1 -29 -43
-54 -93 -76 -150 -102 -200 -108 -205 -3 -3 -29 -52 -58 -110 -79 -158 -203
-394 -212 -405 -5 -6 -10 -17 -12 -25 -2 -8 -5 -17 -8 -20 -5 -5 -54 -97 -126
-239 l-38 -74 60 -56 c81 -77 143 -130 174 -149 14 -9 27 -19 30 -22 13 -16
139 -100 149 -100 6 0 11 -4 11 -10 0 -5 7 -10 15 -10 8 0 15 -4 15 -10 0 -5
7 -10 15 -10 8 0 15 -3 15 -7 0 -5 25 -19 55 -33 30 -14 55 -28 55 -32 0 -5 9
-8 19 -8 11 0 22 -4 25 -9 6 -8 123 -55 141 -56 6 0 12 -3 15 -7 3 -4 17 -9
30 -12 14 -3 41 -10 60 -16 33 -11 47 -13 130 -26 50 -8 240 -11 240 -4 0 3
12 5 27 4 26 -1 91 11 123 23 8 3 23 8 33 9 28 6 138 59 188 91 75 47 137 103
206 183 80 94 83 98 83 105 0 6 41 67 51 75 3 3 14 19 23 35 9 17 25 44 36 60
10 17 19 38 19 48 1 9 5 17 10 17 5 0 28 39 51 87 24 49 47 90 52 91 4 2 8 10
8 17 0 7 22 56 49 108 27 53 47 98 43 101 -3 3 0 6 6 6 7 0 12 9 12 20 0 11 5
20 11 20 5 0 7 4 4 10 -3 5 -1 10 5 10 6 0 8 5 5 10 -3 6 -1 10 4 10 6 0 10 3
9 8 -1 4 13 39 31 77 18 39 34 76 34 83 0 6 4 12 9 12 4 0 8 5 8 11 0 5 8 29
19 52 10 23 33 76 50 117 18 41 38 90 46 108 8 18 15 37 15 43 0 6 7 25 15 42
12 28 93 264 100 292 1 6 5 17 8 25 8 22 48 168 53 196 2 13 6 36 9 52 10 54
17 108 20 155 1 26 5 50 8 53 3 3 2 17 -3 30 -6 16 -6 24 1 24 6 0 8 4 5 9 -3
5 -8 37 -11 72 -7 85 -10 106 -24 158 -16 55 -83 201 -111 241 -12 17 -19 30
-15 30 3 0 -3 10 -15 22 -11 12 -20 27 -20 33 0 6 -9 17 -20 25 -11 8 -20 18
-20 22 0 9 -15 28 -101 127 -96 110 -212 218 -369 346 -25 20 -52 42 -61 49
-17 14 -118 85 -174 123 -19 12 -36 27 -40 33 -4 7 -16 -2 -31 -24 -13 -19
-24 -37 -24 -39 0 -3 -18 -34 -40 -68 -22 -35 -43 -71 -47 -79 -4 -8 -31 -55
-60 -103 -30 -48 -65 -109 -80 -135 -14 -26 -31 -50 -37 -54 -6 -4 -8 -8 -4
-8 4 0 -9 -24 -28 -52 -19 -29 -34 -58 -34 -65 0 -7 -4 -13 -9 -13 -5 0 -16
-15 -25 -32 -8 -18 -24 -46 -35 -62 -11 -17 -18 -33 -15 -38 3 -4 1 -8 -4 -8
-7 0 -43 -62 -47 -80 0 -3 -7 -16 -14 -30 -47 -87 -94 -175 -127 -240 -21 -41
-42 -81 -48 -89 -6 -7 -11 -20 -12 -28 -2 -8 -10 -23 -18 -32 -9 -10 -14 -20
-12 -22 3 -2 -5 -15 -16 -29 l-20 -25 16 28 c9 15 14 27 11 27 -3 0 0 10 7 23
7 12 13 24 13 27 1 3 11 25 22 50 11 25 53 119 93 210 108 248 110 253 120
275 33 73 67 151 68 157 1 5 14 34 28 65 14 32 31 69 36 83 24 57 37 88 58
135 13 28 26 59 31 70 13 33 49 118 64 150 37 83 64 158 60 165 -16 26 -410
275 -575 363 -41 22 -78 44 -81 49 -3 6 -9 10 -12 9 -4 0 -39 15 -79 34 -40
18 -93 38 -118 45 -25 7 -52 15 -60 18 -8 3 -19 6 -25 7 -5 1 -34 5 -64 9 -55
8 -178 15 -183 11z"/>
<path d="M8785 6100 c-44 -10 -109 -27 -144 -39 -90 -31 -331 -151 -359 -178
-7 -7 -18 -13 -23 -13 -5 0 -40 -20 -79 -45 -39 -25 -75 -45 -80 -45 -6 0 -10
-4 -10 -9 0 -5 -8 -11 -17 -15 -21 -6 -51 -25 -71 -43 -7 -7 -19 -13 -27 -13
-7 0 -15 -3 -17 -7 -3 -7 -80 -61 -103 -73 -16 -8 -219 -144 -225 -150 -3 -3
-31 -22 -62 -43 -31 -21 -63 -43 -70 -50 -7 -6 -30 -23 -50 -37 -21 -14 -38
-28 -38 -32 0 -5 -4 -8 -10 -8 -9 0 -42 -25 -75 -57 -7 -7 -15 -9 -19 -6 -3 4
-6 2 -6 -3 0 -6 -24 -28 -52 -49 -29 -22 -55 -42 -58 -46 -3 -3 -41 -36 -85
-74 -44 -38 -108 -97 -143 -131 -35 -35 -66 -64 -70 -66 -9 -4 -111 -133 -137
-173 -36 -55 -54 -93 -48 -99 4 -3 1 -6 -5 -6 -12 0 -33 -43 -57 -115 -31 -96
-39 -160 -39 -310 1 -130 7 -202 29 -309 8 -38 12 -73 9 -77 -3 -5 -1 -9 4 -9
5 0 9 -6 9 -12 2 -34 16 -94 24 -104 5 -7 9 -16 8 -20 -1 -5 0 -12 1 -16 1 -5
3 -11 4 -15 2 -5 8 -28 16 -53 7 -25 13 -48 12 -52 -1 -5 3 -8 9 -8 5 0 8 -4
4 -10 -3 -5 -1 -17 4 -27 5 -10 33 -79 62 -153 28 -74 56 -140 60 -146 5 -6 6
-14 2 -17 -3 -4 -1 -7 6 -7 7 0 10 -4 6 -9 -3 -5 -1 -12 5 -16 5 -3 10 -15 10
-25 0 -10 4 -22 10 -25 9 -5 68 20 80 34 3 3 14 11 25 17 86 46 111 60 115 64
4 4 29 18 115 64 11 6 22 13 25 16 3 3 19 12 35 20 17 8 32 18 35 21 3 3 19
12 35 21 29 14 200 113 260 149 17 11 37 22 45 26 8 3 27 15 43 25 15 11 27
16 27 11 0 -4 4 -3 8 3 6 10 89 61 267 164 22 13 48 30 58 38 9 8 17 11 17 7
0 -4 8 -1 18 7 9 8 85 54 167 103 83 48 161 95 175 104 14 8 34 21 45 27 11 6
36 20 55 32 19 12 51 31 70 42 19 11 53 31 75 45 22 14 47 28 55 32 8 4 34 20
56 35 23 15 47 28 52 28 6 0 17 6 25 14 8 8 30 23 50 33 50 25 199 114 217
129 8 7 22 14 30 16 8 2 17 6 20 9 3 4 64 41 135 83 72 42 137 80 145 86 8 5
40 24 70 42 30 17 134 79 230 136 96 58 195 116 220 129 62 34 70 47 58 86 -5
18 -11 37 -12 42 -2 6 -6 17 -9 25 -3 8 -11 33 -17 55 -6 22 -15 49 -20 60 -5
11 -21 52 -36 90 -44 116 -167 355 -186 363 -4 2 -8 8 -8 13 0 31 -195 256
-281 324 -99 79 -205 133 -327 167 -100 28 -265 31 -377 8z"/>
<path d="M8360 3865 c-7 -8 -18 -15 -25 -15 -8 0 -15 -3 -17 -8 -1 -4 -38 -32
-82 -62 -43 -30 -87 -63 -97 -72 -11 -10 -23 -18 -27 -18 -5 0 -17 -8 -28 -17
-11 -10 -46 -36 -79 -58 -33 -22 -62 -42 -65 -46 -3 -3 -23 -18 -45 -32 -22
-15 -69 -47 -105 -73 -36 -25 -80 -55 -97 -66 -18 -11 -33 -24 -33 -30 0 -5
-4 -6 -10 -3 -5 3 -10 1 -10 -4 0 -6 -7 -11 -15 -11 -8 0 -15 -4 -15 -9 0 -5
-20 -21 -44 -35 -25 -14 -51 -32 -58 -39 -7 -6 -49 -36 -93 -66 -44 -30 -109
-75 -145 -101 -36 -25 -112 -80 -170 -120 -145 -103 -137 -92 -108 -153 104
-216 342 -693 347 -697 4 -3 18 -21 31 -40 51 -73 141 -167 225 -236 51 -42
208 -124 236 -124 9 0 19 -3 23 -7 4 -5 12 -9 17 -9 5 -1 11 -3 14 -4 37 -18
214 -28 321 -17 100 10 290 64 369 105 17 9 36 17 44 18 8 2 17 6 20 11 3 4
13 9 21 11 8 2 52 26 98 53 46 27 88 49 92 49 5 0 10 3 12 8 2 4 39 31 83 61
44 30 82 58 85 61 3 3 21 17 40 30 19 14 45 34 57 45 21 20 21 20 3 58 -10 20
-16 37 -13 37 4 0 -2 9 -12 20 -10 11 -15 20 -10 20 4 0 2 6 -4 13 -6 8 -8 17
-4 20 3 4 1 7 -5 7 -7 0 -12 6 -12 13 0 7 -10 33 -22 58 -12 24 -22 46 -23 49
-1 3 -14 32 -29 65 -57 121 -146 326 -146 335 0 6 -4 10 -10 10 -5 0 -10 7
-10 15 0 8 -13 43 -30 77 -67 142 -120 259 -120 264 0 3 -11 30 -25 60 -54
118 -103 226 -178 394 -13 30 -35 78 -47 105 -12 28 -29 65 -37 83 -16 37 -16
37 -33 17z"/>
<path d="M4855 3362 c-1 -2 -20 -5 -41 -8 -70 -9 -89 -12 -121 -22 -18 -6 -33
-8 -33 -5 0 3 -7 0 -15 -7 -8 -7 -15 -10 -15 -7 0 12 -134 -41 -252 -100 -132
-65 -289 -158 -296 -175 -2 -4 -8 -8 -14 -8 -6 0 -24 -11 -42 -25 -42 -34 -46
-37 -86 -65 -19 -13 -40 -29 -46 -35 -6 -5 -26 -21 -44 -35 -18 -14 -47 -37
-64 -52 -17 -16 -52 -45 -77 -65 -60 -50 -86 -83 -70 -93 13 -8 193 -176 347
-325 52 -50 94 -90 94 -89 0 2 33 -30 74 -69 112 -109 198 -187 207 -187 4 0
12 -6 16 -13 4 -8 33 -36 63 -63 149 -132 197 -174 220 -194 14 -12 54 -47 89
-78 35 -31 72 -63 82 -70 11 -7 19 -18 19 -24 0 -7 -8 -4 -17 5 -42 39 -91 77
-101 77 -6 0 -12 4 -14 8 -1 5 -48 42 -103 83 -55 40 -102 76 -105 79 -3 3
-50 39 -105 80 -55 41 -105 79 -112 85 -6 5 -42 33 -80 60 -37 28 -77 58 -87
68 -11 9 -25 17 -32 17 -7 0 -14 4 -16 9 -1 5 -43 40 -93 77 -49 37 -94 71
-100 76 -5 5 -55 42 -110 83 -55 41 -104 78 -110 82 -5 4 -45 34 -87 67 l-77
58 -28 -22 c-126 -99 -416 -388 -533 -533 -14 -17 -32 -38 -40 -47 -30 -31
-78 -96 -100 -135 -24 -42 -63 -116 -65 -125 -1 -3 -7 -18 -13 -33 -7 -16 -12
-34 -12 -41 0 -7 -3 -16 -7 -20 -4 -3 -8 -14 -10 -24 -2 -9 -5 -28 -8 -42 -27
-133 -26 -219 4 -350 30 -135 117 -303 224 -435 49 -60 224 -235 287 -287 79
-66 153 -123 219 -171 l63 -46 35 32 c20 18 51 47 70 65 18 17 35 32 38 32 2
0 28 24 58 53 30 28 74 69 98 91 89 79 203 182 240 219 22 20 41 37 43 37 2 0
27 21 54 47 56 54 213 196 327 298 13 11 65 59 116 106 52 47 114 103 138 125
25 21 76 69 115 105 l70 66 31 -31 c17 -17 55 -51 84 -76 29 -25 65 -56 80
-70 39 -36 94 -85 186 -165 44 -38 94 -83 112 -100 17 -16 58 -52 89 -80 57
-49 82 -71 233 -205 41 -36 83 -73 94 -83 28 -23 144 -127 172 -152 13 -11 54
-47 91 -80 37 -33 78 -69 90 -80 12 -11 45 -40 74 -65 28 -25 72 -64 97 -87
25 -24 51 -43 57 -43 41 1 280 186 416 322 105 105 140 145 140 158 0 5 4 10
9 10 7 0 92 115 128 175 20 33 92 180 91 185 -1 3 4 16 11 29 7 13 22 60 33
105 42 167 22 389 -47 532 -14 28 -25 56 -25 62 0 7 -4 12 -9 12 -5 0 -14 14
-20 30 -5 17 -15 30 -22 30 -7 0 -10 3 -6 6 12 13 -176 234 -267 313 -17 14
-42 37 -56 51 -14 14 -57 52 -95 85 -39 33 -72 62 -75 65 -26 26 -375 309
-470 380 -18 14 -49 37 -69 52 -20 15 -44 34 -53 42 -10 9 -21 16 -24 16 -7 0
-88 63 -92 73 -2 4 -9 7 -15 7 -7 0 -25 11 -41 25 -16 13 -37 27 -47 30 -11 4
-19 11 -19 16 0 6 -4 8 -9 5 -5 -4 -11 -3 -13 1 -4 11 -86 63 -98 63 -5 0 -10
3 -10 8 0 4 -10 12 -23 18 -12 6 -80 41 -150 77 -70 36 -129 65 -130 66 -1 0
-15 5 -32 12 -16 7 -32 13 -35 14 -3 1 -18 7 -33 13 -88 37 -344 82 -362 64z"/>
</g>
</svg>
