<?xml version="1.0" encoding="utf-8"?>
<!-- Generator: Adobe Illustrator 28.0.0, SVG Export Plug-In . SVG Version: 6.00 Build 0)  -->
<svg version="1.1" id="Layer_1" xmlns="http://www.w3.org/2000/svg" xmlns:xlink="http://www.w3.org/1999/xlink" x="0px" y="0px"
	 viewBox="0 0 400 200" style="enable-background:new 0 0 400 200;" xml:space="preserve">
<style type="text/css">
	.st0{fill:#de8989;}
</style>
<g opacity="0.2">
	<path class="st0"  d="M396.8,94.98C412.58,42.39,368.45-0.13,298.23,0l-136.5,0.26C91.51,0.39,21.78,43.13,6,95.71l-2.8,9.31
		c-15.78,52.58,28.35,95.11,98.57,94.98l136.5-0.26c27.13-0.05,54.18-6.46,78.07-17.35l21.08-13.21
		c23.7-14.85,42.91-36.17,55.49-61.58l0,0c0.38-1.1,0.75-2.21,1.08-3.32L396.8,94.98L396.8,94.98z M259.91,179.15L127.44,192.9
		C59.3,199.98,8.09,169.85,13.06,125.6l0.88-7.83c4.98-44.25,64.26-85.85,132.41-92.93l132.47-13.76
		C346.98,4,398.19,34.13,393.21,78.38l-0.88,7.83C387.35,130.46,328.06,172.07,259.91,179.15z"/>
	<path class="st0"  d="M387.14,71.71l-0.69-6.44c-3.87-36.41-59.51-55.78-124.29-43.27L136.26,46.31
		C71.49,58.82,22.13,98.47,26,134.88l0.69,6.45c3.87,36.41,59.51,55.78,124.29,43.27l125.91-24.32
		C341.65,147.77,391.02,108.12,387.14,71.71z M289.62,143.28l-117.45,32.23c-60.42,16.58-118.25,6.38-129.18-22.79l-1.93-5.16
		c-10.92-29.16,29.21-66.25,89.63-82.83L248.14,32.5c60.42-16.58,118.25-6.38,129.18,22.79l1.93,5.16
		C390.17,89.62,350.04,126.71,289.62,143.28z"/>
	<path class="st0"  d="M369.38,52.1l-2.89-4c-16.34-22.59-74.5-25.13-129.89-5.67L128.91,80.24c-55.4,19.46-87.06,53.54-70.72,76.12
		l2.89,4c16.34,22.59,74.5,25.13,129.89,5.67l107.68-37.81C354.05,108.76,385.72,74.69,369.38,52.1z M304.46,115.11l-97.11,41.38
		c-49.96,21.29-106.91,25-127.22,8.29l-3.59-2.96c-20.31-16.71,3.72-47.51,53.68-68.8l97.11-41.38
		c49.96-21.29,106.91-25,127.22-8.29l3.59,2.96C378.45,63.02,354.42,93.82,304.46,115.11z"/>
	<path class="st0"  d="M346.1,42.71l-4.07-2.04c-23-11.55-77.57-2.88-121.89,19.36l-86.13,43.23
		c-44.31,22.23-61.59,49.62-38.58,61.18l4.07,2.04c23,11.55,77.57,2.88,121.89-19.36l86.13-43.23
		C351.83,81.65,369.11,54.26,346.1,42.71z M308.28,94.47l-75.12,43.63c-38.65,22.45-89.92,34.89-114.52,27.81l-4.36-1.25
		c-24.6-7.09-13.22-31.03,25.43-53.48l75.12-43.63c38.65-22.45,89.92-34.89,114.52-27.81l4.36,1.25
		C358.31,48.08,346.93,72.02,308.28,94.47z"/>
	<path class="st0"  d="M321.33,40.82l-4.48-0.58c-25.28-3.31-72.61,11.88-105.71,33.93l-64.34,42.87
		c-33.1,22.05-39.44,42.61-14.16,45.93l4.48,0.58c25.28,3.31,72.61-11.88,105.71-33.93l64.34-42.87
		C340.28,64.69,346.61,44.13,321.33,40.82z M304.57,80.6l-54.03,41.18c-27.8,21.18-70.76,38.21-95.95,38.03l-4.46-0.03
		c-25.2-0.18-23.08-17.5,4.71-38.68l54.03-41.18c27.8-21.18,70.76-38.21,95.95-38.03l4.46,0.03
		C334.48,42.1,332.36,59.41,304.57,80.6z"/>
	<path class="st0"  d="M297.8,44l-4.34,0.42c-24.5,2.35-62.85,20.44-85.67,40.39l-44.36,38.79c-22.82,19.96-21.46,34.22,3.04,31.86
		l4.34-0.42c24.5-2.35,62.85-20.44,85.67-40.39l44.36-38.79C323.66,55.91,322.3,41.65,297.8,44z M185.62,149.57l-4.13,0.77
		c-23.32,4.34-27.44-7.11-9.21-25.56l35.44-35.88c18.23-18.46,51.91-36.95,75.23-41.29l4.13-0.77c23.32-4.34,27.44,7.11,9.21,25.56
		l-35.44,35.88C242.62,126.74,208.93,145.23,185.62,149.57z"/>
	<path class="st0"  d="M291.18,70.02c14.07-16.79,7.81-25.67-13.98-19.83l-3.86,1.03c-21.78,5.84-50.85,24.19-64.91,40.98
		l-27.34,32.64c-14.07,16.79-7.81,25.67,13.98,19.83l3.86-1.03c21.78-5.84,50.85-24.19,64.91-40.98L291.18,70.02z M210.67,137.52
		l-3.54,1.22c-20,6.9-27.82,0.32-17.47-14.71l20.12-29.21c10.35-15.03,34.96-32.8,54.96-39.71l3.54-1.22
		c20-6.9,27.82-0.32,17.47,14.71l-20.12,29.21C255.28,112.84,230.67,130.61,210.67,137.52z"/>
	<path class="st0"  d="M280.21,68c7.1-13.22-1.79-17.79-19.85-10.2l-3.2,1.34c-18.06,7.59-38.45,24.46-45.54,37.68l-13.79,25.71
		c-7.1,13.22,1.79,17.79,19.85,10.2l3.2-1.34c18.06-7.59,38.45-24.46,45.54-37.68L280.21,68z M229.57,125.39l-2.84,1.41
		c-16.04,7.95-25.57,5.12-21.28-6.31l8.33-22.23c4.29-11.44,20.77-27.16,36.8-35.1l2.84-1.41c16.04-7.95,25.57-5.12,21.28,6.31
		l-8.33,22.23C262.08,101.73,245.6,117.45,229.57,125.39z"/>
	<path class="st0"  d="M265.66,87.52l3.72-18.87c1.91-9.7-7.89-11.06-21.9-3.01l-2.48,1.42c-14.01,8.05-26.92,22.43-28.83,32.14
		l-3.72,18.87c-1.91,9.7,7.89,11.06,21.9,3.01l2.48-1.42C250.84,111.62,263.74,97.23,265.66,87.52z M242.76,114.29l-2.13,1.4
		c-12.02,7.92-21.8,7.8-21.85-0.27l-0.1-15.69c-0.05-8.07,9.64-21.03,21.66-28.95l2.13-1.4c12.02-7.92,21.8-7.8,21.85,0.27
		l0.1,15.68C264.47,93.41,254.78,106.37,242.76,114.29z"/>
	<path class="st0"  d="M262.79,83.7l-3.19-12.72c-1.64-6.54-11.17-5.67-21.27,1.95l-1.79,1.35c-10.11,7.62-16.98,19.1-15.34,25.65
		l3.19,12.72c1.64,6.54,11.17,5.67,21.27-1.95l1.79-1.35C257.57,101.72,264.43,90.24,262.79,83.7z M251.04,104.86l-1.47,1.27
		c-8.31,7.19-17.39,8.84-20.27,3.7l-5.6-10.01c-2.88-5.15,1.53-15.15,9.85-22.34l1.47-1.27c8.31-7.19,17.39-8.84,20.27-3.7
		l5.6,10.01C263.76,87.68,259.36,97.68,251.04,104.86z"/>
	<path class="st0" d="M258.81,81.76l-7.4-7.57c-3.8-3.89-12.3-1.65-18.95,5.01l-1.18,1.18c-6.66,6.66-8.97,15.21-5.16,19.11
		l7.4,7.57c3.8,3.89,12.3,1.65,18.95-5.01l1.18-1.18C260.3,94.21,262.62,85.66,258.81,81.76z M254.47,98.44
		c-5.15,6.06-12.95,8.73-17.41,5.95l-8.67-5.41c-4.46-2.78-3.9-9.95,1.25-16.02l0.92-1.08c5.15-6.06,12.95-8.73,17.41-5.95
		l8.67,5.41c4.46,2.78,3.9,9.95-1.25,16.02L254.47,98.44z"/>
	<path class="st0" d="M254.44,81.23l-9.49-3.53c-4.88-1.81-11.93,1.12-15.74,6.56l-0.67,0.96c-3.81,5.43-2.95,11.32,1.93,13.13
		l9.49,3.53c4.88,1.81,11.93-1.12,15.74-6.56l0.67-0.96C260.19,88.93,259.32,83.05,254.44,81.23z M242.31,99.55l-9.9-1.92
		c-5.09-0.99-7.09-5.67-4.46-10.46l0.46-0.85c2.63-4.79,8.89-7.87,13.99-6.88l9.91,1.92c5.09,0.99,7.09,5.67,4.46,10.46l-0.46,0.85
		C253.66,97.45,247.4,100.53,242.31,99.55z"/>
	<path class="st0" d="M256.63,89.71c1.61-4.15-1.25-7.76-6.39-8.05l-9.99-0.58c-5.14-0.3-10.61,2.83-12.23,6.98l-0.29,0.74
		c-1.61,4.15,1.25,7.76,6.39,8.05l9.99,0.58c5.14,0.3,10.61-2.83,12.23-6.98L256.63,89.71z M245.46,95.52l-9.82,0.53
		c-5.05,0.27-8.54-2.37-7.79-5.9l0.13-0.62c0.75-3.53,5.45-6.61,10.5-6.87l9.82-0.53c5.05-0.27,8.54,2.37,7.79,5.9l-0.13,0.62
		C255.21,92.17,250.51,95.25,245.46,95.52z"/>
	<path class="st0" d="M255.22,87.22l0.01-0.52c0.03-2.94-3.87-4.74-8.72-4.01l-9.42,1.4c-4.85,0.72-8.8,3.68-8.84,6.62l0,0.52
		c-0.03,2.94,3.87,4.74,8.72,4.01l9.42-1.4C251.24,93.11,255.19,90.16,255.22,87.22z M246.95,92.38l-8.88,2.07
		c-4.57,1.07-8.71,0-9.26-2.39l-0.1-0.42c-0.54-2.39,2.71-5.18,7.28-6.25l8.88-2.07c4.57-1.07,8.71,0,9.26,2.39l0.1,0.42
		C254.77,88.52,251.52,91.32,246.95,92.38z"/>
	<path class="st0" d="M253.05,85.36l-0.18-0.33c-1-1.88-5.23-2.34-9.46-1.02l-8.21,2.56c-4.23,1.32-6.84,3.91-5.84,5.8l0.18,0.33
		c1,1.88,5.23,2.34,9.46,1.02l8.21-2.56C251.44,89.83,254.05,87.24,253.05,85.36z M247.23,90.12l-7.46,2.89
		c-3.84,1.49-8.04,1.54-9.38,0.11l-0.24-0.26c-1.35-1.43,0.68-3.79,4.52-5.28l7.46-2.89c3.84-1.49,8.04-1.54,9.38-0.11l0.24,0.26
		C253.09,86.27,251.06,88.63,247.23,90.12z"/>
	<path class="st0" d="M250.39,84.54l-0.28-0.18c-1.58-1.03-5.65-0.57-9.09,1.02l-6.68,3.09c-3.43,1.59-4.94,3.71-3.35,4.74
		l0.28,0.18c1.58,1.03,5.65,0.57,9.09-1.01l6.68-3.09C250.47,87.7,251.97,85.58,250.39,84.54L250.39,84.54z M246.69,88.62
		l-5.88,3.17c-3.03,1.63-6.89,2.41-8.62,1.72l-0.31-0.12c-1.74-0.68-0.7-2.54,2.33-4.18l5.88-3.17c3.03-1.63,6.89-2.41,8.62-1.72
		l0.31,0.12C250.76,85.12,249.72,86.99,246.69,88.62z"/>
	<path class="st0" d="M247.66,84.5l-0.33-0.07c-1.82-0.37-5.42,0.64-8.03,2.26l-5.08,3.16c-2.61,1.62-3.26,3.25-1.44,3.62l0.33,0.07
		c1.82,0.37,5.42-0.64,8.03-2.26l5.08-3.16C248.84,86.49,249.48,84.87,247.66,84.5z M245.67,87.76l-4.31,3.07
		c-2.22,1.58-5.51,2.76-7.35,2.63l-0.33-0.02c-1.85-0.12-1.54-1.5,0.68-3.08l4.31-3.07c2.22-1.58,5.51-2.76,7.36-2.63l0.32,0.02
		C248.2,84.8,247.89,86.18,245.67,87.76z"/>
	<path class="st0" d="M245.12,84.95l-0.32,0.02c-1.81,0.08-4.78,1.36-6.62,2.86l-3.58,2.91c-1.84,1.5-1.87,2.65-0.05,2.57l0.32-0.02
		c1.81-0.08,4.78-1.36,6.62-2.86l3.58-2.91C246.91,86.02,246.93,84.87,245.12,84.95z M236.57,92.72l-0.28,0.09
		c-1.57,0.51-1.85-0.14-0.63-1.45l2.37-2.54c1.22-1.31,3.48-2.78,5.04-3.29l0.28-0.09c1.57-0.51,1.85,0.14,0.63,1.45l-2.37,2.54
		C240.39,90.75,238.13,92.22,236.57,92.72z"/>
	<path class="st0" d="M241.44,88.6l1.05-1.86c0.54-0.96,0.07-1.1-1.06-0.33l-0.2,0.14c-1.13,0.77-2.48,2.16-3.02,3.12l-1.05,1.86
		c-0.54,0.96-0.07,1.1,1.06,0.33l0.2-0.14C239.55,90.95,240.9,89.56,241.44,88.6z M239.26,90.74c-0.65,0.6-1.03,0.63-0.84,0.07
		l0.36-1.08c0.18-0.56,0.86-1.5,1.51-2.09l0.11-0.11c0.66-0.6,1.03-0.63,0.84-0.07l-0.36,1.08c-0.18,0.56-0.86,1.5-1.51,2.09
		L239.26,90.74L239.26,90.74z"/>
</g>
</svg>
